<svg xmlns:xlink="http://www.w3.org/1999/xlink" xmlns="http://www.w3.org/2000/svg" id="Flat" viewBox="0 0 300 300" width="1000"  height="1000" ><title>Trousers, pants, slacks, striped, formal, clothes, outfit</title><g transform="rotate(45 60 60)"><path  d="M94.45,123.63a2,2,0,0,1-2,1.99H78.01a1.994,1.994,0,0,1-1.98-1.72L64.3,41.38a.3.3,0,0,0-.6,0L51.97,123.9a1.994,1.994,0,0,1-1.98,1.72H35.55a2,2,0,0,1-2-1.99c-.02-11.87-.09-73.31.76-92.12C34.92,17.76,39.47,9.7,39.47,9.7l1-5.32H87.53l1,5.32s4.55,8.06,5.16,21.81C94.54,50.32,94.47,111.76,94.45,123.63Z" style="fill:#46566d"/><path d="M60.007,7.458V31.334a2.1,2.1,0,0,0,2,2.184h3.989a2.1,2.1,0,0,0,2-2.188V7.458Z" style="fill:#3b485e"/><path d="M88.53,4.38V9.7H39.47V4.38a2,2,0,0,1,2-2H86.53A2,2,0,0,1,88.53,4.38Z" style="fill:#3b485b"/><path d="M43.111,120.559c-.035,0-.07,0-.107,0a1.5,1.5,0,0,1-1.391-1.6l5.032-71.891a1.5,1.5,0,0,1,2.993.21l-5.032,71.891A1.5,1.5,0,0,1,43.111,120.559Z" style="fill:#3b485e"/><path d="M84.889,120.559a1.5,1.5,0,0,1-1.495-1.395L78.362,47.273a1.5,1.5,0,0,1,2.993-.21l5.032,71.891a1.5,1.5,0,0,1-1.391,1.6C84.96,120.558,84.924,120.559,84.889,120.559Z" style="fill:#3b485e"/><path d="M77.917,14.212a1.5,1.5,0,0,1-1.5-1.5V6.4a1.5,1.5,0,0,1,3,0v6.312A1.5,1.5,0,0,1,77.917,14.212Z" style="fill:#2e3949"/><circle cx="64" cy="14.156" r="1.719" style="fill:#2e3949"/><path d="M50.083,14.212a1.5,1.5,0,0,1-1.5-1.5V6.4a1.5,1.5,0,1,1,3,0v6.312A1.5,1.5,0,0,1,50.083,14.212Z" style="fill:#2e3949"/></g>
<g transform="rotate(-45 350 100) "><path d="M47.989,6.292V42H80.011V6.292A86.6,86.6,0,0,1,47.989,6.292Z" style="fill:#f4b7a6"/><path d="M116.486,96.334l-16.97-79.75a4,4,0,0,0-2.32-2.838L81.732,7.038,59.667,40.417,61.416,125.5h40.119a2,2,0,0,0,1.989-2.2L101.011,98.75H114.53A2,2,0,0,0,116.486,96.334Z" style="fill:#c16765"/><path d="M46.268,7.038,30.8,13.746a4,4,0,0,0-2.32,2.838l-16.97,79.75A2,2,0,0,0,13.47,98.75H26.989l-2.513,24.541a2,2,0,0,0,1.989,2.2H74.856a2,2,0,0,0,2-2V56.928a11.045,11.045,0,0,0-1.813-6.064Z" style="fill:#d37f7a"/><path d="M84.242,15.827h0l3.188.5a2,2,0,0,0,2.3-2.121l-.481-6.59a2,2,0,0,0-1.175-1.679L83.526,3.89A2,2,0,0,0,81,4.673L61.416,36.782l5.747,6.725,21.372-18.87a2,2,0,0,0,.278-2.7Z" style="fill:#ffe0d7"/><circle cx="56.401" cy="60.457" r="2.039" style="fill:#ffe0d7"/><circle cx="71.599" cy="60.457" r="2.039" style="fill:#ffe0d7"/><circle cx="56.401" cy="76.124" r="2.039" style="fill:#ffe0d7"/><circle cx="71.599" cy="76.124" r="2.039" style="fill:#ffe0d7"/><path d="M76.417,52.906,47,4.673a2,2,0,0,0-2.528-.783L39.922,5.935a2,2,0,0,0-1.175,1.679l-.481,6.59a2,2,0,0,0,2.3,2.121l3.188-.5h0L39.187,21.94a2,2,0,0,0,.278,2.7L76.856,58.418v-3.95A3,3,0,0,0,76.417,52.906Z" style="fill:#fff4f0"/><path d="M36.83,89.791a1.542,1.542,0,0,1-.39-.051A1.5,1.5,0,0,1,35.38,87.9L40.3,69.569a1.5,1.5,0,0,1,2.9.778L38.278,88.68A1.5,1.5,0,0,1,36.83,89.791Z" style="fill:#a05050"/><path d="M91.17,89.791a1.5,1.5,0,0,1-1.448-1.111L84.805,70.347a1.5,1.5,0,1,1,2.9-.778L92.62,87.9a1.5,1.5,0,0,1-1.06,1.838A1.542,1.542,0,0,1,91.17,89.791Z" style="fill:#a05050"/><path d="M26.991,100.25c-.051,0-.1,0-.154-.008A1.5,1.5,0,0,1,25.5,98.6l7.2-70.25a1.5,1.5,0,0,1,2.985.306l-7.2,70.25A1.5,1.5,0,0,1,26.991,100.25Z" style="fill:#a05050"/><path d="M101.009,100.25a1.5,1.5,0,0,1-1.49-1.347l-7.2-70.25a1.5,1.5,0,0,1,2.985-.306L102.5,98.6a1.5,1.5,0,0,1-1.34,1.645C101.111,100.247,101.06,100.25,101.009,100.25Z" style="fill:#a05050"/></g>
<g transform="rotate(-45, 150, -100)"><path d="M124.14,114.83l-15.15,5.2a2,2,0,0,1-2.52-1.19l-.46-1.21-1.07-2.79L95.08,88.98l-.62,15.66-2.891,3.735-54.257.375-3.772-4.11-.62-15.66-9.86,25.86-1.07,2.79-.46,1.21a2,2,0,0,1-2.52,1.19l-15.15-5.2a2.008,2.008,0,0,1-1.26-2.52c3.02-9.15,16.37-49.5,23.1-68.42A25.139,25.139,0,0,1,37.9,29.96l5.56-3.02H84.54l5.56,3.02a25.139,25.139,0,0,1,12.2,13.93c6.73,18.92,20.08,59.27,23.1,68.42A2.008,2.008,0,0,1,124.14,114.83Z" style="fill:#4693d3"/><path d="M94.46,104.64l-.14,3.57a2,2,0,0,1-2,1.93H35.68a2,2,0,0,1-2-1.93l-.14-3.57Z" style="fill:#3b77b2"/><path d="M89.6,20.034c-3.8-4.461-9.77-12.175-15.78-12.175H54.182c-6.01,0-11.979,7.714-15.78,12.175a3.671,3.671,0,0,0,.014,5.045c3.958,3.949,15.279,10.6,25.492,11.185h.184c10.213-.588,21.534-7.236,25.492-11.185A3.671,3.671,0,0,0,89.6,20.034Z" style="fill:#47a3e2"/><path d="M23.06,114.84l-1.07,2.79L7.15,112.44a1.5,1.5,0,0,1,.99-2.83L23,114.81C23.02,114.82,23.04,114.82,23.06,114.84Z" style="fill:#3b77b2"/><path d="M56.152,70.407a1.5,1.5,0,0,1-1.5-1.5c0-9.121,4.91-35.157,5.119-36.261a1.5,1.5,0,0,1,2.948.558c-.051.268-5.067,26.862-5.067,35.7A1.5,1.5,0,0,1,56.152,70.407Z" style="fill:#f4ecdc"/><path d="M64,30.473a13.507,13.507,0,0,1-6.344-1.585c-4.195-2.234-7.021-5.174-8.4-8.738a1.5,1.5,0,1,1,2.8-1.081c1.109,2.872,3.467,5.285,7.009,7.17a10.483,10.483,0,0,0,9.868,0c3.542-1.885,5.9-4.3,7.009-7.17a1.5,1.5,0,1,1,2.8,1.081c-1.377,3.564-4.2,6.5-8.4,8.738A13.507,13.507,0,0,1,64,30.473Z" style="fill:#3b77b2"/><path d="M120.85,112.44l-14.84,5.19-1.07-2.79c.02-.02.04-.02.06-.03l14.86-5.2a1.5,1.5,0,0,1,.99,2.83Z" style="fill:#3b77b2"/><path d="M71.848,70.407a1.5,1.5,0,0,1-1.5-1.5c0-8.842-5.016-35.435-5.067-35.7a1.5,1.5,0,0,1,2.948-.559c.208,1.1,5.119,27.14,5.119,36.261A1.5,1.5,0,0,1,71.848,70.407Z" style="fill:#f4ecdc"/><path d="M86.912,98.371a1.5,1.5,0,0,1-.8-.23A33.106,33.106,0,0,1,75.177,87.193a1.5,1.5,0,0,1,2.572-1.545A30.133,30.133,0,0,0,87.712,95.6a1.5,1.5,0,0,1-.8,2.769Z" style="fill:#3b77b2"/><path d="M41.088,98.371a1.5,1.5,0,0,1-.8-2.769,30.133,30.133,0,0,0,9.963-9.954,1.5,1.5,0,0,1,2.572,1.545A33.106,33.106,0,0,1,41.886,98.141,1.5,1.5,0,0,1,41.088,98.371Z" style="fill:#3b77b2"/><path d="M32.918,90.483a1.5,1.5,0,0,1-1.5-1.441L29.762,46.966a1.5,1.5,0,0,1,1.44-1.558,1.527,1.527,0,0,1,1.558,1.44l1.658,42.076a1.5,1.5,0,0,1-1.44,1.558Z" style="fill:#3b77b2"/><path d="M95.082,90.483h-.06a1.5,1.5,0,0,1-1.44-1.558L95.24,46.848a1.5,1.5,0,1,1,3,.118L96.58,89.042A1.5,1.5,0,0,1,95.082,90.483Z" style="fill:#3b77b2"/></g>
<g transform="rotate(-45, 200, 100)"><path d="M80.774,6.276a105.279,105.279,0,0,1-33.548,0V110.92l5.922.232q10.8-.471,21.7.013h7.779Z" style="fill:#4f8eaa"/><path d="M77.66,15.33l-3.27,87.3q-10.44-.435-20.78-.01l-2.86-87A105.986,105.986,0,0,0,77.66,15.33Z" style="fill:#f4ecdc"/><path d="M59.36,25.84a15.746,15.746,0,0,1-1.53-5.13l-.38-3.68L40.929,12.059l-.574.475S26.03,18.11,23.05,23.02C20.41,27.38,7.82,89.28,3.33,111.65c-.47,2.34-.85,4.25-1.12,5.61-.25,1.23,19.34,1.8,19.6.96l1.98-6.57L31.6,85.68l2.02,26.11c.04.45,19.02,3.84,19.07,3.25l7.6-84.01A10.026,10.026,0,0,0,59.36,25.84Z" style="fill:#6fb7ce"/><path d="M106.19,118.22l-1.98-6.57L96.4,85.68l-1.33,17.25-.69,8.86c-.04.45-19.02,3.84-19.07,3.25l-.81-8.92L67.71,31.03a10.026,10.026,0,0,1,.93-5.19,15.746,15.746,0,0,0,1.53-5.13l.38-3.68,16.317-5.042.778.546S101.97,18.11,104.95,23.02c2.64,4.36,15.23,66.26,19.72,88.63.47,2.34.85,4.25,1.12,5.61C126.04,118.49,106.45,119.06,106.19,118.22Z" style="fill:#6fb7ce"/><path d="M123.83,119.64H108.11a2.017,2.017,0,0,1-1.92-1.42l-1.98-6.57h20.46c.47,2.34.85,4.25,1.12,5.61A1.992,1.992,0,0,1,123.83,119.64Z" style="fill:#5a9fba"/><path d="M32.93,102.93l.69,8.86a1,1,0,0,0,.81.9l17.08,3.24a.994.994,0,0,0,1.18-.89l.81-8.92Z" style="fill:#5a9fba"/><path d="M74.764,32.322H71.836a1.5,1.5,0,1,1,0-3h2.928a1.5,1.5,0,0,1,0,3Z" style="fill:#4f8eaa"/><path d="M77.089,59.935H74.162a1.5,1.5,0,0,1,0-3h2.927a1.5,1.5,0,0,1,0,3Z" style="fill:#4f8eaa"/><path d="M79.727,86.75H76.8a1.5,1.5,0,0,1,0-3h2.928a1.5,1.5,0,0,1,0,3Z" style="fill:#4f8eaa"/><path d="M91.054,46.972H78.211a2.774,2.774,0,0,0-2.774,2.775h0a2.774,2.774,0,0,0,1.377,2.4L80.862,54.5a8.293,8.293,0,0,0,7.541,0l4.048-2.359a2.774,2.774,0,0,0,1.377-2.4h0A2.774,2.774,0,0,0,91.054,46.972Z" style="fill:#8ac6dd"/><path d="M93.828,48.473H75.437a1.5,1.5,0,0,1,0-3H93.828a1.5,1.5,0,0,1,0,3Z" style="fill:#4f8eaa"/><path d="M84.632,56.945A9.087,9.087,0,0,1,80.106,55.8l-5.425-3.162a1.5,1.5,0,0,1,1.511-2.592l5.425,3.162a6.617,6.617,0,0,0,6.03,0l5.426-3.162a1.5,1.5,0,1,1,1.51,2.592L89.158,55.8A9.084,9.084,0,0,1,84.632,56.945Z" style="fill:#4f8eaa"/><path d="M49.789,46.972H36.946a2.774,2.774,0,0,0-2.774,2.775h0a2.774,2.774,0,0,0,1.377,2.4L39.6,54.5a8.293,8.293,0,0,0,7.541,0l4.048-2.359a2.774,2.774,0,0,0,1.377-2.4h0A2.774,2.774,0,0,0,49.789,46.972Z" style="fill:#8ac6dd"/><circle cx="54.956" cy="30.715" r="2.039" style="fill:#f4ecdc"/><circle cx="52.563" cy="58.435" r="2.039" style="fill:#f4ecdc"/><circle cx="43.367" cy="51.341" r="2.039" style="fill:#f4ecdc"/><circle cx="84.633" cy="51.341" r="2.039" style="fill:#f4ecdc"/><circle cx="50.524" cy="85.25" r="2.039" style="fill:#f4ecdc"/><circle cx="48.132" cy="110.5" r="2.039" style="fill:#f4ecdc"/><path d="M59.388,42.5H32.5a1.5,1.5,0,0,1,0-3H59.388a1.5,1.5,0,1,1,0,3Z" style="fill:#4f8eaa"/><path d="M95.5,42.5H68.612a1.5,1.5,0,0,1,0-3H95.5a1.5,1.5,0,0,1,0,3Z" style="fill:#4f8eaa"/><path d="M82.255,6.857a1.956,1.956,0,0,0-2.893.062L70.547,17.034l6.793,9.13a1.955,1.955,0,0,0,3.06-.475l7.245-13.155Z" style="fill:#8ac6dd"/><path d="M45.745,6.857l-5.39,5.677L47.6,25.689a1.955,1.955,0,0,0,3.06.475l6.793-9.13L48.638,6.919A1.956,1.956,0,0,0,45.745,6.857Z" style="fill:#8ac6dd"/><path d="M23.79,111.65l-1.98,6.57a2.017,2.017,0,0,1-1.92,1.42H4.17a1.992,1.992,0,0,1-1.96-2.38c.27-1.36.65-3.27,1.12-5.61Z" style="fill:#5a9fba"/><path d="M95.07,102.93l-.69,8.86a1,1,0,0,1-.81.9l-17.08,3.24a.994.994,0,0,1-1.18-.89l-.81-8.92Z" style="fill:#5a9fba"/><path d="M52.563,48.473H34.172a1.5,1.5,0,0,1,0-3H52.563a1.5,1.5,0,0,1,0,3Z" style="fill:#4f8eaa"/><path d="M43.368,56.945A9.082,9.082,0,0,1,38.842,55.8l-5.425-3.162a1.5,1.5,0,0,1,1.51-2.592l5.426,3.162a6.617,6.617,0,0,0,6.03,0l5.425-3.162a1.5,1.5,0,0,1,1.511,2.592L47.894,55.8A9.084,9.084,0,0,1,43.368,56.945Z" style="fill:#4f8eaa"/><path d="M96.4,87.18a1.145,1.145,0,0,1-.117-.005,1.5,1.5,0,0,1-1.38-1.612l4.537-58.636a1.5,1.5,0,0,1,2.992.232L97.892,85.8A1.5,1.5,0,0,1,96.4,87.18Z" style="fill:#4f8eaa"/><path d="M31.6,87.18A1.5,1.5,0,0,1,30.108,85.8L25.57,27.159a1.5,1.5,0,0,1,1.38-1.611,1.482,1.482,0,0,1,1.612,1.379L33.1,85.563a1.5,1.5,0,0,1-1.38,1.612A1.145,1.145,0,0,1,31.6,87.18Z" style="fill:#4f8eaa"/><path d="M82.039,111.75H79.111a1.5,1.5,0,1,1,0-3h2.928a1.5,1.5,0,0,1,0,3Z" style="fill:#332c44"/><path d="M82.039,111.75H79.111a1.5,1.5,0,1,1,0-3h2.928a1.5,1.5,0,0,1,0,3Z" style="fill:#3f87a0"/></g>
<g transform="rotate(45, -100, 350)"><path d="M125.793,52.828l-14.2-27.04A22.575,22.575,0,0,0,99.832,15.15c-2.819-1.089-11.7-4.163-11.7-4.163H39.865s-8.878,3.074-11.7,4.163A22.575,22.575,0,0,0,16.406,25.788l-14.2,27.04a2,2,0,0,0,1.046,2.793l23.431,9.491-3.555,58.264a2,2,0,0,0,2,2.122h77.748a2,2,0,0,0,2-2.122l-3.553-58.237,23.429-9.518A2,2,0,0,0,125.793,52.828Z" style="fill:#8ddbdb"/><path d="M27.039,60.779a1.487,1.487,0,0,1-.562-.11l-20.011-8.1a1.5,1.5,0,1,1,1.126-2.78l20.011,8.1a1.5,1.5,0,0,1-.564,2.89Z" style="fill:#41a5a0"/><path d="M100.961,60.779a1.5,1.5,0,0,1-.564-2.89l20.011-8.1a1.5,1.5,0,0,1,1.126,2.78l-20.011,8.1A1.487,1.487,0,0,1,100.961,60.779Z" style="fill:#41a5a0"/><path d="M99.643,120.626H28.4a1.5,1.5,0,1,1,0-3H99.643a1.5,1.5,0,0,1,0,3Z" style="fill:#41a5a0"/><path d="M26.685,66.612c-.031,0-.061,0-.093,0a1.5,1.5,0,0,1-1.4-1.588L27,35.242A1.5,1.5,0,1,1,30,35.425L28.181,65.2A1.5,1.5,0,0,1,26.685,66.612Z" style="fill:#41a5a0"/><path d="M101.317,66.639a1.5,1.5,0,0,1-1.5-1.409L98,35.425A1.5,1.5,0,1,1,101,35.242l1.818,29.806a1.5,1.5,0,0,1-1.405,1.588C101.378,66.638,101.348,66.639,101.317,66.639Z" style="fill:#41a5a0"/><path d="M61.618,17.955h4.764a2.382,2.382,0,0,1,2.382,2.382V35.388a2.38,2.38,0,0,1-2.38,2.38H61.616a2.38,2.38,0,0,1-2.38-2.38V20.337A2.382,2.382,0,0,1,61.618,17.955Z" style="fill:#43afa7"/><circle cx="64" cy="27.006" r="1.735" style="fill:#25747a"/><path d="M87.91,12.59a37.9,37.9,0,0,1-9.33,13.15,4.963,4.963,0,0,1-6.7-.07L68.6,22.81a7,7,0,0,0-9.206,0L56.12,25.67a4.963,4.963,0,0,1-6.7.07,37.9,37.9,0,0,1-9.33-13.15,3,3,0,0,1,.3-2.94L44.1,4.38a4.717,4.717,0,0,1,2.15-1.81,2.938,2.938,0,0,1,1.6-.17A94.851,94.851,0,0,0,64,3.57,94.851,94.851,0,0,0,80.15,2.4a2.938,2.938,0,0,1,1.6.17A4.717,4.717,0,0,1,83.9,4.38l3.71,5.27A3,3,0,0,1,87.91,12.59Z" style="fill:#61c9c6"/><path d="M81.75,2.57c-2.083,5.371-8.411,10.467-14.711,14.11a6.057,6.057,0,0,1-6.078,0c-6.3-3.643-12.628-8.739-14.711-14.11a2.938,2.938,0,0,1,1.6-.17A94.851,94.851,0,0,0,64,3.57,94.851,94.851,0,0,0,80.15,2.4,2.938,2.938,0,0,1,81.75,2.57Z" style="fill:#41a5a0"/></g>
</svg>