<svg xmlns:xlink="http://www.w3.org/1999/xlink" xmlns="http://www.w3.org/2000/svg" id="레이어_1" data-name="레이어 1" viewBox="0 0 48 48" width="100"  height="100" ><defs><style>.cls-1{fill:#ef876f;}.cls-2{fill:#72c8db;}.cls-3{fill:#e9dcd2;}.cls-4{fill:#f8cb6d;}.cls-5{fill:#19171b;}</style></defs><rect class="cls-1" x="28.81" y="18.92" width="4.72" height="5.63"/><rect class="cls-2" x="28.81" y="27.01" width="4.72" height="5.63"/><rect class="cls-2" x="28.81" y="35.09" width="4.72" height="5.63"/><rect class="cls-2" x="21.64" y="18.92" width="4.72" height="5.63"/><rect class="cls-2" x="35.99" y="27.01" width="4.72" height="5.63"/><path class="cls-3" d="M318.38,378.56a1.2,1.2,0,0,0,2.4,0v-2.91a1.2,1.2,0,1,0-2.4,0Z" transform="translate(-282 -372.5)"/><rect class="cls-2" x="35.99" y="18.92" width="4.72" height="5.63"/><rect class="cls-1" x="21.64" y="27.01" width="4.72" height="5.63"/><path class="cls-3" d="M291.23,378.56a1.2,1.2,0,1,0,2.39,0v-2.91a1.2,1.2,0,1,0-2.39,0Z" transform="translate(-282 -372.5)"/><path class="cls-3" d="M304.8,378.56a1.2,1.2,0,0,0,2.4,0v-2.91a1.2,1.2,0,0,0-2.4,0Z" transform="translate(-282 -372.5)"/><path class="cls-4" d="M285.64,418.54h40.72a1.69,1.69,0,0,0,1.69-1.68V386.09H284v30.77A1.69,1.69,0,0,0,285.64,418.54Zm1.19-20.26a1.23,1.23,0,0,1,1.23-1.23h13.13V390.2a1.23,1.23,0,0,1,1.22-1.23h21.53a1.23,1.23,0,0,1,1.23,1.23v16.16a1.23,1.23,0,0,1-1.23,1.23H318v6.85a1.23,1.23,0,0,1-1.23,1.23h-28.7a1.23,1.23,0,0,1-1.23-1.23Z" transform="translate(-282 -372.5)"/><rect class="cls-1" x="7.29" y="35.09" width="4.72" height="5.63"/><rect class="cls-2" x="21.64" y="35.09" width="4.72" height="5.63"/><path class="cls-1" d="M326.36,378.33h-3.13v.23a3.65,3.65,0,0,1-7.3,0v-.23h-6.28v.23a3.65,3.65,0,0,1-7.3,0v-.23h-6.28v.23a3.65,3.65,0,1,1-7.3,0v-.23h-3.13A1.69,1.69,0,0,0,284,380v3.63h44.1V380A1.69,1.69,0,0,0,326.36,378.33Z" transform="translate(-282 -372.5)"/><rect class="cls-2" x="7.29" y="27.01" width="4.72" height="5.63"/><rect class="cls-2" x="14.46" y="27.01" width="4.72" height="5.63"/><rect class="cls-2" x="14.46" y="35.09" width="4.72" height="5.63"/><path class="cls-5" d="M326.36,376.38h-3.63v-.73a3.15,3.15,0,0,0-6.3,0v.73h-7.28v-.73a3.15,3.15,0,0,0-6.3,0v.73h-7.28v-.73a3.15,3.15,0,1,0-6.3,0v.73h-3.63A3.64,3.64,0,0,0,282,380v36.85a3.64,3.64,0,0,0,3.64,3.64h40.72a3.64,3.64,0,0,0,3.64-3.64V380A3.64,3.64,0,0,0,326.36,376.38Zm-8.48-.73a1.7,1.7,0,1,1,3.4,0v2.91a1.7,1.7,0,0,1-3.4,0Zm-13.58,0a1.7,1.7,0,0,1,3.4,0v2.91a1.7,1.7,0,0,1-3.4,0Zm-13.57,0a1.7,1.7,0,1,1,3.39,0v2.91a1.7,1.7,0,1,1-3.39,0Zm37.82,41.21a2.18,2.18,0,0,1-2.19,2.18H285.64a2.18,2.18,0,0,1-2.19-2.18V385.59h45.1Zm0-32.72h-45.1V380a2.19,2.19,0,0,1,2.19-2.18h3.63v.73a3.15,3.15,0,1,0,6.3,0v-.73h7.28v.73a3.15,3.15,0,0,0,6.3,0v-.73h7.28v.73a3.15,3.15,0,1,0,6.3,0v-.73h3.63a2.19,2.19,0,0,1,2.19,2.18Z" transform="translate(-282 -372.5)"/><path class="cls-5" d="M288.06,415.17h28.7a.73.73,0,0,0,.73-.73v-7.35h6.45a.73.73,0,0,0,.73-.73V390.2a.73.73,0,0,0-.73-.73H302.41a.72.72,0,0,0-.72.73v7.35H288.06a.73.73,0,0,0-.73.73v16.16A.73.73,0,0,0,288.06,415.17Zm29.43-24.25h5.72v6.63h-5.72Zm0,8.09h5.72v6.62h-5.72Zm-7.17-8.09H316v6.63h-5.72Zm0,8.09H316v6.62h-5.72Zm0,8.08H316v6.62h-5.72Zm-7.18-16.17h5.72v6.63h-5.72Zm0,8.09h5.72v6.62h-5.72Zm0,8.08h5.72v6.62h-5.72ZM296,399h5.73v6.62H296Zm0,8.08h5.73v6.62H296ZM288.79,399h5.72v6.62h-5.72Zm0,8.08h5.72v6.62h-5.72Z" transform="translate(-282 -372.5)"/></svg>