<svg xmlns:xlink="http://www.w3.org/1999/xlink" xmlns="http://www.w3.org/2000/svg" id="레이어_1" data-name="레이어 1" viewBox="0 0 800 800" width="212.47"  height="205.25" transform="translate(300, 500)"><defs><style>.cls-1{fill:#543b4d;}.cls-2{fill:#190407;}.cls-3{fill:#6a5364;}.cls-4{fill:#391b31;}.cls-5{fill:#85717f;}.cls-6{fill:#040000;}.cls-7{fill:#7f6b70;}.cls-8{fill:#e94d4f;}.cls-9{fill:#ac1f24;}.cls-10{fill:#ffeec0;}.cls-11{fill:#2e3035;}.cls-12{fill:#b99176;}.cls-13{fill:#4c525a;}.cls-14{isolation:isolate;}.cls-15{fill:#8da3b2;}.cls-16{fill:#5d8183;}.cls-17{fill:#71a7aa;}.cls-18{fill:#fff;}.cls-19{fill:#f6a828;}</style></defs><g transform="scale(-1, 1) translate(-212.47, 0)"><path class="cls-1" d="M198.19,285.09a10.79,10.79,0,0,0-4.67,8.57c.09,3.09,2.31,4.29,5,2.65a10.75,10.75,0,0,0,4.66-8.56C203.07,284.65,200.85,283.46,198.19,285.09Z" transform="translate(-106.49 -283.56) "/><polygon class="cls-2" points="19.57 114.09 54.62 134.33 54.62 122.13 19.57 101.89 19.57 114.09"/><polygon class="cls-2" points="11.1 118.88 41.43 101.37 44.6 84.9 14.27 102.41 11.1 118.88"/><polygon class="cls-1" points="7.57 116.96 11.13 119.01 15.08 102.08 7.57 96.62 7.57 116.96"/><path class="cls-2" d="M178.85,459.83c-11.53-6.65-30.17-6.69-41.62-.07s-11.4,17.37.13,24,30.16,6.69,41.62.07S190.38,466.49,178.85,459.83Z" transform="translate(-106.49 -283.56)"/><path class="cls-1" d="M178.85,456.42c-11.53-6.65-30.17-6.69-41.62-.07s-11.4,17.37.13,24,30.16,6.69,41.62.07S190.38,463.08,178.85,456.42Z" transform="translate(-106.49 -283.56)"/><path class="cls-2" d="M155.42,383.45v85.82h0a1.42,1.42,0,0,0,.86,1.34,4.62,4.62,0,0,0,4.19,0,1.39,1.39,0,0,0,.86-1.26V386.86Z" transform="translate(-106.49 -283.56)"/><polygon class="cls-1" points="89.06 8.37 83.81 46.27 91.93 51.9 94.63 8.94 89.07 8.39 89.06 8.37"/><polygon class="cls-2" points="89.39 46.78 91.93 51.9 97.1 14.38 94.64 8.97 89.39 46.78"/><path class="cls-3" d="M140.31,303.49l-29.24,16.89,106.41,61.55,17.73-27.09-89.66-51.73S142.06,302.47,140.31,303.49Z" transform="translate(-106.49 -283.56)"/><path class="cls-1" d="M106.49,327.41l107,61.89,4-7.37L111.07,320.38A10.82,10.82,0,0,0,106.49,327.41Z" transform="translate(-106.49 -283.56)"/><polygon class="cls-4" points="0 94.82 89.05 146.53 89.05 95.37 0 43.85 0 94.82"/><path class="cls-2" d="M228.4,354.48l-29.25,16.9a11,11,0,0,0-4.59,7v49.91c.4,2.17,2.49,2.95,4.59,1.71l36.49-21a8.57,8.57,0,0,0,3.85-6.71V365C239.49,352.51,230.53,353.25,228.4,354.48Z" transform="translate(-106.49 -283.56)"/><path class="cls-4" d="M212.74,342.18a5.47,5.47,0,0,0-4.88,0,1.7,1.7,0,0,0-1,1.44L207,354.9l6.89-.13-.14-11.33A1.87,1.87,0,0,0,212.74,342.18Z" transform="translate(-106.49 -283.56)"/><path class="cls-4" d="M212.88,353.38a5.39,5.39,0,0,0-4.87,0c-1.34.8-1.34,2.06,0,2.83a5.39,5.39,0,0,0,4.87-.05C214.24,355.41,214.23,354.15,212.88,353.38Z" transform="translate(-106.49 -283.56)"/><path class="cls-4" d="M184.91,327.55a5.47,5.47,0,0,0-4.88.05,1.69,1.69,0,0,0-1,1.43l.14,11.24,6.89-.13-.14-11.33A1.84,1.84,0,0,0,184.91,327.55Z" transform="translate(-106.49 -283.56)"/><path class="cls-4" d="M185.05,338.75a5.36,5.36,0,0,0-4.87,0c-1.34.79-1.34,2,0,2.82a5.36,5.36,0,0,0,4.87-.05C186.41,340.78,186.4,339.52,185.05,338.75Z" transform="translate(-106.49 -283.56)"/><path class="cls-5" d="M163,299.73c-1.54-2.74-4.81-3.4-8.55-1.21-5.29,3-9.55,10.46-9.59,16.55,0,4.3,2.14,6.79,5.27,6.81h0l10.63.05,7.58-13.12L163,299.72Z" transform="translate(-106.49 -283.56)"/><path class="cls-4" d="M163.62,308.51c-3.05,1.74-5.78,4.56-5.52,9.52.19,3.52,2.47,5,5.52,3.19a12.14,12.14,0,0,0,5.52-9.55C169.14,308.15,166.68,306.75,163.62,308.51Z" transform="translate(-106.49 -283.56)"/><path class="cls-5" d="M163.62,309.68a9.9,9.9,0,0,0-4.47,7.77,3.14,3.14,0,0,0,1.31,2.91l27.45,15.83,6.33-11-27.45-15.84A3.09,3.09,0,0,0,163.62,309.68Z" transform="translate(-106.49 -283.56)"/><path class="cls-1" d="M160.46,320.36l27.45,15.83,2.49-4.32-31.25-14.42A3.14,3.14,0,0,0,160.46,320.36Z" transform="translate(-106.49 -283.56)"/><path class="cls-1" d="M189.79,323.43a12.67,12.67,0,0,0-5.77,10,4.08,4.08,0,0,0,1.68,3.72l7.84,4.51,8.13-14.1L193.84,323A4,4,0,0,0,189.79,323.43Z" transform="translate(-106.49 -283.56)"/><path class="cls-2" d="M197.6,327.94a12.76,12.76,0,0,0-5.76,10c0,3.69,2.59,5.16,5.76,3.34a12.74,12.74,0,0,0,5.76-10C203.36,327.58,200.79,326.1,197.6,327.94Z" transform="translate(-106.49 -283.56)"/><path class="cls-5" d="M113.14,309.46a6.65,6.65,0,0,0-3,5.12,2.3,2.3,0,0,0,.72,1.82l15.32,8.9,4.25-7.18-15.22-8.85A2,2,0,0,0,113.14,309.46Z" transform="translate(-106.49 -283.56)"/><path class="cls-4" d="M128.3,318.29a6.54,6.54,0,0,0-2.94,5.11c0,1.89,1.32,2.65,2.94,1.71a6.55,6.55,0,0,0,3-5.11C131.26,318.11,129.93,317.35,128.3,318.29Z" transform="translate(-106.49 -283.56)"/><polygon class="cls-3" points="99.27 62.06 103.34 64.42 109.97 60.56 105.94 58.23 99.27 62.06"/><path class="cls-4" d="M194.6,334.55v4.75l18.34,10.59a4.58,4.58,0,0,0,4.6,0l1.85-1.06a1.66,1.66,0,0,0,.81-1.72l0-4.5Z" transform="translate(-106.49 -283.56)"/><path class="cls-3" d="M219.39,341.17,201.25,330.7l-6.65,3.85,18.34,10.59a4.58,4.58,0,0,0,4.6,0l1.85-1.07A1.67,1.67,0,0,0,219.39,341.17Z" transform="translate(-106.49 -283.56)"/><path class="cls-4" d="M216.92,372.33c-8.41,4.86-15.25,16.69-15.25,26.41,0,4.41,1.42,7.61,3.74,9.36l29.28,17,21.71-37.23-28.58-16.52C225.05,369.67,221.19,369.86,216.92,372.33Z" transform="translate(-106.49 -283.56)"/><path class="cls-6" d="M245.28,388.69c-8.43,4.87-15.26,16.7-15.26,26.43s6.83,13.65,15.26,8.8,15.24-16.69,15.24-26.43S253.7,383.82,245.28,388.69Z" transform="translate(-106.49 -283.56)"/><polygon class="cls-2" points="116.52 138.96 125.88 184.77 128.2 132.92 116.52 116.97 116.52 138.96"/><polygon class="cls-1" points="116.52 116.97 125.88 133.69 130.59 128.51 134 119.63 120.98 109.28 116.52 116.97"/><polygon class="cls-3" points="120.98 109.28 134 119.63 195.79 83.92 154.83 89.74 120.98 109.28"/><polygon class="cls-7" points="134 119.63 125.88 133.69 125.88 184.77 134.44 189.72 195.79 153.78 203.91 139.69 204.36 88.89 195.79 83.92 134 119.63"/><polygon class="cls-1" points="142.55 124.57 134.44 138.63 134.44 189.72 142.55 194.41 204.36 158.72 212.47 144.66 212.47 93.58 204.36 88.89 142.55 124.57"/><polygon class="cls-3" points="199.69 146.71 140.26 181.02 140.26 189.06 206.65 150.72 206.65 94.21 199.69 98.24 199.69 146.71"/><polygon class="cls-2" points="140.26 181.02 199.69 146.71 199.69 98.24 140.26 132.57 140.26 181.02"/><path class="cls-1" d="M203.14,284.65a16.06,16.06,0,0,0-6.95,12.77c.12,4.62,3.43,6.39,7.4,4a16.06,16.06,0,0,0,6.95-12.77C210.42,284,207.11,282.22,203.14,284.65Z" transform="translate(-106.49 -283.56)"/><path class="cls-2" d="M205.7,286.44a16.05,16.05,0,0,0-7,12.77c.12,4.61,3.43,6.39,7.4,4a16.07,16.07,0,0,0,7-12.77C213,285.78,209.66,284,205.7,286.44Z" transform="translate(-106.49 -283.56)"/><path class="cls-8" d="M288.14,323.77c-17.28-9.56-70.34-35.9-70.34-35.9-11.36-7.36-22.61,13.51-11.8,20.5,0,0,44.35,31.16,62,41.87C290.88,364.16,306.37,333.86,288.14,323.77Z" transform="translate(-106.49 -283.56)"/><path class="cls-9" d="M288.92,324.23a14.86,14.86,0,0,1,4.9,10.53c0,7.83-6.13,13.36-17.28,11-7.16-1.53-74.83-47.11-74.83-47.11-.39,3.75.78,7.48,4.29,9.75,0,0,44.35,31.16,62,41.87C290.55,364,305.92,334.74,288.92,324.23Z" transform="translate(-106.49 -283.56)"/><polygon class="cls-2" points="22.49 93.96 58.92 114.99 58.92 90.42 22.49 69.39 22.49 93.96"/><polygon class="cls-10" points="24.55 92.94 58.91 112.78 58.91 90.52 24.55 70.68 24.55 92.94"/><polygon class="cls-11" points="26.05 80.54 56.8 97.74 56.8 91.64 26.05 74.44 26.05 80.54"/><polygon class="cls-12" points="28.73 92.29 53.61 106.22 53.61 98.43 28.73 84.5 28.73 92.29"/><path class="cls-13" d="M139.66,363.9c-2.59-1.49-4.81-1-5.84.91l11.59,6.49A14.22,14.22,0,0,0,139.66,363.9Z" transform="translate(-106.49 -283.56)"/><path class="cls-13" d="M155.13,372.62c-2.73-1.58-5.1-1.25-6.39.52l12.65,7.08A16,16,0,0,0,155.13,372.62Z" transform="translate(-106.49 -283.56)"/><path class="cls-7" d="M145.11,402.74a4.71,4.71,0,0,0-2.35,4.07v25.72c0,3.62,5.08,7.28,9,5.21l37.08-57.94-2.13-1.08Z" transform="translate(-106.49 -283.56)"/><path class="cls-1" d="M145.19,407.72v25.72a4.69,4.69,0,0,0,7,4.07l36.63-21.14V379.8l-41.32,23.85A4.69,4.69,0,0,0,145.19,407.72Z" transform="translate(-106.49 -283.56)"/><path class="cls-12" d="M160.8,404.34l-9.43,5.44a1.63,1.63,0,0,0-.82,1.42h0a1.65,1.65,0,0,0,2.47,1.42l9.42-5.44a1.64,1.64,0,0,0-1.64-2.85Z" transform="translate(-106.49 -283.56)"/><path class="cls-12" d="M160.8,423.15l-9.43,5.44a1.63,1.63,0,0,0-.82,1.42h0a1.65,1.65,0,0,0,2.47,1.43l9.42-5.44a1.64,1.64,0,0,0-1.64-2.85Z" transform="translate(-106.49 -283.56)"/><g class="cls-14"><path class="cls-15" d="M276.41,400.85C266.21,406.74,258,421,258,432.76s8.34,16.44,18.54,10.55,18.44-20.16,18.41-31.89S286.61,395,276.41,400.85Z" transform="translate(-106.49 -283.56)"/><path class="cls-16" d="M276.42,403c-9.18,5.3-16.61,18.16-16.58,28.71s7.51,14.79,16.69,9.49,16.59-18.14,16.56-28.69S285.6,397.68,276.42,403Z" transform="translate(-106.49 -283.56)"/><path class="cls-17" d="M274.36,405.71c-6.59,3.8-11.92,13-11.9,20.6s5.39,10.62,12,6.81,11.9-13,11.88-20.58S281,401.9,274.36,405.71Z" transform="translate(-106.49 -283.56)"/><path class="cls-1" d="M272,407.77a17.29,17.29,0,0,0-7.84,13.58c0,5,3.55,7,7.9,4.49a17.28,17.28,0,0,0,7.83-13.57C279.89,407.28,276.36,405.26,272,407.77Z" transform="translate(-106.49 -283.56)"/><path class="cls-18" d="M273.14,418.58a3.38,3.38,0,0,0-1.53,2.66c0,1,.69,1.36,1.54.87a3.38,3.38,0,0,0,1.54-2.65C274.68,418.48,274,418.09,273.14,418.58Z" transform="translate(-106.49 -283.56)"/><path class="cls-18" d="M275.65,411a5.49,5.49,0,0,0-2.5,4.34c0,1.59,1.13,2.23,2.52,1.43a5.54,5.54,0,0,0,2.5-4.33C278.16,410.8,277,410.15,275.65,411Z" transform="translate(-106.49 -283.56)"/></g><path class="cls-1" d="M200.52,336.18a2.7,2.7,0,0,0-2.77-.25l-28.4,16.36,5.59,9.44,28.53-16.44a3,3,0,0,0,.94-2.39A8.74,8.74,0,0,0,200.52,336.18Z" transform="translate(-106.49 -283.56)"/><path class="cls-5" d="M172.19,352.51c-2.15-1.23-3.9-.23-3.9,2.25a8.57,8.57,0,0,0,3.9,6.71c2.13,1.24,3.87.24,3.87-2.24A8.6,8.6,0,0,0,172.19,352.51Z" transform="translate(-106.49 -283.56)"/><path class="cls-19" d="M188.8,387.62a.87.87,0,0,1-.86-.83v6.29a.86.86,0,1,0,1.72,0v-6.29A.86.86,0,0,1,188.8,387.62Z" transform="translate(-106.49 -283.56)"/><path class="cls-19" d="M188.8,406a.87.87,0,0,1-.86-.83v6.29a.86.86,0,0,0,1.72,0v-6.29A.86.86,0,0,1,188.8,406Z" transform="translate(-106.49 -283.56)"/><path class="cls-3" d="M111.59,334.76c-1.71-1-3.09-.2-3.09,1.76a6.79,6.79,0,0,0,3.09,5.33c1.71,1,3.09.2,3.09-1.76A6.8,6.8,0,0,0,111.59,334.76Z" transform="translate(-106.49 -283.56)"/><path class="cls-1" d="M112.21,335.6c-1.19-.69-2.16-.14-2.16,1.23a4.75,4.75,0,0,0,2.16,3.73c1.19.68,2.16.13,2.16-1.24A4.77,4.77,0,0,0,112.21,335.6Z" transform="translate(-106.49 -283.56)"/><path class="cls-3" d="M111.59,369.87c-1.71-1-3.09-.2-3.09,1.76a6.79,6.79,0,0,0,3.09,5.33c1.71,1,3.09.2,3.09-1.76A6.79,6.79,0,0,0,111.59,369.87Z" transform="translate(-106.49 -283.56)"/><path class="cls-1" d="M112.21,370.71c-1.19-.69-2.16-.14-2.16,1.23a4.75,4.75,0,0,0,2.16,3.73c1.19.68,2.16.13,2.16-1.24A4.77,4.77,0,0,0,112.21,370.71Z" transform="translate(-106.49 -283.56)"/></g></svg>