<svg xmlns="http://www.w3.org/2000/svg" xmlns:xlink="http://www.w3.org/1999/xlink" id="레이어_1" data-name="레이어 1" viewBox="0 0 83.38 102.12" width="200"  height="50" transform="scale(-1, 1) translate(200, 0)"><defs><style>.cls-1,.cls-10,.cls-100,.cls-101,.cls-102,.cls-103,.cls-105,.cls-106,.cls-107,.cls-109,.cls-11,.cls-110,.cls-111,.cls-113,.cls-114,.cls-115,.cls-117,.cls-118,.cls-119,.cls-12,.cls-120,.cls-122,.cls-124,.cls-125,.cls-126,.cls-127,.cls-128,.cls-129,.cls-13,.cls-130,.cls-131,.cls-14,.cls-15,.cls-16,.cls-17,.cls-18,.cls-19,.cls-2,.cls-20,.cls-21,.cls-22,.cls-23,.cls-24,.cls-25,.cls-26,.cls-27,.cls-28,.cls-29,.cls-3,.cls-30,.cls-31,.cls-32,.cls-33,.cls-34,.cls-35,.cls-36,.cls-37,.cls-38,.cls-39,.cls-4,.cls-40,.cls-41,.cls-42,.cls-43,.cls-44,.cls-45,.cls-46,.cls-47,.cls-48,.cls-49,.cls-5,.cls-50,.cls-51,.cls-52,.cls-53,.cls-54,.cls-55,.cls-56,.cls-57,.cls-58,.cls-59,.cls-6,.cls-60,.cls-61,.cls-62,.cls-63,.cls-64,.cls-65,.cls-66,.cls-67,.cls-68,.cls-69,.cls-7,.cls-70,.cls-71,.cls-72,.cls-73,.cls-74,.cls-75,.cls-76,.cls-77,.cls-78,.cls-79,.cls-8,.cls-80,.cls-81,.cls-82,.cls-83,.cls-84,.cls-85,.cls-86,.cls-87,.cls-88,.cls-89,.cls-9,.cls-90,.cls-91,.cls-93,.cls-94,.cls-95,.cls-96,.cls-97,.cls-98,.cls-99{fill-rule:evenodd;}.cls-1{fill:url(#GradientFill_5);}.cls-2{fill:#9f948f;}.cls-3{fill:#ceae83;}.cls-4{fill:url(#GradientFill_5-2);}.cls-5{fill:#e6dfd5;}.cls-6{fill:url(#GradientFill_5-3);}.cls-7{fill:url(#GradientFill_5-4);}.cls-8{fill:url(#GradientFill_5-5);}.cls-9{fill:#f4eee7;}.cls-10{fill:url(#GradientFill_5-6);}.cls-11{fill:#262424;}.cls-12{fill:url(#GradientFill_21);}.cls-13{fill:url(#GradientFill_21-2);}.cls-14{fill:url(#GradientFill_21-3);}.cls-15{fill:#393b30;}.cls-16{fill:url(#GradientFill_22);}.cls-17{fill:url(#GradientFill_21-4);}.cls-18{fill:url(#GradientFill_21-5);}.cls-19{fill:url(#GradientFill_21-6);}.cls-20{fill:#2a3129;}.cls-21{fill:url(#GradientFill_22-2);}.cls-22{fill:url(#GradientFill_21-7);}.cls-23{fill:url(#GradientFill_21-8);}.cls-24{fill:url(#GradientFill_21-9);}.cls-25{fill:url(#GradientFill_22-3);}.cls-26{fill:url(#GradientFill_21-10);}.cls-27{fill:url(#GradientFill_21-11);}.cls-28{fill:url(#GradientFill_21-12);}.cls-29{fill:#303226;}.cls-30{fill:url(#GradientFill_22-4);}.cls-31{fill:url(#GradientFill_21-13);}.cls-32{fill:url(#GradientFill_5-7);}.cls-33{fill:#665e54;}.cls-34{fill:#35342b;}.cls-35{fill:#6c685d;}.cls-36{fill:#2f2f27;}.cls-37{fill:url(#GradientFill_5-8);}.cls-38{fill:url(#GradientFill_5-9);}.cls-39{fill:#48483d;}.cls-40{fill:#9e968b;}.cls-41{fill:#2a3d42;}.cls-42{fill:url(#GradientFill_131);}.cls-43,.cls-92{fill:#464239;}.cls-44{fill:url(#GradientFill_5-10);}.cls-45{fill:url(#GradientFill_5-11);}.cls-46{fill:url(#GradientFill_5-12);}.cls-47{fill:url(#GradientFill_5-13);}.cls-48{fill:url(#GradientFill_132);}.cls-49{fill:#c1b1ab;}.cls-50{fill:#6d6358;}.cls-51{fill:url(#GradientFill_133);}.cls-52{fill:url(#GradientFill_133-2);}.cls-53{fill:url(#GradientFill_134);}.cls-54{fill:#5e585a;}.cls-55{fill:url(#GradientFill_5-14);}.cls-56{fill:url(#GradientFill_5-15);}.cls-57{fill:url(#GradientFill_5-16);}.cls-58{fill:#ae9f9a;}.cls-59{fill:url(#GradientFill_5-17);}.cls-60{fill:url(#GradientFill_135);}.cls-61{fill:url(#GradientFill_39);}.cls-62{fill:url(#GradientFill_40);}.cls-63{fill:url(#GradientFill_40-2);}.cls-64{fill:url(#GradientFill_41);}.cls-65{fill:#f5e929;}.cls-66{fill:url(#GradientFill_42);}.cls-67{fill:url(#GradientFill_42-2);}.cls-68{fill:url(#GradientFill_5-18);}.cls-69{fill:url(#GradientFill_5-19);}.cls-70{fill:url(#GradientFill_41-2);}.cls-71{fill:url(#GradientFill_5-20);}.cls-72{fill:#fff;}.cls-73{fill:url(#GradientFill_5-21);}.cls-74{fill:url(#GradientFill_133-3);}.cls-75{fill:url(#GradientFill_133-4);}.cls-76{fill:url(#GradientFill_134-2);}.cls-77{fill:url(#GradientFill_134-3);}.cls-78{fill:#80786e;}.cls-79{fill:url(#GradientFill_133-5);}.cls-80{fill:url(#GradientFill_134-4);}.cls-81{fill:url(#GradientFill_134-5);}.cls-82{fill:url(#GradientFill_136);}.cls-83{fill:url(#GradientFill_137);}.cls-84{fill:#776e62;}.cls-85{fill:url(#GradientFill_134-6);}.cls-86{fill:url(#GradientFill_133-6);}.cls-87{fill:url(#GradientFill_133-7);}.cls-88{fill:url(#GradientFill_133-8);}.cls-89{fill:url(#GradientFill_131-2);}.cls-90{fill:url(#GradientFill_131-3);}.cls-91{fill:url(#GradientFill_131-4);}.cls-93{fill:url(#GradientFill_131-5);}.cls-94{fill:url(#GradientFill_134-7);}.cls-95{fill:url(#GradientFill_133-9);}.cls-96{fill:url(#GradientFill_131-6);}.cls-97{fill:url(#GradientFill_138);}.cls-98{fill:url(#GradientFill_134-8);}.cls-99{fill:url(#GradientFill_131-7);}.cls-100{fill:url(#GradientFill_138-2);}.cls-101{fill:url(#GradientFill_138-3);}.cls-102{fill:url(#GradientFill_131-8);}.cls-103{fill:url(#GradientFill_139);}.cls-104{fill:url(#GradientFill_133-10);}.cls-105{fill:url(#GradientFill_138-4);}.cls-106{fill:url(#GradientFill_131-9);}.cls-107{fill:url(#GradientFill_139-2);}.cls-108{fill:url(#GradientFill_133-11);}.cls-109{fill:url(#GradientFill_138-5);}.cls-110{fill:url(#GradientFill_131-10);}.cls-111{fill:url(#GradientFill_139-3);}.cls-112{fill:url(#GradientFill_133-12);}.cls-113{fill:url(#GradientFill_138-6);}.cls-114{fill:url(#GradientFill_131-11);}.cls-115{fill:url(#GradientFill_139-4);}.cls-116{fill:url(#GradientFill_133-13);}.cls-117{fill:url(#GradientFill_134-9);}.cls-118{fill:url(#GradientFill_131-12);}.cls-119{fill:url(#GradientFill_137-2);}.cls-120{fill:url(#GradientFill_140);}.cls-121{fill:url(#GradientFill_133-14);}.cls-122{fill:url(#GradientFill_136-2);}.cls-123{fill:url(#GradientFill_133-15);}.cls-124{fill:url(#GradientFill_134-10);}.cls-125{fill:url(#GradientFill_137-3);}.cls-126{fill:url(#GradientFill_138-7);}.cls-127{fill:url(#GradientFill_136-3);}.cls-128{fill:url(#GradientFill_137-4);}.cls-129{fill:url(#GradientFill_5-22);}.cls-130{fill:url(#GradientFill_5-23);}.cls-131{fill:url(#GradientFill_5-24);}</style><linearGradient id="GradientFill_5" x1="51.55" y1="36.07" x2="40.94" y2="39.52" gradientUnits="userSpaceOnUse"><stop offset="0" stop-color="#c1b1ab"/><stop offset="1" stop-color="#ae9e98"/></linearGradient><linearGradient id="GradientFill_5-2" x1="32.2" y1="92.89" x2="-198.19" y2="-114.55" xlink:href="#GradientFill_5"/><linearGradient id="GradientFill_5-3" x1="73.25" y1="39.55" x2="86.59" y2="78.29" xlink:href="#GradientFill_5"/><linearGradient id="GradientFill_5-4" x1="60.56" y1="67.78" x2="57.45" y2="55.29" xlink:href="#GradientFill_5"/><linearGradient id="GradientFill_5-5" x1="43.76" y1="13.42" x2="62.04" y2="86.73" xlink:href="#GradientFill_5"/><linearGradient id="GradientFill_5-6" x1="21.3" y1="57.45" x2="34.63" y2="96.16" xlink:href="#GradientFill_5"/><linearGradient id="GradientFill_21" x1="73.86" y1="90.48" x2="-196.76" y2="162.99" gradientUnits="userSpaceOnUse"><stop offset="0" stop-color="#262424"/><stop offset="1" stop-color="#262424"/></linearGradient><linearGradient id="GradientFill_21-2" x1="273.64" y1="434.84" x2="-24.64" y2="514.76" xlink:href="#GradientFill_21"/><linearGradient id="GradientFill_21-3" x1="231.13" y1="47.48" x2="60.13" y2="93.3" xlink:href="#GradientFill_21"/><linearGradient id="GradientFill_22" x1="52.76" y1="97.6" x2="55.98" y2="92.02" gradientUnits="userSpaceOnUse"><stop offset="0" stop-color="#262424"/><stop offset="1" stop-color="#303226"/></linearGradient><linearGradient id="GradientFill_21-4" x1="66.13" y1="81.73" x2="-204.47" y2="154.24" xlink:href="#GradientFill_21"/><linearGradient id="GradientFill_21-5" x1="265.92" y1="426.09" x2="-32.35" y2="506.01" xlink:href="#GradientFill_21"/><linearGradient id="GradientFill_21-6" x1="223.4" y1="38.73" x2="52.41" y2="84.55" xlink:href="#GradientFill_21"/><linearGradient id="GradientFill_22-2" x1="45.04" y1="88.85" x2="48.26" y2="83.27" xlink:href="#GradientFill_22"/><linearGradient id="GradientFill_21-7" x1="90.66" y1="88.94" x2="-179.95" y2="161.45" xlink:href="#GradientFill_21"/><linearGradient id="GradientFill_21-8" x1="290.44" y1="433.3" x2="-7.82" y2="513.22" xlink:href="#GradientFill_21"/><linearGradient id="GradientFill_21-9" x1="247.93" y1="45.94" x2="76.93" y2="91.76" xlink:href="#GradientFill_21"/><linearGradient id="GradientFill_22-3" x1="69.56" y1="96.07" x2="72.79" y2="90.48" xlink:href="#GradientFill_22"/><linearGradient id="GradientFill_21-10" x1="93.32" y1="79.24" x2="-177.3" y2="151.75" xlink:href="#GradientFill_21"/><linearGradient id="GradientFill_21-11" x1="293.1" y1="423.6" x2="-5.18" y2="503.52" xlink:href="#GradientFill_21"/><linearGradient id="GradientFill_21-12" x1="250.59" y1="36.24" x2="79.59" y2="82.06" xlink:href="#GradientFill_21"/><linearGradient id="GradientFill_22-4" x1="72.22" y1="86.37" x2="75.45" y2="80.78" xlink:href="#GradientFill_22"/><linearGradient id="GradientFill_21-13" x1="1054.64" y1="218.39" x2="912.1" y2="256.59" xlink:href="#GradientFill_21"/><linearGradient id="GradientFill_5-7" x1="74.88" y1="62.88" x2="78.94" y2="65.04" xlink:href="#GradientFill_5"/><linearGradient id="GradientFill_5-8" x1="73.41" y1="65.55" x2="77.54" y2="67.75" xlink:href="#GradientFill_5"/><linearGradient id="GradientFill_5-9" x1="80.05" y1="65.73" x2="75.4" y2="67.33" xlink:href="#GradientFill_5"/><linearGradient id="GradientFill_131" x1="63.28" y1="85.41" x2="66.83" y2="97.01" gradientUnits="userSpaceOnUse"><stop offset="0" stop-color="#2d2d24"/><stop offset="1" stop-color="#323229"/></linearGradient><linearGradient id="GradientFill_5-10" x1="53.12" y1="77.68" x2="52.09" y2="69.32" xlink:href="#GradientFill_5"/><linearGradient id="GradientFill_5-11" x1="48.43" y1="71.39" x2="52.49" y2="73.54" xlink:href="#GradientFill_5"/><linearGradient id="GradientFill_5-12" x1="53.06" y1="77.3" x2="57.19" y2="79.49" xlink:href="#GradientFill_5"/><linearGradient id="GradientFill_5-13" x1="54.86" y1="77.58" x2="54.74" y2="70.47" xlink:href="#GradientFill_5"/><linearGradient id="GradientFill_132" x1="48.07" y1="75.28" x2="56" y2="53.48" gradientUnits="userSpaceOnUse"><stop offset="0" stop-color="#35342b"/><stop offset="1" stop-color="#464239"/></linearGradient><linearGradient id="GradientFill_133" x1="34.48" y1="35.1" x2="36.91" y2="38.56" gradientUnits="userSpaceOnUse"><stop offset="0" stop-color="#464239"/><stop offset="1" stop-color="#2f2f27"/></linearGradient><linearGradient id="GradientFill_133-2" x1="31.35" y1="45.27" x2="33.06" y2="41.6" xlink:href="#GradientFill_133"/><linearGradient id="GradientFill_134" x1="33.2" y1="36.07" x2="37.9" y2="44.56" gradientUnits="userSpaceOnUse"><stop offset="0" stop-color="#2f2f27"/><stop offset="1" stop-color="#3c3b32"/></linearGradient><linearGradient id="GradientFill_5-14" x1="34.71" y1="10.95" x2="63.03" y2="62.04" xlink:href="#GradientFill_5"/><linearGradient id="GradientFill_5-15" x1="19.72" y1="41.91" x2="93.02" y2="41.91" xlink:href="#GradientFill_5"/><linearGradient id="GradientFill_5-16" x1="211.97" y1="390.52" x2="295.36" y2="390.52" xlink:href="#GradientFill_5"/><linearGradient id="GradientFill_5-17" x1="48.47" y1="44.49" x2="50.06" y2="47.25" xlink:href="#GradientFill_5"/><linearGradient id="GradientFill_135" x1="229.77" y1="392.34" x2="137.42" y2="417.08" gradientUnits="userSpaceOnUse"><stop offset="0" stop-color="#cbbdb8"/><stop offset="1" stop-color="#bbaca8"/></linearGradient><linearGradient id="GradientFill_39" x1="64.37" y1="39.12" x2="65.81" y2="35.71" gradientUnits="userSpaceOnUse"><stop offset="0" stop-color="#c1b1ab"/><stop offset="1" stop-color="#d6ccc2"/></linearGradient><linearGradient id="GradientFill_40" x1="65.9" y1="36.39" x2="69.44" y2="39.92" gradientUnits="userSpaceOnUse"><stop offset="0" stop-color="#f4eee7"/><stop offset="1" stop-color="#cfc5bc"/></linearGradient><linearGradient id="GradientFill_40-2" x1="65.67" y1="34.67" x2="70.14" y2="39.14" xlink:href="#GradientFill_40"/><linearGradient id="GradientFill_41" x1="262.47" y1="386.04" x2="262.47" y2="379.63" gradientUnits="userSpaceOnUse"><stop offset="0" stop-color="#ae9f9a"/><stop offset="1" stop-color="#e6dfd5"/></linearGradient><linearGradient id="GradientFill_42" x1="65.13" y1="35.01" x2="60.47" y2="36.35" gradientUnits="userSpaceOnUse"><stop offset="0" stop-color="#d6ccc2"/><stop offset="1" stop-color="#cabdb6"/></linearGradient><linearGradient id="GradientFill_42-2" x1="67.08" y1="34.26" x2="62.52" y2="35.57" xlink:href="#GradientFill_42"/><linearGradient id="GradientFill_5-18" x1="64.36" y1="36.35" x2="63" y2="38.23" xlink:href="#GradientFill_5"/><linearGradient id="GradientFill_5-19" x1="66.85" y1="36.8" x2="68.78" y2="38.25" xlink:href="#GradientFill_5"/><linearGradient id="GradientFill_41-2" x1="65.77" y1="44.78" x2="65.77" y2="34.49" xlink:href="#GradientFill_41"/><linearGradient id="GradientFill_5-20" x1="66.78" y1="37.06" x2="67.43" y2="39.47" xlink:href="#GradientFill_5"/><linearGradient id="GradientFill_5-21" x1="249.51" y1="391.41" x2="221.94" y2="400.37" xlink:href="#GradientFill_5"/><linearGradient id="GradientFill_133-3" x1="18.46" y1="52.63" x2="30.59" y2="54.12" xlink:href="#GradientFill_133"/><linearGradient id="GradientFill_133-4" x1="29.73" y1="53.77" x2="26.08" y2="53.77" xlink:href="#GradientFill_133"/><linearGradient id="GradientFill_134-2" x1="224.01" y1="393.83" x2="225.23" y2="395.45" xlink:href="#GradientFill_134"/><linearGradient id="GradientFill_134-3" x1="24.58" y1="50.74" x2="25.27" y2="52.28" xlink:href="#GradientFill_134"/><linearGradient id="GradientFill_133-5" x1="21.21" y1="48.2" x2="20.07" y2="47.37" xlink:href="#GradientFill_133"/><linearGradient id="GradientFill_134-4" x1="29.81" y1="50.65" x2="28.41" y2="49.57" xlink:href="#GradientFill_134"/><linearGradient id="GradientFill_134-5" x1="27.46" y1="48.19" x2="25.63" y2="44.9" xlink:href="#GradientFill_134"/><linearGradient id="GradientFill_136" x1="26.08" y1="46.83" x2="25.74" y2="47.39" gradientUnits="userSpaceOnUse"><stop offset="0" stop-color="#e6dfd5"/><stop offset="1" stop-color="#6d6358"/></linearGradient><linearGradient id="GradientFill_137" x1="27.29" y1="47.29" x2="27.09" y2="46.92" gradientUnits="userSpaceOnUse"><stop offset="0" stop-color="#3d3a32"/><stop offset="1" stop-color="#ae9e98"/></linearGradient><linearGradient id="GradientFill_134-6" x1="28.47" y1="51.17" x2="25.21" y2="45.28" xlink:href="#GradientFill_134"/><linearGradient id="GradientFill_133-6" x1="15.4" y1="51.24" x2="21.81" y2="51.24" xlink:href="#GradientFill_133"/><linearGradient id="GradientFill_133-7" x1="13.01" y1="51.88" x2="19.44" y2="51.88" xlink:href="#GradientFill_133"/><linearGradient id="GradientFill_133-8" x1="14.96" y1="51.46" x2="23.42" y2="51.46" xlink:href="#GradientFill_133"/><linearGradient id="GradientFill_131-2" x1="17.45" y1="51.13" x2="10.79" y2="50.43" xlink:href="#GradientFill_131"/><linearGradient id="GradientFill_131-3" x1="222.16" y1="398.52" x2="226.93" y2="401.06" xlink:href="#GradientFill_131"/><linearGradient id="GradientFill_131-4" x1="22.94" y1="50.82" x2="22.58" y2="52.26" xlink:href="#GradientFill_131"/><linearGradient id="GradientFill_131-5" x1="221.73" y1="396.75" x2="221.15" y2="398.16" xlink:href="#GradientFill_131"/><linearGradient id="GradientFill_134-7" x1="222.7" y1="397.33" x2="220.8" y2="400.62" xlink:href="#GradientFill_134"/><linearGradient id="GradientFill_133-9" x1="21.86" y1="52.27" x2="24.78" y2="58" xlink:href="#GradientFill_133"/><linearGradient id="GradientFill_131-6" x1="25.05" y1="51.06" x2="24.55" y2="49.9" xlink:href="#GradientFill_131"/><linearGradient id="GradientFill_138" x1="21.62" y1="53.36" x2="24.16" y2="46.38" gradientUnits="userSpaceOnUse"><stop offset="0" stop-color="#464239"/><stop offset="1" stop-color="#5d564c"/></linearGradient><linearGradient id="GradientFill_134-8" x1="26.3" y1="50.33" x2="24.89" y2="50.48" xlink:href="#GradientFill_134"/><linearGradient id="GradientFill_131-7" x1="26.12" y1="62.3" x2="23.36" y2="56.11" xlink:href="#GradientFill_131"/><linearGradient id="GradientFill_138-2" x1="24.89" y1="57.4" x2="20.17" y2="48.87" xlink:href="#GradientFill_138"/><linearGradient id="GradientFill_138-3" x1="23.45" y1="57.03" x2="21.65" y2="53.91" xlink:href="#GradientFill_138"/><linearGradient id="GradientFill_131-8" x1="23.81" y1="58.35" x2="22.49" y2="55.39" xlink:href="#GradientFill_131"/><linearGradient id="GradientFill_139" x1="23.37" y1="56.45" x2="27.69" y2="55.76" gradientUnits="userSpaceOnUse"><stop offset="0" stop-color="#302f28"/><stop offset="1" stop-color="#36332c"/></linearGradient><linearGradient id="GradientFill_133-10" x1="219.71" y1="398.99" x2="220.98" y2="401.49" gradientTransform="translate(228.63 -56.45) rotate(29.94)" xlink:href="#GradientFill_133"/><linearGradient id="GradientFill_138-4" x1="23.95" y1="56.74" x2="22.15" y2="53.62" xlink:href="#GradientFill_138"/><linearGradient id="GradientFill_131-9" x1="24.31" y1="58.06" x2="22.99" y2="55.1" xlink:href="#GradientFill_131"/><linearGradient id="GradientFill_139-2" x1="23.87" y1="56.16" x2="28.19" y2="55.47" xlink:href="#GradientFill_139"/><linearGradient id="GradientFill_133-11" x1="220.21" y1="398.7" x2="221.48" y2="401.2" gradientTransform="translate(228.57 -56.74) rotate(29.94)" xlink:href="#GradientFill_133"/><linearGradient id="GradientFill_138-5" x1="24.45" y1="56.45" x2="22.65" y2="53.33" xlink:href="#GradientFill_138"/><linearGradient id="GradientFill_131-10" x1="24.81" y1="57.77" x2="23.49" y2="54.81" xlink:href="#GradientFill_131"/><linearGradient id="GradientFill_139-3" x1="24.37" y1="55.87" x2="28.69" y2="55.18" xlink:href="#GradientFill_139"/><linearGradient id="GradientFill_133-12" x1="220.71" y1="398.41" x2="221.98" y2="400.91" gradientTransform="translate(228.47 -57.03) rotate(29.94)" xlink:href="#GradientFill_133"/><linearGradient id="GradientFill_138-6" x1="24.95" y1="56.16" x2="23.15" y2="53.05" xlink:href="#GradientFill_138"/><linearGradient id="GradientFill_131-11" x1="25.31" y1="57.48" x2="23.99" y2="54.52" xlink:href="#GradientFill_131"/><linearGradient id="GradientFill_139-4" x1="24.87" y1="55.58" x2="29.19" y2="54.89" xlink:href="#GradientFill_139"/><linearGradient id="GradientFill_133-13" x1="221.21" y1="398.12" x2="222.48" y2="400.62" gradientTransform="translate(228.48 -57.31) rotate(29.95)" xlink:href="#GradientFill_133"/><linearGradient id="GradientFill_134-9" x1="25.95" y1="51.97" x2="23.4" y2="47.37" xlink:href="#GradientFill_134"/><linearGradient id="GradientFill_131-12" x1="19.14" y1="54.73" x2="26.73" y2="60.05" xlink:href="#GradientFill_131"/><linearGradient id="GradientFill_137-2" x1="21.23" y1="57.45" x2="18.5" y2="52.71" xlink:href="#GradientFill_137"/><linearGradient id="GradientFill_140" x1="20.01" y1="47.56" x2="20.01" y2="48.07" gradientUnits="userSpaceOnUse"><stop offset="0" stop-color="#c1b1ab"/><stop offset="1" stop-color="#6d6358"/></linearGradient><linearGradient id="GradientFill_133-14" x1="18.69" y1="53.18" x2="27.35" y2="53.94" xlink:href="#GradientFill_133"/><linearGradient id="GradientFill_136-2" x1="19.54" y1="47.47" x2="19.11" y2="48.22" xlink:href="#GradientFill_136"/><linearGradient id="GradientFill_133-15" x1="26.41" y1="47.29" x2="30.21" y2="52.52" xlink:href="#GradientFill_133"/><linearGradient id="GradientFill_134-10" x1="29.27" y1="50.4" x2="28.49" y2="49.05" xlink:href="#GradientFill_134"/><linearGradient id="GradientFill_137-3" x1="20.77" y1="47.96" x2="20.38" y2="47.28" xlink:href="#GradientFill_137"/><linearGradient id="GradientFill_138-7" x1="17.27" y1="55.04" x2="19.93" y2="56.58" xlink:href="#GradientFill_138"/><linearGradient id="GradientFill_136-3" x1="28.59" y1="52.12" x2="33.44" y2="53.06" xlink:href="#GradientFill_136"/><linearGradient id="GradientFill_137-4" x1="24.71" y1="52.96" x2="27.34" y2="51.5" xlink:href="#GradientFill_137"/><linearGradient id="GradientFill_5-22" x1="31.86" y1="16.73" x2="39.9" y2="31.25" xlink:href="#GradientFill_5"/><linearGradient id="GradientFill_5-23" x1="20.11" y1="21.79" x2="28.09" y2="36.19" xlink:href="#GradientFill_5"/><linearGradient id="GradientFill_5-24" x1="48.02" y1="20.54" x2="55.96" y2="34.87" xlink:href="#GradientFill_5"/></defs><polygon class="cls-1" points="37.7 38.72 41.81 41.09 45.92 38.72 37.7 38.72"/><polygon class="cls-2" points="77.63 36.97 78.47 49.8 77.63 74.13 73.24 71.59 73.24 34.44 77.63 36.97"/><polygon class="cls-3" points="4.39 50.66 4.39 87.82 0 85.29 0 48.13 4.39 50.66"/><polygon class="cls-4" points="4.39 87.82 6.28 86.73 6.28 49.58 4.39 50.66 4.39 87.82"/><path class="cls-5" d="M227.13,410.4v37.16L222.74,445V412.94l-20.37-11.76v32.08L198,430.73V393.57h0Z" transform="translate(-197.98 -345.44)"/><polygon class="cls-3" points="52.87 22.68 52.87 59.83 48.48 57.3 48.48 20.14 52.87 22.68"/><polygon class="cls-6" points="77.63 74.13 79.52 73.04 79.52 35.88 77.63 36.97 77.63 74.13"/><polygon class="cls-7" points="52.87 59.83 54.76 58.74 54.76 21.59 52.87 22.68 52.87 59.83"/><polygon class="cls-5" points="52.87 22.77 52.87 59.83 48.48 57.3 48.48 20.24 52.87 22.77"/><polygon class="cls-8" points="77.63 36.97 77.63 39.15 29.15 67.14 29.15 64.96 77.63 36.97"/><polygon class="cls-9" points="50.37 19.05 0 48.13 29.15 64.96 79.52 35.88 50.37 19.05"/><polygon class="cls-10" points="29.15 102.12 31.04 101.03 31.04 63.87 29.15 64.96 29.15 102.12"/><polygon class="cls-11" points="48.9 85.24 48.44 85.5 47.99 85.77 47.72 86.95 47.99 87.7 48.44 87.43 48.9 87.17 48.9 85.24"/><path class="cls-11" d="M244.15,430.16l.46.26.45.26.45.26.46.27v1.93l-.46.18-.45-.27-.46-.26-.45-.7Z" transform="translate(-197.98 -345.44)"/><polygon class="cls-11" points="49.35 84.98 45.72 84.98 47.53 87.21 49.35 86.17 49.35 84.98"/><polygon class="cls-11" points="49.35 84.98 47.53 86.03 45.72 84.98 47.53 83.93 49.35 84.98"/><polygon class="cls-11" points="45.72 84.98 47.53 86.03 47.53 87.21 45.72 86.17 45.72 84.98"/><polygon class="cls-11" points="49.35 84.98 45.72 84.98 47.53 87.21 49.35 86.17 49.35 84.98"/><polygon class="cls-11" points="49.35 84.98 47.53 86.03 45.72 84.98 47.53 83.93 49.35 84.98"/><polygon class="cls-11" points="45.72 84.98 47.53 86.03 47.53 87.21 45.72 86.17 45.72 84.98"/><polygon class="cls-12" points="56.62 93.99 56.16 94.25 55.71 94.52 55.44 95.7 55.71 96.45 56.16 96.18 56.62 95.92 56.62 93.99"/><path class="cls-13" d="M251.87,438.91l.46.26.45.26.45.26.46.27v1.93l-.46.18-.45-.27-.45-.26-.46-.7Z" transform="translate(-197.98 -345.44)"/><polygon class="cls-14" points="57.07 93.73 53.44 93.73 55.26 95.96 57.07 94.92 57.07 93.73"/><polygon class="cls-15" points="57.07 93.73 55.26 94.78 53.44 93.73 55.26 92.68 57.07 93.73"/><polygon class="cls-16" points="53.44 93.73 55.26 94.78 55.26 95.96 53.44 94.92 53.44 93.73"/><polygon class="cls-17" points="48.9 85.24 48.44 85.5 47.99 85.76 47.72 86.95 47.99 87.69 48.44 87.43 48.9 87.17 48.9 85.24"/><path class="cls-18" d="M244.15,430.16l.46.26.45.26.45.26.46.26v1.94l-.46.17-.45-.26-.46-.26-.45-.7Z" transform="translate(-197.98 -345.44)"/><polygon class="cls-19" points="49.35 84.98 45.72 84.98 47.53 87.21 49.35 86.16 49.35 84.98"/><polygon class="cls-20" points="49.35 84.98 47.53 86.03 45.72 84.98 47.53 83.93 49.35 84.98"/><polygon class="cls-21" points="45.72 84.98 47.53 86.03 47.53 87.21 45.72 86.16 45.72 84.98"/><polygon class="cls-22" points="73.42 92.45 72.97 92.72 72.51 92.98 72.24 94.17 72.51 94.91 72.97 94.65 73.42 94.39 73.42 92.45"/><path class="cls-23" d="M268.67,437.37l.46.26.45.27.46.26.45.26v1.93l-.46.18-.45-.26-.45-.26-.46-.71Z" transform="translate(-197.98 -345.44)"/><polygon class="cls-24" points="73.87 92.19 70.25 92.19 72.06 94.42 73.87 93.38 73.87 92.19"/><polygon class="cls-20" points="73.87 92.19 72.06 93.24 70.25 92.19 72.06 91.14 73.87 92.19"/><polygon class="cls-25" points="70.25 92.19 72.06 93.24 72.06 94.42 70.25 93.38 70.25 92.19"/><polygon class="cls-26" points="76.08 82.76 75.63 83.02 75.17 83.28 74.9 84.47 75.17 85.21 75.63 84.95 76.08 84.69 76.08 82.76"/><path class="cls-27" d="M271.34,427.67l.45.26.45.27.46.26.45.26v1.93l-.45.18-.46-.26-.45-.26-.45-.71Z" transform="translate(-197.98 -345.44)"/><polygon class="cls-28" points="76.53 82.49 72.91 82.49 74.72 84.73 76.53 83.68 76.53 82.49"/><polygon class="cls-29" points="76.53 82.49 74.72 83.54 72.91 82.49 74.72 81.45 76.53 82.49"/><polygon class="cls-30" points="72.91 82.49 74.72 83.54 74.72 84.73 72.91 83.68 72.91 82.49"/><path class="cls-31" d="M270.41,437.16l-5.2-7.23-3-1.74,4.18-1.23,6.55,1.24v-.26l-.24-.27-.23-.27-6.56-2.29-5.69,1.67-1.78-3.86h-.37l-.52.05L257,423h0v0h0v0h0v0h0v0h0l.36-.26h0l1.31,3.83-5.84-.53-7.27,3.56-.08.3-.08.3v.26l7.27-2.5,5.23.47-1.83,2.07-3.34,8V439l.94.28,3.34-6.95,2.91-3.29,4.51,2.61,5.2,6.17.37-.22.38-.21v-.26Zm-12-14.26-.88.06.52,0,.34-.09h0l0,.07Z" transform="translate(-197.98 -345.44)"/><polygon class="cls-20" points="72.43 91.72 67.23 84.49 62.71 81.88 68.41 80.21 74.96 82.5 74.72 82.23 74.48 81.96 67.93 79.67 62.24 81.34 60.08 77.73 59.56 77.78 59.04 77.82 61.19 81.44 54.88 80.86 47.62 84.42 47.53 84.72 47.45 85.02 54.72 81.46 61.03 82.04 58.13 85.32 54.79 93.33 55.26 93.47 55.73 93.61 59.07 85.6 61.97 82.31 66.48 84.92 71.69 92.15 72.06 91.93 72.43 91.72"/><polygon class="cls-20" points="72.43 91.72 67.23 84.49 62.71 81.88 68.41 80.21 74.96 82.5 74.72 82.23 74.48 81.96 67.93 79.67 62.24 81.34 60.08 77.73 59.56 77.78 59.04 77.82 61.19 81.44 55.11 80.86 55.33 81.46 61.03 82.04 58.47 84.93 59.41 85.21 61.97 82.31 66.48 84.92 71.69 92.15 72.06 91.93 72.43 91.72"/><polygon class="cls-5" points="81.32 71.51 81.32 69.14 73.23 64.47 71.33 59.66 81.32 65.44 81.32 63.06 70.11 56.59 70.11 58.96 73.23 66.84 81.32 71.51"/><polygon class="cls-32" points="73.23 64.47 71.33 59.66 72.35 59.07 74.25 63.87 73.23 64.47"/><polygon class="cls-33" points="83.38 61.88 81.32 63.06 67.78 55.25 69.84 54.06 83.38 61.88"/><polygon class="cls-34" points="83.38 61.88 81.32 63.06 79.26 61.87 79.26 61.87 83.37 61.87 83.38 61.88"/><polygon class="cls-35" points="81.32 65.44 81.32 63.06 67.78 55.25 67.78 57.62 81.32 65.44"/><polygon class="cls-36" points="81.32 65.44 80.55 63.18 83.38 61.88 83.38 64.25 81.32 65.44"/><polygon class="cls-37" points="81.32 71.51 81.32 69.14 82.35 68.55 82.35 70.92 81.32 71.51"/><polygon class="cls-38" points="81.32 69.14 82.35 68.55 74.25 63.87 73.23 64.47 81.32 69.14"/><polygon class="cls-35" points="57.32 77.78 60.45 78.96 59.99 81.7 57.32 80.16 57.32 77.78"/><polygon class="cls-39" points="61.81 78.28 59.99 79.33 59.99 81.7 61.81 80.66 61.81 78.28"/><polygon class="cls-40" points="61.81 78.28 59.99 79.33 57.32 77.78 59.13 76.74 61.81 78.28"/><polygon class="cls-36" points="44.17 69.11 44.17 66.73 46.62 70.36 46.94 72.51 45.76 73.29 44.17 69.11"/><polygon class="cls-36" points="62 82.67 62 80.29 51.41 73.04 45.76 70.92 45.76 73.29 62 82.67"/><polygon class="cls-34" points="65.08 59.76 79.27 67.95 59.95 79.11 45.76 70.92 44.17 66.73 57.83 58.84 65.08 59.76"/><polygon class="cls-41" points="59.94 73.03 65.08 70.58 70.05 67.71 75.02 64.84 79.26 61.87 81.32 63.06 77.17 65.96 77.09 66.01 77.08 66.02 72.1 68.89 67.13 71.77 67.11 71.77 67.02 71.82 62 74.22 59.94 73.03"/><polygon class="cls-33" points="62 57.31 67.14 54.86 72.1 51.99 77.07 49.13 81.32 46.16 83.38 47.35 79.23 50.25 79.15 50.3 79.14 50.31 74.16 53.18 69.18 56.06 69.17 56.06 69.08 56.11 64.06 58.5 62 57.31"/><polygon class="cls-36" points="67.11 80.22 69.6 74.71 68.47 68.61 62 74.22 62 82.67 67.11 80.22"/><polygon class="cls-42" points="59.94 81.48 59.94 73.03 62 74.22 62 82.67 59.94 81.48"/><polygon class="cls-36" points="69.17 56.06 70.85 63.09 67.11 71.77 62 74.22 64.06 58.51 69.17 56.06"/><polygon class="cls-36" points="67.11 80.22 67.11 76 67.13 71.77 76.82 62.36 81.32 63.06 81.32 67.29 81.32 71.51 77.17 74.41 67.11 80.22"/><polygon class="cls-36" points="69.17 56.06 67.11 71.77 77.17 65.96 81.32 63.06 83.38 47.35 79.23 50.25 69.17 56.06"/><polygon class="cls-43" points="59.94 73.03 62 57.32 64.06 58.51 62 74.22 59.94 73.03"/><polygon class="cls-5" points="60.97 83.26 60.97 80.89 52.88 76.21 50.98 71.41 60.97 77.18 60.97 74.81 49.76 68.33 49.76 70.71 52.88 78.59 60.97 83.26"/><polygon class="cls-44" points="54.76 77.3 52.88 76.21 50.98 71.41 52.48 72.28 51.75 70.39 51.21 69.18 49.76 68.33 49.76 70.71 52.88 78.59 55.95 80.36 54.76 77.3"/><polygon class="cls-45" points="52.88 76.21 50.98 71.41 52 70.82 53.91 75.62 52.88 76.21"/><polygon class="cls-33" points="62 74.22 59.95 75.4 46.41 67.59 54.41 69.83 62 74.22"/><polygon class="cls-43" points="59.95 77.78 59.95 75.4 46.41 67.59 46.41 69.96 59.95 77.78"/><polygon class="cls-36" points="59.95 77.78 59.95 75.4 62 74.22 62 76.59 59.95 77.78"/><polygon class="cls-46" points="60.97 83.26 60.97 80.89 62 80.29 62 82.67 60.97 83.26"/><polygon class="cls-9" points="60.97 80.89 62 80.29 53.91 75.62 52.88 76.22 60.97 80.89"/><polygon class="cls-47" points="56.82 77.3 53.91 75.62 52.88 76.22 54.76 77.3 56.82 77.3"/><polygon class="cls-48" points="46.41 67.59 48.46 66.4 53.1 69.08 54.49 69.88 51.72 69.88 51.05 70.27 46.41 67.59"/><polygon class="cls-36" points="51.05 70.27 46.41 67.59 46.41 69.96 52.24 73.33 51.05 70.27"/><polygon class="cls-49" points="52.4 29.44 41.88 35.51 33.26 34.22 26.27 38.25 27.18 38.78 34.35 39.86 22.27 46.83 24.33 48.02 49.49 48.02 75.01 33.28 68.36 29.44 52.4 29.44"/><polygon class="cls-50" points="41.9 38.15 33.26 33.16 26.26 37.2 34.91 42.19 41.9 38.15"/><polygon class="cls-51" points="41.9 38.15 41.9 39.2 34.91 43.24 34.91 42.19 41.9 38.15"/><polygon class="cls-43" points="34.91 43.24 26.27 38.25 26.26 37.2 34.91 42.19 34.91 43.24"/><polygon class="cls-52" points="34.91 43.24 31.7 41.39 31.17 40.03 34.91 42.19 34.91 43.24"/><polygon class="cls-43" points="20.05 43.74 18 42.55 18 17.39 20.1 17.47 20.05 18.58 21.11 30.55 20.05 43.74"/><polygon class="cls-53" points="33.29 38.8 31.17 40.03 34.91 42.19 41.9 38.15 39.99 37.04 38.16 35.99 33.63 33.37 33.04 33.28 26.26 37.2 27.55 37.94 33.29 38.8"/><polygon class="cls-34" points="50.17 26.35 20.05 43.74 20.05 18.58 23.18 16.77 29.66 12.09 33.08 9.14 50.17 1.19 50.17 26.35"/><polygon class="cls-54" points="49.12 25.74 49.12 3.02 21.11 19.19 21.11 41.91 49.12 25.74"/><polygon class="cls-55" points="49.12 4.16 49.12 3.02 21.11 19.19 21.11 20.33 49.12 4.16"/><polygon class="cls-49" points="62.22 41.72 55.62 37.91 33.73 50.55 39.27 54.36 40.32 54.36 62.22 41.72"/><polygon class="cls-5" points="39.27 54.36 32.67 50.55 32.67 49.5 36.63 51.52 39.27 53.31 39.27 54.36"/><polygon class="cls-9" points="61.16 40.67 54.57 36.86 32.67 49.5 39.27 53.31 61.16 40.67"/><polygon class="cls-56" points="60.25 40.14 54.57 36.86 37.07 46.96 48.43 46.96 60.25 40.14"/><path class="cls-57" d="M254.4,388.54l-5.53-3.2-.27.15-.26-.15-16.63,9.6,5.54,3.2h.52l16.63-9.6Zm-1.59-5.48.26-.15,5.54,3.2-3.43,2h-.53l-5.54-3.2,3.43-2Z" transform="translate(-197.98 -345.44)"/><polygon class="cls-5" points="39.27 52.7 33.73 49.5 33.73 48.97 39.27 52.17 39.27 52.7"/><polygon class="cls-58" points="56.68 42.65 51.14 39.45 51.14 38.92 56.68 42.12 56.68 42.65"/><polygon class="cls-59" points="39.27 54.36 61.16 41.72 61.16 40.67 39.27 53.31 39.27 54.36"/><polygon class="cls-58" points="39.27 52.7 55.9 43.09 55.9 42.57 39.27 52.17 39.27 52.7"/><polygon class="cls-58" points="56.68 42.65 60.11 40.67 60.1 40.14 56.68 42.12 56.68 42.65"/><path class="cls-9" d="M253.88,388l-5.54-3.2-16.63,9.6,5.54,3.2,16.63-9.6Zm4.2-2.43-3.43,2-5.54-3.2,3.43-2Z" transform="translate(-197.98 -345.44)"/><path class="cls-60" d="M253.23,387.63l-3.33-1.92-1.56-.9-1.56.9-9.38,5.41-1.3.75h9.78l7.35-4.24Zm3.33-1.92L254,387.18l-2.55-1.47-2.34-1.35,3.43-2,4.89,2.83Z" transform="translate(-197.98 -345.44)"/><polygon class="cls-49" points="65.11 39.32 61.76 37.39 63.05 36.08 65.31 35.34 66.24 35.34 69.58 37.27 69.87 38.04 68.95 38.95 67.36 39.48 66.44 39.48 65.11 39.32"/><polygon class="cls-61" points="65.11 38.39 61.76 36.46 63.05 35.15 65.31 34.41 68.66 36.34 68.95 37.11 68.03 38.03 66.44 38.56 65.11 38.39"/><path class="cls-9" d="M263.08,383.83l-.39-1.26-.83-.49-.84-.48-1.28.3.32-.32,1-1,2.27-.74.39.21.84.49.83.48,1.29.75.07.2.07.19.07.19.08.19-.23.23-.23.23-.23.23-.23.23-.4.13-.4.14-.4.13-.39.13-.34,0-.33,0-.33,0Z" transform="translate(-197.98 -345.44)"/><polygon class="cls-62" points="65.11 38.39 64.72 37.13 67.38 35.59 68.66 36.34 68.73 36.53 68.81 36.73 68.88 36.92 68.95 37.11 68.72 37.34 68.49 37.57 68.26 37.8 68.03 38.03 67.63 38.16 67.23 38.3 66.84 38.43 66.44 38.56 66.11 38.52 65.77 38.48 65.44 38.44 65.11 38.39"/><polygon class="cls-63" points="66.05 36.36 67.38 35.59 68.02 35.97 68.66 36.34 68.69 36.44 68.73 36.53 68.77 36.63 68.81 36.73 68.84 36.82 68.88 36.92 68.91 37.02 68.95 37.11 68.83 37.23 68.72 37.34 68.61 37.46 68.49 37.57 68.38 37.69 68.26 37.8 68.15 37.92 68.03 38.03 66.05 36.36"/><path class="cls-64" d="M262.53,382.47l-.67-.39-.84-.48-1.28.3.32-.32,1-1,2.27-.74.39.21.84.49.67.39Z" transform="translate(-197.98 -345.44)"/><path class="cls-65" d="M262.69,382.57l2.66-1.54Z" transform="translate(-197.98 -345.44)"/><polygon class="cls-66" points="63.04 36.16 61.76 36.46 62.08 36.13 62.41 35.81 62.73 35.48 63.05 35.15 63.61 34.97 64.18 34.78 64.75 34.6 65.31 34.41 65.71 34.62 63.04 36.16"/><polygon class="cls-67" points="63.05 35.15 63.33 35.06 63.61 34.97 63.9 34.88 64.18 34.78 64.46 34.69 64.75 34.6 65.03 34.51 65.31 34.41 65.51 34.52 65.71 34.62 64.37 35.39 63.05 35.15"/><polygon class="cls-5" points="65.11 38.39 61.76 36.46 61.76 37.38 65.11 39.32 65.11 38.39"/><polygon class="cls-68" points="64.37 37.97 61.76 36.46 61.76 37.38 64.83 39.16 64.37 37.97"/><polygon class="cls-69" points="68.03 38.03 68.95 37.11 68.95 38.04 68.03 38.95 68.03 38.03"/><polygon class="cls-70" points="65.11 38.39 66.44 38.56 66.44 39.48 65.11 39.32 65.11 38.39"/><polygon class="cls-71" points="68.03 38.03 66.44 38.56 66.44 39.48 68.03 38.95 68.03 38.03"/><polygon class="cls-72" points="64.55 37.03 64.37 37.97 65.11 38.39 64.72 37.13 64.55 37.03"/><path class="cls-73" d="M229.7,397.86l1,.57.62-.35,1.07.61,1.07.62-.62.36,1.59.91-2.59,1.5h-5.15a.74.74,0,0,0,0,.14l-.06.23-3.12,1.8h0l-.49.09-.49.09-.79-.09-.79-.09L220,404l-.87-.24-.73-.32-.73-.32-.38-.32-.38-.32.06-.23.06-.24h0l3.12-1.8.49-.08.49-.09.4.05.16-.1h0l-.78-.45h-3.15l-1.44-.83v-.42l1.21-.7,1.65-.95,1.31-.76h5.75Z" transform="translate(-197.98 -345.44)"/><polygon class="cls-74" points="28.1 56.64 28.46 53.41 28.1 50.89 27.37 50.89 27.13 53.53 27.37 56.64 28.1 56.64"/><polygon class="cls-43" points="21.79 53.42 27.37 56.64 27.37 50.89 26.72 49.8 21.79 47.67 21.79 53.42"/><polygon class="cls-75" points="27.03 56.44 26.58 56.18 23.78 54.57 23.68 54.07 23.57 53.51 23.68 53.08 23.8 52.65 24.11 52.47 24.42 52.29 24.85 52.41 25.28 52.52 25.71 52.9 26.14 53.28 26.46 53.83 26.58 54.04 26.58 50.9 27.03 52.06 27.03 54.87 27.21 55.02 27.37 55.31 27.37 56.64 27.03 56.44"/><polygon class="cls-36" points="23.01 54.12 23.01 50.81 21.79 47.67 21.5 49.71 21.79 53.42 23.01 54.12"/><polygon class="cls-50" points="19.85 48.37 18.41 47.54 18.41 47.12 19.63 46.42 21.27 45.47 22.58 44.71 30.69 49.4 28.1 50.89 27.37 50.89 21.79 47.67 20.58 48.37 19.85 48.37"/><path class="cls-76" d="M224,392.11l1,.57,2.14,1.24-.86.5-1.48.85-.75.28-3-1.73,1.48-.85Z" transform="translate(-197.98 -345.44)"/><path class="cls-50" d="M223.89,395.49l-1,.38-1,.39-1.09-.63-1.08-.62.67-.6.67-.59,1.48-.85,1.47-.86,1.45.84,1.44.83-1.47.85Z" transform="translate(-197.98 -345.44)"/><polygon class="cls-50" points="25.91 50.51 23.85 51.28 21.68 50.03 23.02 48.84 25.91 50.51"/><polygon class="cls-50" points="25.4 51.16 21.9 49.14 21.9 48.72 22.35 48.46 26.58 50.9 26.13 51.16 25.4 51.16"/><polygon class="cls-77" points="25.19 51.04 22.36 49.4 22.98 48.82 22.98 48.82 26.19 50.67 25.19 51.04"/><polygon class="cls-78" points="23.16 47.61 20.68 46.18 22.19 45.31 24.67 46.73 23.16 47.61"/><polygon class="cls-79" points="19.69 47.9 19.46 47.77 19.23 47.63 19.23 47.44 19.23 47.26 19.46 47.12 19.69 46.99 20.01 46.99 20.65 46.99 20.88 47.12 21.11 47.26 21.11 47.44 21.11 47.63 20.88 47.77 20.65 47.9 20.01 47.9 19.69 47.9"/><polygon class="cls-80" points="27.95 50.21 27.71 50.06 27.46 49.92 27.46 49.72 27.46 49.52 27.71 49.38 27.95 49.23 28.3 49.23 29.27 49.23 29.52 49.38 29.77 49.52 29.77 49.72 29.77 49.92 29.52 50.06 29.27 50.21 28.3 50.21 27.95 50.21"/><polygon class="cls-50" points="25.54 48.59 23.4 47.35 26.35 45.65 28.49 46.88 25.54 48.59"/><polygon class="cls-81" points="26.51 47.43 25.41 46.79 26.65 46.07 26.8 46.07 27.91 46.71 26.66 47.43 26.51 47.43"/><polygon class="cls-9" points="26.51 47.27 25.41 46.63 26.65 45.92 27.75 46.55 26.51 47.27"/><polygon class="cls-82" points="26.51 47.27 25.41 46.63 25.41 46.79 26.51 47.43 26.51 47.27"/><polygon class="cls-83" points="26.51 47.27 27.75 46.55 27.75 46.71 26.51 47.43 26.51 47.27"/><polygon class="cls-84" points="25.54 48.59 23.7 49.65 23.43 49.5 23.16 49.34 22.89 49.19 22.63 49.03 22.36 48.88 22.09 48.72 23.4 47.35 25.54 48.59"/><polygon class="cls-85" points="28.49 46.88 28.87 48.34 25.91 50.05 25.23 49.66 25.54 48.59 28.49 46.88"/><polygon class="cls-36" points="26.13 56.44 25.87 55.59 26.13 51.16 26.58 50.9 26.58 56.18 26.13 56.44"/><polygon class="cls-86" points="20.58 54.12 20.95 50.26 20.58 48.37 19.85 48.37 19.32 50.66 19.85 54.12 20.58 54.12"/><polygon class="cls-87" points="20.58 54.12 20.95 50.26 20.58 49.64 19.85 49.64 19.32 50.66 19.85 54.12 20.58 54.12"/><polygon class="cls-43" points="18.41 53.29 18.41 47.54 19.85 48.37 19.85 54.12 18.41 53.29"/><polygon class="cls-88" points="18.41 53.29 18.41 48.81 19.85 49.64 19.85 54.12 18.41 53.29"/><polygon class="cls-36" points="28.1 56.64 28.1 50.89 30.69 49.4 30.69 55.14 28.1 56.64"/><polygon class="cls-36" points="20.58 54.12 20.58 48.37 21.79 47.67 21.79 53.42 20.58 54.12"/><polygon class="cls-89" points="20.58 54.12 20.58 49.64 21.79 48.94 21.79 53.42 20.58 54.12"/><polygon class="cls-43" points="21.9 54.42 21.9 49.14 25.4 51.16 25.4 56.44 21.9 54.42"/><path class="cls-90" d="M220.34,394.85l2.82,1.63.15.46.07.25v1.18l-.25-.15.14.37.11.09.25,1.89-.25,1.31-2.94-1.69-.07-.33-.15-.73.08-.28-.16-.4-.11-.57-.12-.56.12-.43.11-.43.32-.18.31-.18.16,0Z" transform="translate(-197.98 -345.44)"/><polygon class="cls-43" points="22.83 51.12 23.32 51.55 23.8 51.97 24.15 52.58 24.5 53.19 24.63 53.82 24.76 54.45 24.63 54.93 24.5 55.41 24.15 55.61 23.8 55.82 23.32 55.69 22.83 55.56 22.35 55.13 21.87 54.71 21.52 54.1 21.17 53.49 21.04 52.86 20.91 52.23 21.04 51.75 21.17 51.27 21.52 51.07 21.87 50.86 22.35 50.99 22.83 51.12"/><polygon class="cls-43" points="22.84 51.36 23.26 51.74 23.69 52.12 24.01 52.66 24.32 53.21 24.44 53.77 24.55 54.33 24.44 54.76 24.32 55.19 24.01 55.37 23.69 55.55 23.26 55.44 22.84 55.32 22.41 54.94 21.98 54.56 21.66 54.02 21.35 53.47 21.23 52.91 21.12 52.35 21.23 51.92 21.35 51.49 21.66 51.31 21.98 51.13 22.41 51.24 22.84 51.36"/><polygon class="cls-50" points="23.69 52.12 22.84 51.36 23.65 50.89 23.81 51.47 24.51 51.65 23.69 52.12"/><polygon class="cls-50" points="21.98 51.13 22.84 51.36 23.65 50.89 22.79 50.66 21.98 51.13"/><polygon class="cls-91" points="22.13 51.17 22.84 51.36 23.65 50.89 22.95 50.7 22.13 51.17"/><rect class="cls-92" x="221.92" y="397.24" width="0.94" height="1.26" transform="translate(-367.13 -180.92) rotate(-30)"/><polygon class="cls-36" points="24.55 54.33 24.32 53.21 25.14 52.74 25.37 53.86 24.55 54.33"/><polygon class="cls-36" points="24.55 54.33 24.32 55.19 25.14 54.72 25.37 53.86 24.55 54.33"/><path class="cls-93" d="M221.67,397.56l-.43-.38-.43-.38.12-.07.12-.07.26.16.26.15.22.2.22.19-.17.1-.17.1Zm-.55-.94.49.34.49.35.19-.11.19-.11-.42-.38-.43-.38-.26.14Z" transform="translate(-197.98 -345.44)"/><polygon class="cls-50" points="20.83 53.56 19.72 52.58 22.84 50.78 23.94 51.76 22.64 53.12 20.83 53.56"/><polygon class="cls-84" points="18.61 52.28 19.72 52.58 22.84 50.78 21.72 50.48 18.61 52.28"/><path class="cls-94" d="M221.67,397.56l.31.54.32.55.33-.19.32-.19-.25-.25-.26-.24-.21-.21-.22-.21-.17.1-.17.1Zm1.43.63-.5-.44-.5-.44.2-.11.19-.11c.1.18.2.36.31.54l.31.55Z" transform="translate(-197.98 -345.44)"/><polygon class="cls-95" points="21.94 56.42 21.24 55.84 21.64 54.97 22.75 53.55 24.76 53.17 25.05 54.62 23.74 55.94 21.94 56.42"/><polygon class="cls-96" points="23.85 51.28 23.85 50.82 25.02 50.1 25.91 50.05 25.91 50.51 23.85 51.28"/><polygon class="cls-97" points="23.7 49.65 23.85 50.82 21.68 49.57 22.09 48.72 23.7 49.65"/><polygon class="cls-43" points="23.85 51.28 23.85 50.82 21.68 49.57 21.68 50.03 23.85 51.28"/><polygon class="cls-98" points="26.01 50.1 26.19 50.67 25.91 50.51 25.91 50.05 26.01 50.1"/><polygon class="cls-99" points="21.94 56.42 21.64 57.53 24.76 55.73 25.05 54.62 21.94 56.42"/><polygon class="cls-100" points="20.83 53.56 21.07 54.48 21.64 54.97 24.76 53.17 23.94 51.76 20.83 53.56"/><polygon class="cls-101" points="21.33 53.27 20.22 52.29 20.55 52.09 21.66 53.08 21.33 53.27"/><polygon class="cls-50" points="19.11 51.99 20.22 52.29 20.55 52.09 19.44 51.8 19.11 51.99"/><polygon class="cls-102" points="22.44 56.13 22.14 54.68 22.47 54.49 22.77 55.94 22.44 56.13"/><polygon class="cls-103" points="22.44 56.13 22.14 57.24 22.47 57.05 22.77 55.94 22.44 56.13"/><rect class="cls-104" x="219.68" y="398.51" width="0.39" height="1.62" transform="translate(-367.93 -182.42) rotate(-29.94)"/><polygon class="cls-105" points="21.83 52.98 20.72 52 21.05 51.81 22.16 52.79 21.83 52.98"/><polygon class="cls-50" points="19.61 51.7 20.72 52 21.05 51.81 19.94 51.51 19.61 51.7"/><polygon class="cls-106" points="22.94 55.84 22.64 54.39 22.97 54.2 23.27 55.65 22.94 55.84"/><polygon class="cls-107" points="22.94 55.84 22.64 56.95 22.97 56.76 23.27 55.65 22.94 55.84"/><rect class="cls-108" x="220.18" y="398.22" width="0.39" height="1.62" transform="translate(-367.72 -182.2) rotate(-29.94)"/><polygon class="cls-109" points="22.33 52.69 21.22 51.71 21.55 51.52 22.66 52.5 22.33 52.69"/><polygon class="cls-50" points="20.11 51.41 21.22 51.71 21.55 51.52 20.44 51.22 20.11 51.41"/><polygon class="cls-110" points="23.44 55.55 23.14 54.1 23.47 53.91 23.77 55.36 23.44 55.55"/><polygon class="cls-111" points="23.44 55.55 23.14 56.66 23.47 56.47 23.77 55.36 23.44 55.55"/><rect class="cls-112" x="220.68" y="397.93" width="0.39" height="1.62" transform="translate(-367.5 -182) rotate(-29.94)"/><polygon class="cls-113" points="22.83 52.41 21.72 51.42 22.05 51.23 23.16 52.21 22.83 52.41"/><polygon class="cls-50" points="20.61 51.12 21.72 51.42 22.05 51.23 20.94 50.93 20.61 51.12"/><polygon class="cls-114" points="23.94 55.27 23.64 53.81 23.97 53.62 24.27 55.07 23.94 55.27"/><polygon class="cls-115" points="23.94 55.27 23.64 56.38 23.97 56.18 24.27 55.07 23.94 55.27"/><rect class="cls-116" x="221.18" y="397.64" width="0.39" height="1.62" transform="translate(-367.34 -181.72) rotate(-29.95)"/><polygon class="cls-117" points="23.7 49.65 23.85 50.82 25.91 50.05 25.54 48.59 23.7 49.65"/><polygon class="cls-43" points="19.72 52.58 20.83 53.56 21.64 54.97 21.94 56.42 21.64 57.53 20.83 58 19.72 57.7 18.61 56.72 17.8 55.31 17.5 53.86 17.8 52.75 18.61 52.28 19.72 52.58"/><polygon class="cls-118" points="19.72 53.15 20.15 53.53 20.58 53.92 20.89 54.46 21.21 55.01 21.32 55.57 21.44 56.13 21.32 56.56 21.21 56.99 20.89 57.17 20.58 57.35 20.15 57.24 19.72 57.13 19.29 56.74 18.86 56.36 18.54 55.82 18.23 55.27 18.11 54.71 18 54.15 18.11 53.72 18.23 53.29 18.54 53.1 18.86 52.92 19.29 53.04 19.72 53.15"/><polygon class="cls-50" points="21.21 56.99 21.21 56.99 20.89 57.17 20.66 57.31 20.58 57.35 20.15 57.24 19.72 57.13 19.29 56.74 18.86 56.36 20.31 55.52 21.21 56.99"/><polygon class="cls-119" points="21.21 56.99 21.21 56.99 21.16 57.02 20.91 57.17 20.89 57.17 20.85 57.2 20.42 57.08 19.99 56.97 19.56 56.59 19.13 56.2 18.82 55.66 18.5 55.12 18.39 54.55 18.27 53.99 18.39 53.56 18.5 53.13 18.5 53.13 18.54 53.1 18.56 53.1 18.82 52.95 18.86 52.92 19.29 53.04 19.72 53.15 20.15 53.53 20.58 53.92 20.89 54.46 21.21 55.01 21.32 55.57 21.44 56.13 21.32 56.56 21.21 56.99"/><polygon class="cls-5" points="21.21 56.99 21.21 56.99 21.16 57.02 20.91 57.17 20.89 57.17 20.85 57.2 20.42 57.08 19.99 56.97 19.56 56.59 19.13 56.2 18.82 55.66 18.7 55.46 18.66 55.25 18.54 54.69 18.66 54.26 18.77 53.83 19.09 53.65 19.4 53.47 19.83 53.58 20.26 53.7 20.65 54.04 20.89 54.46 21.21 55.01 21.32 55.57 21.44 56.13 21.32 56.56 21.21 56.99"/><polygon class="cls-120" points="20.8 47.32 19.23 47.32 19.69 47.9 20.34 47.9 20.8 47.32"/><rect class="cls-121" x="25.4" y="51.16" width="0.73" height="5.28"/><polygon class="cls-50" points="27.95 49.59 27.71 49.44 27.46 49.3 27.46 49.1 27.46 48.9 27.71 48.76 27.95 48.61 28.3 48.61 28.65 48.61 28.9 48.76 29.14 48.9 29.14 49.1 29.14 49.3 28.9 49.44 28.65 49.59 28.3 49.59 27.95 49.59"/><path class="cls-9" d="M226,395l-.22-.13-.23-.13v-.36l.23-.13.22-.13h.62l.22.13.22.13v.36l-.22.13-.22.13H226Zm.12-.18h.38l.13-.07.13-.08v-.22l-.13-.08-.13-.07h-.38l-.13.07-.14.08v.22l.14.08Z" transform="translate(-197.98 -345.44)"/><polygon class="cls-43" points="27.46 49.3 27.95 49.59 27.95 50.21 27.46 49.92 27.46 49.3"/><polygon class="cls-122" points="19.23 47.32 19.69 47.59 19.69 47.9 19.23 47.63 19.23 47.32"/><rect class="cls-123" x="27.95" y="49.59" width="0.7" height="0.62"/><polygon class="cls-124" points="28.65 49.59 29.14 49.3 29.14 49.92 28.65 50.21 28.65 49.59"/><polygon class="cls-125" points="20.34 47.59 20.8 47.32 20.8 47.63 20.34 47.9 20.34 47.59"/><polygon class="cls-9" points="19.69 47.59 19.46 47.45 19.23 47.32 19.23 47.13 19.23 46.95 19.46 46.81 19.69 46.68 20.01 46.68 20.34 46.68 20.57 46.81 20.8 46.95 20.8 47.13 20.8 47.32 20.57 47.45 20.34 47.59 20.01 47.59 19.69 47.59"/><polygon class="cls-126" points="18.23 55.27 18.7 55.46 19.13 56.2 18.86 56.36 18.23 55.27"/><polygon class="cls-127" points="27.19 51.66 26.73 51.39 26.73 51.95 27.19 52.21 27.19 51.66"/><polygon class="cls-128" points="26.78 51.42 26.73 51.39 26.73 51.95 27.03 52.12 27.03 52.06 26.78 51.42"/><polygon class="cls-129" points="40.92 22.58 40.92 11.71 27.53 19.44 27.53 30.31 40.92 22.58"/><polygon class="cls-130" points="23.28 31.09 23.28 20.23 21.73 21.12 21.73 31.99 23.28 31.09"/><polygon class="cls-131" points="49.12 22.93 49.12 10.67 44.31 13.44 44.31 25.71 49.12 22.93"/><polygon class="cls-50" points="50.17 1.19 48.12 0 18 17.39 20.05 18.58 50.17 1.19"/></svg>