<svg xmlns:xlink="http://www.w3.org/1999/xlink" xmlns="http://www.w3.org/2000/svg" id="레이어_1" data-name="레이어 1" viewBox="0 0 700 700" width="141.67"  height="211.61" transform="translate(300, 100)"><defs><style>.cls-1{fill:#fff;}.cls-2{fill:#543b4d;}.cls-3{fill:#190407;}.cls-4{fill:#391b31;}.cls-5{fill:#b8cecf;}.cls-6{fill:#d5ecf0;}.cls-7{fill:#b99176;}</style></defs><path class="cls-1" d="M138.4,375.66a12.46,12.46,0,0,0-5.61,9.89c0,3.66,2.61,5.17,5.75,3.36a12.44,12.44,0,0,0,5.6-9.91C144.11,375.35,141.54,373.85,138.4,375.66Z" transform="translate(-132.79 -289.41)"/><path class="cls-2" d="M138.27,377.73a8.54,8.54,0,0,0-3.85,6.8c0,2.51,1.79,3.55,3.94,2.3a8.55,8.55,0,0,0,3.86-6.8C142.19,377.51,140.43,376.48,138.27,377.73Z" transform="translate(-132.79 -289.41)"/><path class="cls-3" d="M139.69,375.8a14.14,14.14,0,0,0-6.38,11.26c0,4.16,3,5.87,6.53,3.81a14.18,14.18,0,0,0,6.38-11.26C146.17,375.45,143.25,373.74,139.69,375.8Z" transform="translate(-132.79 -289.41)"/><path class="cls-4" d="M139.34,395.4v92.33c0,3.76,1.25,6.4,3.22,7.55l9,5.24,101.27-65.8c5.18-3,9.37-11,9.37-17.91l-13.69-84.45Z" transform="translate(-132.79 -289.41)"/><path class="cls-2" d="M148.09,492.81c0,6.9,4.2,10.08,9.38,7.09L261.6,439.81c5.18-3,9.38-11,9.38-17.91V329.57L148.09,400.48Z" transform="translate(-132.79 -289.41)"/><polygon class="cls-1" points="12.66 120.7 141.67 46.56 141.67 27.6 12.66 101.75 12.66 120.7"/><polygon class="cls-4" points="12.66 101.75 12.66 111.6 20.56 116.16 34.73 108.02 18.27 98.52 12.66 101.75"/><polygon class="cls-4" points="33 90.06 49.45 99.56 63.61 91.42 47.16 81.92 33 90.06"/><polygon class="cls-4" points="62.41 73.16 78.86 82.66 93.03 74.52 76.58 65.02 62.41 73.16"/><polygon class="cls-4" points="91.64 56.36 108.09 65.86 122.26 57.72 105.8 48.22 91.64 56.36"/><polygon class="cls-5" points="3.91 96.65 12.66 101.75 141.67 27.6 119.22 30.38 3.91 96.65"/><polygon class="cls-6" points="3.91 115.61 12.66 120.7 12.66 101.75 3.91 96.65 3.91 115.61"/><polygon class="cls-3" points="53.66 68.06 62.41 73.16 76.58 65.02 67.82 59.92 53.66 68.06"/><polygon class="cls-3" points="24.24 84.97 33 90.06 47.16 81.92 38.41 76.83 24.24 84.97"/><polygon class="cls-3" points="3.91 96.65 12.66 101.75 18.27 98.56 9.52 93.47 3.91 96.65"/><polygon class="cls-3" points="82.88 51.27 91.64 56.36 105.8 48.22 97.05 43.12 82.88 51.27"/><polygon class="cls-5" points="3.91 74.14 12.66 79.24 141.67 5.09 132.92 0 3.91 74.14"/><polygon class="cls-3" points="96.37 21.01 105.12 26.1 122 16.4 113.25 11.3 96.37 21.01"/><polygon class="cls-3" points="66.88 37.95 75.63 43.05 92.52 33.35 83.76 28.25 66.88 37.95"/><polygon class="cls-3" points="37.16 55.03 45.92 60.13 62.8 50.42 54.05 45.33 37.16 55.03"/><polygon class="cls-3" points="8.11 71.76 16.86 76.86 33.74 67.16 24.99 62.06 8.11 71.76"/><polygon class="cls-6" points="3.91 93.1 12.66 98.19 12.66 79.24 3.91 74.14 3.91 93.1"/><polygon class="cls-1" points="12.66 98.19 141.67 24.05 141.67 5.09 12.66 79.24 12.66 98.19"/><polygon class="cls-4" points="29.54 88.49 46.42 78.79 62.8 50.42 45.92 60.13 29.54 88.49"/><polygon class="cls-4" points="12.66 84.1 12.66 98.19 17.36 95.49 33.74 67.12 16.86 76.83 12.66 84.1"/><polygon class="cls-4" points="88.74 54.47 105.63 44.77 122 16.4 105.12 26.1 88.74 54.47"/><polygon class="cls-4" points="59.26 71.42 76.14 61.71 92.52 33.35 75.63 43.05 59.26 71.42"/><path class="cls-3" d="M150.43,382.26a14.55,14.55,0,0,0-6.61,11.39c0,4.19,3,5.88,6.61,3.77A14.57,14.57,0,0,0,157,386C157,381.84,154.08,380.15,150.43,382.26Z" transform="translate(-132.79 -289.41)"/><path class="cls-1" d="M151.73,384.22a12.82,12.82,0,0,0-5.81,10c0,3.68,2.6,5.16,5.81,3.31a12.8,12.8,0,0,0,5.81-10C157.54,383.85,154.94,382.37,151.73,384.22Z" transform="translate(-132.79 -289.41)"/><path class="cls-2" d="M151.89,386.3a8.8,8.8,0,0,0-4,6.89c0,2.53,1.78,3.55,4,2.27a8.79,8.79,0,0,0,4-6.88C155.88,386.05,154.09,385,151.89,386.3Z" transform="translate(-132.79 -289.41)"/><polygon class="cls-7" points="41.37 193.84 42.73 193.05 42.73 176.3 41.37 177.09 41.37 193.84"/><polygon class="cls-7" points="85.8 167.68 87.17 166.89 87.17 150.13 85.81 150.92 85.8 167.68"/><polygon class="cls-7" points="112.39 152.58 113.75 151.78 113.75 135.03 112.39 135.82 112.39 152.58"/><polygon class="cls-7" points="23.03 188.57 130.11 126.75 130.11 125 23.03 186.83 23.03 188.57"/><polygon class="cls-7" points="22.83 170.28 130.32 108.22 130.32 106.56 22.83 168.62 22.83 170.28"/><polygon class="cls-7" points="22.83 151.47 130.32 89.41 130.32 87.75 22.83 149.81 22.83 151.47"/><polygon class="cls-7" points="22.83 128.59 130.32 66.53 130.32 64.86 22.83 126.92 22.83 128.59"/><polygon class="cls-7" points="108.44 100.87 109.61 100.19 109.61 77.92 108.44 78.59 108.44 100.87"/><polygon class="cls-7" points="82.26 115.98 83.43 115.31 83.43 93.04 82.26 93.71 82.26 115.98"/></svg>