<svg xmlns:xlink="http://www.w3.org/1999/xlink" xmlns="http://www.w3.org/2000/svg" id="레이어_1" data-name="레이어 1" viewBox="0 0 500 500" transform="translate(-50, 400)" width="230"  height="138" ><defs><style>.cls-1{fill:#91a2a4;}.cls-2{fill:#ebeeef;}.cls-3{fill:#262626;}.cls-4{fill:#353535;}.cls-5{fill:#42a995;}.cls-6{fill:#c4422d;}</style></defs><g id="Keyboard"><path class="cls-1" d="M369.21,403.25h0v-2.36h-3l.24.19a4.18,4.18,0,0,0-3.33.17l-2.9,1.65a1.11,1.11,0,0,0,0,2.11l1.67.95a4.13,4.13,0,0,0,3.69,0l2.9-1.66a1.27,1.27,0,0,0,.76-1.05Z" transform="translate(-235.38 -354.11)"/><path class="cls-1" d="M352.06,398.26a5.5,5.5,0,0,0,4.92,0l1.67-.95a1.66,1.66,0,0,0,1-1.48c0-.26,0-2.52,0-2.52s-.72,1.36-1,1.19l-16.88-9.61a5.53,5.53,0,0,0-4.92,0l-1.67,1c-1.35.77-1.35,2,0,2.8Z" transform="translate(-235.38 -354.11)"/><path class="cls-1" d="M236.44,382.61a1.69,1.69,0,0,0-.15,3.07l33,23.66a42.14,42.14,0,0,0,4.84,2.9L327,438.39a5.92,5.92,0,0,0,5-.16L375.63,413c1.35-.78,1.34-2.05,0-2.83l-91-52.58a5.42,5.42,0,0,0-4.9,0Z" transform="translate(-235.38 -354.11)"/><polygon class="cls-1" points="141.25 54.6 141.25 57.44 0 29.97 0.01 27.08 141.25 54.6"/><path class="cls-2" d="M236.44,379.75a1.69,1.69,0,0,0-.15,3.07l33,23.66a40.76,40.76,0,0,0,4.84,2.9L327,435.53a5.92,5.92,0,0,0,5-.16l43.6-25.26c1.35-.78,1.34-2.05,0-2.83l-91-52.58a5.42,5.42,0,0,0-4.9,0Z" transform="translate(-235.38 -354.11)"/><path class="cls-2" d="M352.06,395.55a5.5,5.5,0,0,0,4.92,0l1.67-1c1.35-.77,1.35-2,0-2.8l-16.88-9.62a5.53,5.53,0,0,0-4.92,0l-1.67,1c-1.35.77-1.35,2,0,2.8Z" transform="translate(-235.38 -354.11)"/><path class="cls-2" d="M368.45,401.86a1.1,1.1,0,0,0,0-2.1l-1.67-.95a4.13,4.13,0,0,0-3.69,0l-2.9,1.65a1.11,1.11,0,0,0,0,2.11l1.67.95a4.13,4.13,0,0,0,3.69,0Z" transform="translate(-235.38 -354.11)"/><polygon class="cls-3" points="97.22 76.76 100.89 74.5 98.53 71.95 93.84 74.79 97.22 76.76"/><polygon class="cls-3" points="83.12 52.05 86.93 49.71 84.76 46.93 80.08 49.77 83.12 52.05"/><polygon class="cls-3" points="82.54 49.27 85.69 47.83 82.61 45.52 79.8 47.68 82.54 49.27"/><polygon class="cls-3" points="106.44 71.17 109.76 69.11 107.6 66.33 102.92 69.17 106.44 71.17"/><polygon class="cls-3" points="49.6 52.4 23.61 37.36 27.05 35.39 52.98 50.45 49.6 52.4"/><path class="cls-3" d="M242.84,381.4c-.11.07-.26-.08-.26-.08v.45a.45.45,0,0,0,.26.36l2.11,1.22a1.42,1.42,0,0,0,1.27,0l2.1-1.22a.43.43,0,0,0,.26-.36v-.45s-.15.14-.26.08l-2.1-1.21a1.36,1.36,0,0,0-1.27,0Z" transform="translate(-235.38 -354.11)"/><path class="cls-4" d="M242.84,381c-.35.21-.35.54,0,.74L245,382.9a1.42,1.42,0,0,0,1.27,0l2.1-1.21c.35-.2.35-.53,0-.74l-2.1-1.21a1.42,1.42,0,0,0-1.27,0Z" transform="translate(-235.38 -354.11)"/><path class="cls-3" d="M247.52,384.11c-.11.07-.26-.08-.26-.08v.45a.45.45,0,0,0,.26.36l2.11,1.22a1.42,1.42,0,0,0,1.27,0l2.1-1.22a.44.44,0,0,0,.27-.36V384s-.16.14-.27.08l-2.1-1.21a1.36,1.36,0,0,0-1.27,0Z" transform="translate(-235.38 -354.11)"/><path class="cls-4" d="M247.52,383.66a.4.4,0,0,0,0,.74l2.11,1.21a1.42,1.42,0,0,0,1.27,0l2.1-1.21c.35-.21.35-.54,0-.74l-2.1-1.21a1.42,1.42,0,0,0-1.27,0Z" transform="translate(-235.38 -354.11)"/><path class="cls-3" d="M252.21,386.82c-.12.07-.27-.08-.27-.08s0,.4,0,.45a.44.44,0,0,0,.27.36l2.1,1.22a1.42,1.42,0,0,0,1.27,0l2.11-1.22a.45.45,0,0,0,.26-.36v-.45s-.16.14-.26.08l-2.11-1.22a1.42,1.42,0,0,0-1.27,0Z" transform="translate(-235.38 -354.11)"/><path class="cls-4" d="M252.21,386.37c-.35.2-.35.53,0,.74l2.1,1.21a1.42,1.42,0,0,0,1.27,0l2.11-1.21c.35-.21.35-.54,0-.74l-2.11-1.21a1.42,1.42,0,0,0-1.27,0Z" transform="translate(-235.38 -354.11)"/><path class="cls-3" d="M256.89,389.53c-.12.07-.26-.08-.26-.08v.45a.43.43,0,0,0,.26.36l2.1,1.22a1.42,1.42,0,0,0,1.27,0l2.11-1.22a.45.45,0,0,0,.26-.36v-.45s-.15.14-.26.08l-2.11-1.22a1.42,1.42,0,0,0-1.27,0Z" transform="translate(-235.38 -354.11)"/><path class="cls-4" d="M256.89,389.08a.39.39,0,0,0,0,.73L259,391a1.42,1.42,0,0,0,1.27,0l2.11-1.22a.39.39,0,0,0,0-.73l-2.11-1.21a1.36,1.36,0,0,0-1.27,0Z" transform="translate(-235.38 -354.11)"/><path class="cls-3" d="M285,405.78c-.11.07-.26-.08-.26-.08v.45a.46.46,0,0,0,.26.37l2.11,1.21a1.42,1.42,0,0,0,1.27,0l2.1-1.21a.44.44,0,0,0,.26-.37v-.45s-.15.14-.26.08l-2.1-1.21a1.42,1.42,0,0,0-1.27,0Z" transform="translate(-235.38 -354.11)"/><path class="cls-4" d="M285,405.34a.39.39,0,0,0,0,.73l2.11,1.21a1.36,1.36,0,0,0,1.27,0l2.1-1.21a.39.39,0,0,0,0-.73l-2.1-1.22a1.42,1.42,0,0,0-1.27,0Z" transform="translate(-235.38 -354.11)"/><path class="cls-3" d="M289.67,408.49c-.12.07-.27-.08-.27-.08v.45a.47.47,0,0,0,.27.37l2.1,1.21a1.42,1.42,0,0,0,1.27,0l2.11-1.21a.47.47,0,0,0,.26-.37v-.45s-.16.14-.26.08L293,407.28a1.42,1.42,0,0,0-1.27,0Z" transform="translate(-235.38 -354.11)"/><path class="cls-4" d="M289.67,408c-.35.21-.35.54,0,.74l2.1,1.21a1.36,1.36,0,0,0,1.27,0l2.11-1.21a.4.4,0,0,0,0-.74L293,406.83a1.42,1.42,0,0,0-1.27,0Z" transform="translate(-235.38 -354.11)"/><path class="cls-3" d="M294.35,411.2c-.12.07-.26-.08-.26-.08v.45a.43.43,0,0,0,.26.36l2.1,1.22a1.42,1.42,0,0,0,1.27,0l2.11-1.22a.45.45,0,0,0,.26-.36v-.45s-.16.14-.26.08L297.72,410a1.36,1.36,0,0,0-1.27,0Z" transform="translate(-235.38 -354.11)"/><path class="cls-4" d="M294.35,410.75c-.35.21-.35.54,0,.74l2.1,1.21a1.42,1.42,0,0,0,1.27,0l2.11-1.21c.35-.2.35-.53,0-.74l-2.11-1.21a1.42,1.42,0,0,0-1.27,0Z" transform="translate(-235.38 -354.11)"/><path class="cls-3" d="M299,413.91c-.12.07-.26-.08-.26-.08v.45a.43.43,0,0,0,.26.36l2.1,1.22a1.42,1.42,0,0,0,1.27,0l2.11-1.22a.45.45,0,0,0,.26-.36v-.45s-.15.14-.26.08l-2.11-1.21a1.36,1.36,0,0,0-1.27,0Z" transform="translate(-235.38 -354.11)"/><path class="cls-4" d="M299,413.46c-.35.2-.35.53,0,.74l2.1,1.21a1.42,1.42,0,0,0,1.27,0l2.11-1.21c.35-.21.35-.54,0-.74l-2.11-1.21a1.42,1.42,0,0,0-1.27,0Z" transform="translate(-235.38 -354.11)"/><path class="cls-3" d="M303.71,416.6c-.11.06-.26-.08-.26-.08V417a.45.45,0,0,0,.26.37l2.11,1.22a1.42,1.42,0,0,0,1.27,0l2.1-1.22a.43.43,0,0,0,.26-.37v-.44s-.15.14-.26.08l-2.1-1.22a1.42,1.42,0,0,0-1.27,0Z" transform="translate(-235.38 -354.11)"/><path class="cls-4" d="M303.71,416.15a.39.39,0,0,0,0,.73l2.11,1.22a1.42,1.42,0,0,0,1.27,0l2.1-1.22a.39.39,0,0,0,0-.73l-2.1-1.22a1.42,1.42,0,0,0-1.27,0Z" transform="translate(-235.38 -354.11)"/><path class="cls-3" d="M308.39,419.31c-.11.06-.26-.08-.26-.08v.44a.45.45,0,0,0,.26.37l2.11,1.22a1.42,1.42,0,0,0,1.27,0l2.1-1.22a.44.44,0,0,0,.27-.37v-.44s-.16.14-.27.08l-2.1-1.22a1.42,1.42,0,0,0-1.27,0Z" transform="translate(-235.38 -354.11)"/><path class="cls-4" d="M308.39,418.86a.39.39,0,0,0,0,.73l2.11,1.22a1.42,1.42,0,0,0,1.27,0l2.1-1.22a.39.39,0,0,0,0-.73l-2.1-1.22a1.42,1.42,0,0,0-1.27,0Z" transform="translate(-235.38 -354.11)"/><path class="cls-3" d="M313.08,422c-.12.06-.27-.09-.27-.09v.45a.44.44,0,0,0,.27.37l2.1,1.21a1.36,1.36,0,0,0,1.27,0l2.11-1.21a.45.45,0,0,0,.26-.37v-.45s-.16.15-.26.09l-2.11-1.22a1.42,1.42,0,0,0-1.27,0Z" transform="translate(-235.38 -354.11)"/><path class="cls-4" d="M313.08,421.57a.39.39,0,0,0,0,.73l2.1,1.22a1.42,1.42,0,0,0,1.27,0l2.11-1.22a.39.39,0,0,0,0-.73l-2.11-1.22a1.42,1.42,0,0,0-1.27,0Z" transform="translate(-235.38 -354.11)"/><path class="cls-3" d="M317.76,424.72c-.12.07-.26-.08-.26-.08v.45a.44.44,0,0,0,.26.37l2.1,1.21a1.36,1.36,0,0,0,1.27,0l2.11-1.21a.46.46,0,0,0,.26-.37v-.45s-.15.15-.26.08l-2.11-1.21a1.42,1.42,0,0,0-1.27,0Z" transform="translate(-235.38 -354.11)"/><path class="cls-4" d="M317.76,424.28a.39.39,0,0,0,0,.73l2.1,1.22a1.42,1.42,0,0,0,1.27,0l2.11-1.22a.39.39,0,0,0,0-.73l-2.11-1.22a1.42,1.42,0,0,0-1.27,0Z" transform="translate(-235.38 -354.11)"/><path class="cls-3" d="M322.44,427.43c-.11.07-.26-.08-.26-.08v.45a.46.46,0,0,0,.26.37l2.11,1.21a1.42,1.42,0,0,0,1.27,0l2.1-1.21a.44.44,0,0,0,.26-.37v-.45s-.15.15-.26.08l-2.1-1.21a1.42,1.42,0,0,0-1.27,0Z" transform="translate(-235.38 -354.11)"/><path class="cls-4" d="M322.44,427a.39.39,0,0,0,0,.73l2.11,1.21a1.36,1.36,0,0,0,1.27,0l2.1-1.21a.39.39,0,0,0,0-.73l-2.1-1.22a1.42,1.42,0,0,0-1.27,0Z" transform="translate(-235.38 -354.11)"/><path class="cls-3" d="M327.12,430.14c-.11.07-.26-.08-.26-.08v.45a.46.46,0,0,0,.26.37l2.11,1.21a1.42,1.42,0,0,0,1.27,0l2.1-1.21a.45.45,0,0,0,.27-.37c0-.05,0-.45,0-.45s-.15.14-.26.08l-2.1-1.21a1.42,1.42,0,0,0-1.27,0Z" transform="translate(-235.38 -354.11)"/><path class="cls-4" d="M327.12,429.7a.39.39,0,0,0,0,.73l2.11,1.21a1.36,1.36,0,0,0,1.27,0l2.1-1.21a.39.39,0,0,0,0-.73l-2.1-1.22a1.42,1.42,0,0,0-1.27,0Z" transform="translate(-235.38 -354.11)"/><polygon class="cls-4" points="49.6 51.95 23.61 36.92 27.05 35.01 53.35 50.22 49.6 51.95"/><polygon class="cls-3" points="14.13 26.33 17.23 28.13 20.52 25.96 17.62 24.27 14.13 26.33"/><polygon class="cls-3" points="69.13 54.17 71.86 55.75 69.05 58.11 65.56 56.09 69.13 54.17"/><path class="cls-3" d="M247.52,378.56c-.11.07-.26-.08-.26-.08v.45a.46.46,0,0,0,.26.37l2.11,1.21a1.42,1.42,0,0,0,1.27,0l2.1-1.21a.45.45,0,0,0,.27-.37v-.45s-.16.14-.27.08l-2.1-1.21a1.42,1.42,0,0,0-1.27,0Z" transform="translate(-235.38 -354.11)"/><path class="cls-4" d="M247.52,378.12a.39.39,0,0,0,0,.73l2.11,1.21a1.36,1.36,0,0,0,1.27,0l2.1-1.21a.39.39,0,0,0,0-.73l-2.1-1.22a1.42,1.42,0,0,0-1.27,0Z" transform="translate(-235.38 -354.11)"/><path class="cls-3" d="M252.21,381.27c-.12.07-.27-.08-.27-.08s0,.4,0,.45a.47.47,0,0,0,.27.37l2.1,1.21a1.42,1.42,0,0,0,1.27,0l2.11-1.21a.47.47,0,0,0,.26-.37v-.45s-.16.14-.26.08l-2.11-1.21a1.42,1.42,0,0,0-1.27,0Z" transform="translate(-235.38 -354.11)"/><path class="cls-4" d="M252.21,380.82c-.35.21-.35.54,0,.74l2.1,1.21a1.42,1.42,0,0,0,1.27,0l2.11-1.21c.35-.2.35-.53,0-.74l-2.11-1.21a1.42,1.42,0,0,0-1.27,0Z" transform="translate(-235.38 -354.11)"/><path class="cls-3" d="M256.89,384c-.12.07-.26-.08-.26-.08v.45a.43.43,0,0,0,.26.36l2.1,1.22a1.42,1.42,0,0,0,1.27,0l2.11-1.22a.45.45,0,0,0,.26-.36v-.45s-.15.14-.26.08l-2.11-1.21a1.36,1.36,0,0,0-1.27,0Z" transform="translate(-235.38 -354.11)"/><path class="cls-4" d="M256.89,383.53c-.35.21-.35.54,0,.74l2.1,1.21a1.42,1.42,0,0,0,1.27,0l2.11-1.21c.35-.2.35-.53,0-.74l-2.11-1.21a1.42,1.42,0,0,0-1.27,0Z" transform="translate(-235.38 -354.11)"/><path class="cls-3" d="M261.57,386.69c-.11.07-.26-.08-.26-.08v.45a.45.45,0,0,0,.26.36l2.11,1.22a1.42,1.42,0,0,0,1.27,0l2.1-1.22a.43.43,0,0,0,.26-.36v-.45s-.15.14-.26.08l-2.1-1.22a1.42,1.42,0,0,0-1.27,0Z" transform="translate(-235.38 -354.11)"/><path class="cls-4" d="M261.57,386.24c-.35.2-.35.53,0,.74l2.11,1.21a1.42,1.42,0,0,0,1.27,0l2.1-1.21c.35-.21.35-.54,0-.74L265,385a1.42,1.42,0,0,0-1.27,0Z" transform="translate(-235.38 -354.11)"/><path class="cls-3" d="M266.25,389.4c-.11.07-.26-.08-.26-.08v.45a.45.45,0,0,0,.26.36l2.11,1.22a1.42,1.42,0,0,0,1.27,0l2.1-1.22a.44.44,0,0,0,.27-.36v-.45s-.16.14-.27.08l-2.1-1.22a1.42,1.42,0,0,0-1.27,0Z" transform="translate(-235.38 -354.11)"/><path class="cls-4" d="M266.25,389c-.35.2-.35.53,0,.74l2.11,1.21a1.42,1.42,0,0,0,1.27,0l2.1-1.21c.35-.21.35-.54,0-.74l-2.1-1.21a1.36,1.36,0,0,0-1.27,0Z" transform="translate(-235.38 -354.11)"/><path class="cls-3" d="M270.94,392.11c-.12.06-.27-.08-.27-.08v.44a.44.44,0,0,0,.27.37l2.1,1.22a1.42,1.42,0,0,0,1.27,0l2.11-1.22a.45.45,0,0,0,.26-.36V392s-.16.14-.26.08l-2.11-1.22a1.42,1.42,0,0,0-1.27,0Z" transform="translate(-235.38 -354.11)"/><path class="cls-4" d="M270.94,391.66a.39.39,0,0,0,0,.73l2.1,1.22a1.42,1.42,0,0,0,1.27,0l2.11-1.22a.39.39,0,0,0,0-.73l-2.11-1.21a1.36,1.36,0,0,0-1.27,0Z" transform="translate(-235.38 -354.11)"/><path class="cls-3" d="M275.62,394.82c-.12.06-.26-.08-.26-.08v.44a.43.43,0,0,0,.26.37l2.1,1.22a1.42,1.42,0,0,0,1.27,0l2.11-1.22a.45.45,0,0,0,.26-.37v-.44s-.16.14-.26.08L279,393.6a1.42,1.42,0,0,0-1.27,0Z" transform="translate(-235.38 -354.11)"/><path class="cls-4" d="M275.62,394.37a.39.39,0,0,0,0,.73l2.1,1.22a1.42,1.42,0,0,0,1.27,0l2.11-1.22a.39.39,0,0,0,0-.73L279,393.15a1.42,1.42,0,0,0-1.27,0Z" transform="translate(-235.38 -354.11)"/><path class="cls-3" d="M280.3,397.53c-.11.06-.26-.08-.26-.08v.44a.45.45,0,0,0,.26.37l2.11,1.22a1.42,1.42,0,0,0,1.27,0l2.1-1.22a.43.43,0,0,0,.26-.37v-.44s-.15.14-.26.08l-2.1-1.22a1.42,1.42,0,0,0-1.27,0Z" transform="translate(-235.38 -354.11)"/><path class="cls-4" d="M280.3,397.08a.39.39,0,0,0,0,.73l2.11,1.22a1.42,1.42,0,0,0,1.27,0l2.1-1.22a.39.39,0,0,0,0-.73l-2.1-1.22a1.42,1.42,0,0,0-1.27,0Z" transform="translate(-235.38 -354.11)"/><path class="cls-3" d="M285,400.24c-.11.06-.26-.09-.26-.09v.45a.45.45,0,0,0,.26.37l2.11,1.21a1.36,1.36,0,0,0,1.27,0l2.1-1.21a.43.43,0,0,0,.26-.37v-.45s-.15.15-.26.09l-2.1-1.22a1.42,1.42,0,0,0-1.27,0Z" transform="translate(-235.38 -354.11)"/><path class="cls-4" d="M285,399.79a.39.39,0,0,0,0,.73l2.11,1.22a1.42,1.42,0,0,0,1.27,0l2.1-1.22a.39.39,0,0,0,0-.73l-2.1-1.22a1.42,1.42,0,0,0-1.27,0Z" transform="translate(-235.38 -354.11)"/><path class="cls-3" d="M289.67,402.94c-.12.07-.27-.08-.27-.08v.45a.45.45,0,0,0,.27.37l2.1,1.21a1.42,1.42,0,0,0,1.27,0l2.11-1.21a.46.46,0,0,0,.26-.37v-.45s-.16.15-.26.08L293,401.73a1.42,1.42,0,0,0-1.27,0Z" transform="translate(-235.38 -354.11)"/><path class="cls-4" d="M289.67,402.5a.39.39,0,0,0,0,.73l2.1,1.22a1.42,1.42,0,0,0,1.27,0l2.11-1.22a.39.39,0,0,0,0-.73L293,401.28a1.42,1.42,0,0,0-1.27,0Z" transform="translate(-235.38 -354.11)"/><path class="cls-3" d="M294.35,405.65c-.12.07-.26-.08-.26-.08V406a.44.44,0,0,0,.26.37l2.1,1.21a1.42,1.42,0,0,0,1.27,0l2.11-1.21a.46.46,0,0,0,.26-.37v-.45s-.16.15-.26.08l-2.11-1.21a1.42,1.42,0,0,0-1.27,0Z" transform="translate(-235.38 -354.11)"/><path class="cls-4" d="M294.35,405.21a.39.39,0,0,0,0,.73l2.1,1.21a1.36,1.36,0,0,0,1.27,0l2.11-1.21a.39.39,0,0,0,0-.73L297.72,404a1.42,1.42,0,0,0-1.27,0Z" transform="translate(-235.38 -354.11)"/><path class="cls-3" d="M299,408.36c-.12.07-.26-.08-.26-.08v.45a.44.44,0,0,0,.26.37l2.1,1.21a1.42,1.42,0,0,0,1.27,0l2.11-1.21a.46.46,0,0,0,.26-.37v-.45s-.15.14-.26.08l-2.11-1.21a1.42,1.42,0,0,0-1.27,0Z" transform="translate(-235.38 -354.11)"/><path class="cls-4" d="M299,407.92a.39.39,0,0,0,0,.73l2.1,1.21a1.36,1.36,0,0,0,1.27,0l2.11-1.21a.39.39,0,0,0,0-.73l-2.11-1.22a1.42,1.42,0,0,0-1.27,0Z" transform="translate(-235.38 -354.11)"/><path class="cls-3" d="M303.71,411.07c-.11.07-.26-.08-.26-.08v.45a.47.47,0,0,0,.26.37l2.11,1.21a1.42,1.42,0,0,0,1.27,0l2.1-1.21a.45.45,0,0,0,.26-.37V411s-.15.14-.26.08l-2.1-1.21a1.42,1.42,0,0,0-1.27,0Z" transform="translate(-235.38 -354.11)"/><path class="cls-4" d="M303.71,410.62c-.35.21-.35.54,0,.74l2.11,1.21a1.42,1.42,0,0,0,1.27,0l2.1-1.21c.35-.2.35-.53,0-.74l-2.1-1.21a1.42,1.42,0,0,0-1.27,0Z" transform="translate(-235.38 -354.11)"/><path class="cls-3" d="M313.08,416.47c-.12.06-.27-.08-.27-.08v.44a.44.44,0,0,0,.27.37l2.1,1.22a1.42,1.42,0,0,0,1.27,0l2.11-1.22a.45.45,0,0,0,.26-.36v-.45s-.16.14-.26.08l-2.11-1.22a1.42,1.42,0,0,0-1.27,0Z" transform="translate(-235.38 -354.11)"/><path class="cls-4" d="M313.08,416a.39.39,0,0,0,0,.73l2.1,1.22a1.42,1.42,0,0,0,1.27,0l2.11-1.22a.39.39,0,0,0,0-.73l-2.11-1.21a1.36,1.36,0,0,0-1.27,0Z" transform="translate(-235.38 -354.11)"/><path class="cls-3" d="M322.44,421.89c-.11.06-.26-.08-.26-.08v.44a.45.45,0,0,0,.26.37l2.11,1.21a1.36,1.36,0,0,0,1.27,0l2.1-1.21a.43.43,0,0,0,.26-.37v-.44s-.15.14-.26.08l-2.1-1.22a1.42,1.42,0,0,0-1.27,0Z" transform="translate(-235.38 -354.11)"/><path class="cls-4" d="M322.44,421.44a.39.39,0,0,0,0,.73l2.11,1.22a1.42,1.42,0,0,0,1.27,0l2.1-1.22a.39.39,0,0,0,0-.73l-2.1-1.22a1.42,1.42,0,0,0-1.27,0Z" transform="translate(-235.38 -354.11)"/><path class="cls-3" d="M327.12,424.6c-.11.06-.26-.09-.26-.09V425a.46.46,0,0,0,.26.37l2.11,1.21a1.36,1.36,0,0,0,1.27,0l2.1-1.21a.44.44,0,0,0,.27-.37s0-.45,0-.45-.15.15-.26.09l-2.1-1.22a1.42,1.42,0,0,0-1.27,0Z" transform="translate(-235.38 -354.11)"/><path class="cls-4" d="M327.12,424.15a.39.39,0,0,0,0,.73l2.11,1.22a1.42,1.42,0,0,0,1.27,0l2.1-1.22a.39.39,0,0,0,0-.73l-2.1-1.22a1.42,1.42,0,0,0-1.27,0Z" transform="translate(-235.38 -354.11)"/><path class="cls-3" d="M331.81,427.3c-.12.07-.27-.08-.27-.08v.45a.45.45,0,0,0,.27.37l2.1,1.21a1.42,1.42,0,0,0,1.27,0l2.11-1.21a.46.46,0,0,0,.26-.37v-.45s-.16.15-.26.08l-2.11-1.21a1.42,1.42,0,0,0-1.27,0Z" transform="translate(-235.38 -354.11)"/><path class="cls-4" d="M331.81,426.86a.39.39,0,0,0,0,.73l2.1,1.22a1.42,1.42,0,0,0,1.27,0l2.11-1.22a.39.39,0,0,0,0-.73l-2.11-1.22a1.42,1.42,0,0,0-1.27,0Z" transform="translate(-235.38 -354.11)"/><polygon class="cls-4" points="69.13 53.8 71.86 55.38 68.86 57.55 65.75 55.75 69.13 53.8"/><polygon class="cls-4" points="14.25 25.95 17.19 27.65 20.52 25.68 17.62 24 14.25 25.95"/><path class="cls-3" d="M252.21,375.72c-.12.07-.27-.08-.27-.08s0,.41,0,.45a.45.45,0,0,0,.27.37l2.1,1.21a1.42,1.42,0,0,0,1.27,0l2.11-1.21a.46.46,0,0,0,.26-.37v-.45s-.16.15-.26.08l-2.11-1.21a1.42,1.42,0,0,0-1.27,0Z" transform="translate(-235.38 -354.11)"/><path class="cls-4" d="M252.21,375.28a.39.39,0,0,0,0,.73l2.1,1.22a1.42,1.42,0,0,0,1.27,0l2.11-1.22a.39.39,0,0,0,0-.73l-2.11-1.22a1.42,1.42,0,0,0-1.27,0Z" transform="translate(-235.38 -354.11)"/><path class="cls-3" d="M256.89,378.43c-.12.07-.26-.08-.26-.08v.45a.44.44,0,0,0,.26.37l2.1,1.21a1.42,1.42,0,0,0,1.27,0l2.11-1.21a.46.46,0,0,0,.26-.37v-.45s-.15.14-.26.08l-2.11-1.21a1.42,1.42,0,0,0-1.27,0Z" transform="translate(-235.38 -354.11)"/><path class="cls-4" d="M256.89,378a.39.39,0,0,0,0,.73l2.1,1.21a1.36,1.36,0,0,0,1.27,0l2.11-1.21a.39.39,0,0,0,0-.73l-2.11-1.22a1.42,1.42,0,0,0-1.27,0Z" transform="translate(-235.38 -354.11)"/><path class="cls-3" d="M261.57,381.14c-.11.07-.26-.08-.26-.08v.45a.46.46,0,0,0,.26.37l2.11,1.21a1.42,1.42,0,0,0,1.27,0l2.1-1.21a.44.44,0,0,0,.26-.37v-.45s-.15.14-.26.08l-2.1-1.21a1.42,1.42,0,0,0-1.27,0Z" transform="translate(-235.38 -354.11)"/><path class="cls-4" d="M261.57,380.7a.39.39,0,0,0,0,.73l2.11,1.21a1.36,1.36,0,0,0,1.27,0l2.1-1.21a.39.39,0,0,0,0-.73l-2.1-1.22a1.42,1.42,0,0,0-1.27,0Z" transform="translate(-235.38 -354.11)"/><path class="cls-3" d="M266.25,383.85c-.11.07-.26-.08-.26-.08v.45a.45.45,0,0,0,.26.36l2.11,1.22a1.42,1.42,0,0,0,1.27,0l2.1-1.22a.44.44,0,0,0,.27-.36v-.45s-.16.14-.27.08l-2.1-1.21a1.36,1.36,0,0,0-1.27,0Z" transform="translate(-235.38 -354.11)"/><path class="cls-4" d="M266.25,383.4c-.35.21-.35.54,0,.74l2.11,1.21a1.42,1.42,0,0,0,1.27,0l2.1-1.21c.35-.2.35-.53,0-.74l-2.1-1.21a1.42,1.42,0,0,0-1.27,0Z" transform="translate(-235.38 -354.11)"/><path class="cls-3" d="M270.94,386.56c-.12.07-.27-.08-.27-.08v.45a.44.44,0,0,0,.27.36l2.1,1.22a1.42,1.42,0,0,0,1.27,0l2.11-1.22a.45.45,0,0,0,.26-.36v-.45s-.16.14-.26.08l-2.11-1.21a1.36,1.36,0,0,0-1.27,0Z" transform="translate(-235.38 -354.11)"/><path class="cls-4" d="M270.94,386.11c-.35.2-.35.53,0,.74l2.1,1.21a1.42,1.42,0,0,0,1.27,0l2.11-1.21c.35-.21.35-.54,0-.74l-2.11-1.21a1.42,1.42,0,0,0-1.27,0Z" transform="translate(-235.38 -354.11)"/><path class="cls-3" d="M275.62,389.27c-.12.07-.26-.08-.26-.08v.45a.43.43,0,0,0,.26.36l2.1,1.22a1.42,1.42,0,0,0,1.27,0L281.1,390a.45.45,0,0,0,.26-.36v-.45s-.16.14-.26.08L279,388.05a1.42,1.42,0,0,0-1.27,0Z" transform="translate(-235.38 -354.11)"/><path class="cls-4" d="M275.62,388.82c-.35.2-.35.53,0,.74l2.1,1.21a1.42,1.42,0,0,0,1.27,0l2.11-1.21c.35-.21.35-.54,0-.74L279,387.61a1.42,1.42,0,0,0-1.27,0Z" transform="translate(-235.38 -354.11)"/><path class="cls-3" d="M280.3,392c-.11.07-.26-.08-.26-.08v.45a.45.45,0,0,0,.26.36l2.11,1.22a1.42,1.42,0,0,0,1.27,0l2.1-1.22a.43.43,0,0,0,.26-.36v-.45s-.15.14-.26.08l-2.1-1.22a1.42,1.42,0,0,0-1.27,0Z" transform="translate(-235.38 -354.11)"/><path class="cls-4" d="M280.3,391.53a.39.39,0,0,0,0,.73l2.11,1.22a1.42,1.42,0,0,0,1.27,0l2.1-1.22a.39.39,0,0,0,0-.73l-2.1-1.21a1.36,1.36,0,0,0-1.27,0Z" transform="translate(-235.38 -354.11)"/><path class="cls-3" d="M285,394.69c-.11.06-.26-.08-.26-.08v.44a.45.45,0,0,0,.26.37l2.11,1.22a1.42,1.42,0,0,0,1.27,0l2.1-1.22a.43.43,0,0,0,.26-.37v-.44s-.15.14-.26.08l-2.1-1.22a1.42,1.42,0,0,0-1.27,0Z" transform="translate(-235.38 -354.11)"/><path class="cls-4" d="M285,394.24a.39.39,0,0,0,0,.73l2.11,1.22a1.42,1.42,0,0,0,1.27,0l2.1-1.22a.39.39,0,0,0,0-.73l-2.1-1.21a1.36,1.36,0,0,0-1.27,0Z" transform="translate(-235.38 -354.11)"/><path class="cls-3" d="M289.67,397.4c-.12.06-.27-.08-.27-.08v.44a.44.44,0,0,0,.27.37l2.1,1.22a1.42,1.42,0,0,0,1.27,0l2.11-1.22a.45.45,0,0,0,.26-.37v-.44s-.16.14-.26.08L293,396.18a1.42,1.42,0,0,0-1.27,0Z" transform="translate(-235.38 -354.11)"/><path class="cls-4" d="M289.67,397a.39.39,0,0,0,0,.73l2.1,1.22a1.42,1.42,0,0,0,1.27,0l2.11-1.22a.39.39,0,0,0,0-.73L293,395.73a1.42,1.42,0,0,0-1.27,0Z" transform="translate(-235.38 -354.11)"/><path class="cls-3" d="M294.35,400.11c-.12.06-.26-.08-.26-.08v.44a.43.43,0,0,0,.26.37l2.1,1.21a1.36,1.36,0,0,0,1.27,0l2.11-1.21a.45.45,0,0,0,.26-.37V400s-.16.14-.26.08l-2.11-1.22a1.42,1.42,0,0,0-1.27,0Z" transform="translate(-235.38 -354.11)"/><path class="cls-4" d="M294.35,399.66a.39.39,0,0,0,0,.73l2.1,1.22a1.42,1.42,0,0,0,1.27,0l2.11-1.22a.39.39,0,0,0,0-.73l-2.11-1.22a1.42,1.42,0,0,0-1.27,0Z" transform="translate(-235.38 -354.11)"/><path class="cls-3" d="M299,402.82c-.12.06-.26-.09-.26-.09v.45a.44.44,0,0,0,.26.37l2.1,1.21a1.36,1.36,0,0,0,1.27,0l2.11-1.21a.45.45,0,0,0,.26-.37v-.45s-.15.15-.26.09l-2.11-1.22a1.42,1.42,0,0,0-1.27,0Z" transform="translate(-235.38 -354.11)"/><path class="cls-4" d="M299,402.37a.39.39,0,0,0,0,.73l2.1,1.22a1.42,1.42,0,0,0,1.27,0l2.11-1.22a.39.39,0,0,0,0-.73l-2.11-1.22a1.42,1.42,0,0,0-1.27,0Z" transform="translate(-235.38 -354.11)"/><path class="cls-3" d="M303.71,405.52c-.11.07-.26-.08-.26-.08v.45a.46.46,0,0,0,.26.37l2.11,1.21a1.42,1.42,0,0,0,1.27,0l2.1-1.21a.44.44,0,0,0,.26-.37v-.45s-.15.15-.26.08l-2.1-1.21a1.42,1.42,0,0,0-1.27,0Z" transform="translate(-235.38 -354.11)"/><path class="cls-4" d="M303.71,405.08a.39.39,0,0,0,0,.73l2.11,1.22a1.42,1.42,0,0,0,1.27,0l2.1-1.22a.39.39,0,0,0,0-.73l-2.1-1.22a1.42,1.42,0,0,0-1.27,0Z" transform="translate(-235.38 -354.11)"/><path class="cls-3" d="M308.39,408.23c-.11.07-.26-.08-.26-.08v.45a.46.46,0,0,0,.26.37l2.11,1.21a1.42,1.42,0,0,0,1.27,0l2.1-1.21a.45.45,0,0,0,.27-.37v-.45s-.16.14-.27.08l-2.1-1.21a1.42,1.42,0,0,0-1.27,0Z" transform="translate(-235.38 -354.11)"/><path class="cls-4" d="M308.39,407.79a.39.39,0,0,0,0,.73l2.11,1.21a1.36,1.36,0,0,0,1.27,0l2.1-1.21a.39.39,0,0,0,0-.73l-2.1-1.22a1.42,1.42,0,0,0-1.27,0Z" transform="translate(-235.38 -354.11)"/><path class="cls-3" d="M327.12,419.05c-.11.06-.26-.08-.26-.08v.44a.45.45,0,0,0,.26.37l2.11,1.22a1.42,1.42,0,0,0,1.27,0l2.1-1.22a.44.44,0,0,0,.27-.37c0-.05,0-.44,0-.44s-.15.14-.26.08l-2.1-1.22a1.42,1.42,0,0,0-1.27,0Z" transform="translate(-235.38 -354.11)"/><path class="cls-4" d="M327.12,418.6a.39.39,0,0,0,0,.73l2.11,1.22a1.42,1.42,0,0,0,1.27,0l2.1-1.22a.39.39,0,0,0,0-.73l-2.1-1.22a1.42,1.42,0,0,0-1.27,0Z" transform="translate(-235.38 -354.11)"/><path class="cls-3" d="M331.81,421.76c-.12.06-.27-.08-.27-.08v.44a.44.44,0,0,0,.27.37l2.1,1.22a1.42,1.42,0,0,0,1.27,0l2.11-1.22a.45.45,0,0,0,.26-.37v-.44s-.16.14-.26.08l-2.11-1.22a1.42,1.42,0,0,0-1.27,0Z" transform="translate(-235.38 -354.11)"/><path class="cls-4" d="M331.81,421.31a.39.39,0,0,0,0,.73l2.1,1.22a1.42,1.42,0,0,0,1.27,0l2.11-1.22a.39.39,0,0,0,0-.73l-2.11-1.22a1.42,1.42,0,0,0-1.27,0Z" transform="translate(-235.38 -354.11)"/><path class="cls-3" d="M336.49,424.47c-.12.06-.26-.09-.26-.09v.45a.43.43,0,0,0,.26.37l2.1,1.21a1.36,1.36,0,0,0,1.27,0L342,425.2a.45.45,0,0,0,.26-.37v-.45s-.16.15-.26.09l-2.11-1.22a1.42,1.42,0,0,0-1.27,0Z" transform="translate(-235.38 -354.11)"/><path class="cls-4" d="M336.49,424a.39.39,0,0,0,0,.73l2.1,1.22a1.42,1.42,0,0,0,1.27,0l2.11-1.22a.39.39,0,0,0,0-.73l-2.11-1.22a1.42,1.42,0,0,0-1.27,0Z" transform="translate(-235.38 -354.11)"/><path class="cls-3" d="M256.89,372.89c-.12.06-.26-.08-.26-.08v.44a.43.43,0,0,0,.26.37l2.1,1.21a1.36,1.36,0,0,0,1.27,0l2.11-1.21a.45.45,0,0,0,.26-.37v-.44s-.15.14-.26.08l-2.11-1.22a1.42,1.42,0,0,0-1.27,0Z" transform="translate(-235.38 -354.11)"/><path class="cls-4" d="M256.89,372.44a.39.39,0,0,0,0,.73l2.1,1.22a1.42,1.42,0,0,0,1.27,0l2.11-1.22a.39.39,0,0,0,0-.73l-2.11-1.22a1.42,1.42,0,0,0-1.27,0Z" transform="translate(-235.38 -354.11)"/><path class="cls-3" d="M261.57,375.59c-.11.07-.26-.08-.26-.08V376a.46.46,0,0,0,.26.37l2.11,1.21a1.36,1.36,0,0,0,1.27,0l2.1-1.21a.44.44,0,0,0,.26-.37v-.45s-.15.15-.26.08l-2.1-1.21a1.42,1.42,0,0,0-1.27,0Z" transform="translate(-235.38 -354.11)"/><path class="cls-4" d="M261.57,375.15a.39.39,0,0,0,0,.73l2.11,1.22a1.42,1.42,0,0,0,1.27,0l2.1-1.22a.39.39,0,0,0,0-.73l-2.1-1.22a1.42,1.42,0,0,0-1.27,0Z" transform="translate(-235.38 -354.11)"/><path class="cls-3" d="M266.25,378.3c-.11.07-.26-.08-.26-.08v.45a.46.46,0,0,0,.26.37l2.11,1.21a1.42,1.42,0,0,0,1.27,0l2.1-1.21a.45.45,0,0,0,.27-.37v-.45s-.16.15-.27.08l-2.1-1.21a1.42,1.42,0,0,0-1.27,0Z" transform="translate(-235.38 -354.11)"/><path class="cls-4" d="M266.25,377.86a.39.39,0,0,0,0,.73l2.11,1.22a1.42,1.42,0,0,0,1.27,0l2.1-1.22a.39.39,0,0,0,0-.73l-2.1-1.22a1.42,1.42,0,0,0-1.27,0Z" transform="translate(-235.38 -354.11)"/><path class="cls-3" d="M270.94,381c-.12.07-.27-.08-.27-.08v.45a.45.45,0,0,0,.27.37L273,383a1.42,1.42,0,0,0,1.27,0l2.11-1.21a.46.46,0,0,0,.26-.37v-.45s-.16.14-.26.08l-2.11-1.21a1.42,1.42,0,0,0-1.27,0Z" transform="translate(-235.38 -354.11)"/><path class="cls-4" d="M270.94,380.57a.39.39,0,0,0,0,.73l2.1,1.21a1.36,1.36,0,0,0,1.27,0l2.11-1.21a.39.39,0,0,0,0-.73l-2.11-1.22a1.42,1.42,0,0,0-1.27,0Z" transform="translate(-235.38 -354.11)"/><path class="cls-3" d="M275.62,383.72c-.12.07-.26-.08-.26-.08v.45a.45.45,0,0,0,.26.37l2.1,1.21a1.42,1.42,0,0,0,1.27,0l2.11-1.21a.47.47,0,0,0,.26-.37v-.45s-.16.14-.26.08L279,382.51a1.42,1.42,0,0,0-1.27,0Z" transform="translate(-235.38 -354.11)"/><path class="cls-4" d="M275.62,383.27c-.35.21-.35.54,0,.74l2.1,1.21a1.42,1.42,0,0,0,1.27,0L281.1,384c.35-.2.35-.53,0-.74L279,382.06a1.42,1.42,0,0,0-1.27,0Z" transform="translate(-235.38 -354.11)"/><path class="cls-3" d="M280.3,386.43c-.11.07-.26-.08-.26-.08v.45a.45.45,0,0,0,.26.36l2.11,1.22a1.42,1.42,0,0,0,1.27,0l2.1-1.22a.43.43,0,0,0,.26-.36v-.45s-.15.14-.26.08l-2.1-1.21a1.36,1.36,0,0,0-1.27,0Z" transform="translate(-235.38 -354.11)"/><path class="cls-4" d="M280.3,386c-.35.21-.35.54,0,.74l2.11,1.21a1.42,1.42,0,0,0,1.27,0l2.1-1.21c.35-.2.35-.53,0-.74l-2.1-1.21a1.42,1.42,0,0,0-1.27,0Z" transform="translate(-235.38 -354.11)"/><path class="cls-3" d="M285,389.14c-.11.07-.26-.08-.26-.08v.45a.45.45,0,0,0,.26.36l2.11,1.22a1.42,1.42,0,0,0,1.27,0l2.1-1.22a.43.43,0,0,0,.26-.36v-.45s-.15.14-.26.08l-2.1-1.21a1.36,1.36,0,0,0-1.27,0Z" transform="translate(-235.38 -354.11)"/><path class="cls-4" d="M285,388.69c-.35.2-.35.53,0,.74l2.11,1.21a1.42,1.42,0,0,0,1.27,0l2.1-1.21c.35-.21.35-.54,0-.74l-2.1-1.21a1.42,1.42,0,0,0-1.27,0Z" transform="translate(-235.38 -354.11)"/><path class="cls-3" d="M289.67,391.85c-.12.07-.27-.08-.27-.08v.45a.44.44,0,0,0,.27.36l2.1,1.22a1.42,1.42,0,0,0,1.27,0l2.11-1.22a.45.45,0,0,0,.26-.36v-.45s-.16.14-.26.08L293,390.63a1.42,1.42,0,0,0-1.27,0Z" transform="translate(-235.38 -354.11)"/><path class="cls-4" d="M289.67,391.4c-.35.2-.35.53,0,.74l2.1,1.21a1.42,1.42,0,0,0,1.27,0l2.11-1.21a.4.4,0,0,0,0-.74L293,390.19a1.42,1.42,0,0,0-1.27,0Z" transform="translate(-235.38 -354.11)"/><path class="cls-3" d="M294.35,394.56c-.12.06-.26-.08-.26-.08v.44a.43.43,0,0,0,.26.37l2.1,1.22a1.42,1.42,0,0,0,1.27,0l2.11-1.22a.45.45,0,0,0,.26-.36v-.45s-.16.14-.26.08l-2.11-1.22a1.42,1.42,0,0,0-1.27,0Z" transform="translate(-235.38 -354.11)"/><path class="cls-4" d="M294.35,394.11a.39.39,0,0,0,0,.73l2.1,1.22a1.42,1.42,0,0,0,1.27,0l2.11-1.22a.39.39,0,0,0,0-.73l-2.11-1.21a1.36,1.36,0,0,0-1.27,0Z" transform="translate(-235.38 -354.11)"/><path class="cls-3" d="M299,397.27c-.12.06-.26-.08-.26-.08v.44a.43.43,0,0,0,.26.37l2.1,1.22a1.42,1.42,0,0,0,1.27,0l2.11-1.22a.45.45,0,0,0,.26-.37v-.44s-.15.14-.26.08l-2.11-1.22a1.42,1.42,0,0,0-1.27,0Z" transform="translate(-235.38 -354.11)"/><path class="cls-4" d="M299,396.82a.39.39,0,0,0,0,.73l2.1,1.22a1.42,1.42,0,0,0,1.27,0l2.11-1.22a.39.39,0,0,0,0-.73l-2.11-1.22a1.42,1.42,0,0,0-1.27,0Z" transform="translate(-235.38 -354.11)"/><path class="cls-3" d="M303.71,400c-.11.06-.26-.08-.26-.08v.44a.45.45,0,0,0,.26.37l2.11,1.22a1.42,1.42,0,0,0,1.27,0l2.1-1.22a.43.43,0,0,0,.26-.37v-.44s-.15.14-.26.08l-2.1-1.22a1.42,1.42,0,0,0-1.27,0Z" transform="translate(-235.38 -354.11)"/><path class="cls-4" d="M303.71,399.53a.39.39,0,0,0,0,.73l2.11,1.22a1.42,1.42,0,0,0,1.27,0l2.1-1.22a.39.39,0,0,0,0-.73l-2.1-1.22a1.42,1.42,0,0,0-1.27,0Z" transform="translate(-235.38 -354.11)"/><path class="cls-3" d="M308.39,402.69c-.11.06-.26-.09-.26-.09v.45a.45.45,0,0,0,.26.37l2.11,1.21a1.36,1.36,0,0,0,1.27,0l2.1-1.21a.44.44,0,0,0,.27-.37v-.45s-.16.15-.27.09l-2.1-1.22a1.42,1.42,0,0,0-1.27,0Z" transform="translate(-235.38 -354.11)"/><path class="cls-4" d="M308.39,402.24a.39.39,0,0,0,0,.73l2.11,1.22a1.42,1.42,0,0,0,1.27,0l2.1-1.22a.39.39,0,0,0,0-.73l-2.1-1.22a1.42,1.42,0,0,0-1.27,0Z" transform="translate(-235.38 -354.11)"/><path class="cls-3" d="M313.08,405.39c-.12.07-.27-.08-.27-.08v.45a.45.45,0,0,0,.27.37l2.1,1.21a1.36,1.36,0,0,0,1.27,0l2.11-1.21a.46.46,0,0,0,.26-.37v-.45s-.16.15-.26.08l-2.11-1.21a1.42,1.42,0,0,0-1.27,0Z" transform="translate(-235.38 -354.11)"/><path class="cls-4" d="M313.08,405a.39.39,0,0,0,0,.73l2.1,1.22a1.42,1.42,0,0,0,1.27,0l2.11-1.22a.39.39,0,0,0,0-.73l-2.11-1.22a1.42,1.42,0,0,0-1.27,0Z" transform="translate(-235.38 -354.11)"/><path class="cls-3" d="M322.44,410.79c-.11.07-.26-.08-.26-.08v.45a.45.45,0,0,0,.26.36l2.11,1.22a1.42,1.42,0,0,0,1.27,0l2.1-1.22a.43.43,0,0,0,.26-.36v-.45s-.15.14-.26.08l-2.1-1.21a1.36,1.36,0,0,0-1.27,0Z" transform="translate(-235.38 -354.11)"/><path class="cls-4" d="M322.44,410.34c-.35.21-.35.54,0,.74l2.11,1.21a1.42,1.42,0,0,0,1.27,0l2.1-1.21c.35-.2.35-.53,0-.74l-2.1-1.21a1.42,1.42,0,0,0-1.27,0Z" transform="translate(-235.38 -354.11)"/><path class="cls-3" d="M317.76,408.4c-.12.07-.26-.08-.26-.08v.45a.43.43,0,0,0,.26.36l2.1,1.22a1.42,1.42,0,0,0,1.27,0l2.11-1.22a.45.45,0,0,0,.26-.36v-.45s-.15.14-.26.08l-2.11-1.22a1.42,1.42,0,0,0-1.27,0Z" transform="translate(-235.38 -354.11)"/><path class="cls-4" d="M317.76,408c-.35.2-.35.53,0,.74l2.1,1.21a1.42,1.42,0,0,0,1.27,0l2.11-1.21c.35-.21.35-.54,0-.74l-2.11-1.21a1.42,1.42,0,0,0-1.27,0Z" transform="translate(-235.38 -354.11)"/><path class="cls-3" d="M322.44,405.43c-.11.07-.26-.08-.26-.08v.45a.45.45,0,0,0,.26.36l2.11,1.22a1.42,1.42,0,0,0,1.27,0l2.1-1.22a.43.43,0,0,0,.26-.36v-.45s-.15.14-.26.08l-2.1-1.22a1.42,1.42,0,0,0-1.27,0Z" transform="translate(-235.38 -354.11)"/><path class="cls-4" d="M322.44,405c-.35.2-.35.53,0,.74l2.11,1.21a1.42,1.42,0,0,0,1.27,0l2.1-1.21c.35-.21.35-.54,0-.74l-2.1-1.21a1.42,1.42,0,0,0-1.27,0Z" transform="translate(-235.38 -354.11)"/><path class="cls-3" d="M327.12,402.4c-.11.06-.26-.08-.26-.08v.44a.45.45,0,0,0,.26.37l2.11,1.22a1.42,1.42,0,0,0,1.27,0l2.1-1.22a.44.44,0,0,0,.27-.37c0-.05,0-.44,0-.44s-.15.14-.26.08l-2.1-1.22a1.42,1.42,0,0,0-1.27,0Z" transform="translate(-235.38 -354.11)"/><path class="cls-4" d="M327.12,402a.39.39,0,0,0,0,.73l2.11,1.22a1.42,1.42,0,0,0,1.27,0l2.1-1.22a.39.39,0,0,0,0-.73l-2.1-1.22a1.42,1.42,0,0,0-1.27,0Z" transform="translate(-235.38 -354.11)"/><path class="cls-3" d="M327.12,413.5c-.11.07-.26-.08-.26-.08v.45a.45.45,0,0,0,.26.36l2.11,1.22a1.42,1.42,0,0,0,1.27,0l2.1-1.22a.44.44,0,0,0,.27-.36c0-.06,0-.45,0-.45s-.15.14-.26.08l-2.1-1.22a1.42,1.42,0,0,0-1.27,0Z" transform="translate(-235.38 -354.11)"/><path class="cls-4" d="M327.12,413.05c-.35.2-.35.53,0,.74l2.11,1.21a1.42,1.42,0,0,0,1.27,0l2.1-1.21c.35-.21.35-.54,0-.74l-2.1-1.21a1.42,1.42,0,0,0-1.27,0Z" transform="translate(-235.38 -354.11)"/><path class="cls-3" d="M331.81,416.21c-.12.07-.27-.08-.27-.08v.45a.44.44,0,0,0,.27.36l2.1,1.22a1.42,1.42,0,0,0,1.27,0l2.11-1.22a.45.45,0,0,0,.26-.36v-.45s-.16.14-.26.08L335.18,415a1.42,1.42,0,0,0-1.27,0Z" transform="translate(-235.38 -354.11)"/><path class="cls-4" d="M331.81,415.76a.39.39,0,0,0,0,.73l2.1,1.22a1.42,1.42,0,0,0,1.27,0l2.11-1.22a.39.39,0,0,0,0-.73l-2.11-1.21a1.36,1.36,0,0,0-1.27,0Z" transform="translate(-235.38 -354.11)"/><path class="cls-3" d="M336.49,418.92c-.12.06-.26-.08-.26-.08v.44a.43.43,0,0,0,.26.37l2.1,1.22a1.42,1.42,0,0,0,1.27,0l2.11-1.22a.45.45,0,0,0,.26-.36v-.45s-.16.14-.26.08l-2.11-1.22a1.42,1.42,0,0,0-1.27,0Z" transform="translate(-235.38 -354.11)"/><path class="cls-4" d="M336.49,418.47a.39.39,0,0,0,0,.73l2.1,1.22a1.42,1.42,0,0,0,1.27,0L342,419.2a.39.39,0,0,0,0-.73l-2.11-1.21a1.36,1.36,0,0,0-1.27,0Z" transform="translate(-235.38 -354.11)"/><path class="cls-3" d="M341.17,421.63c-.11.06-.26-.08-.26-.08V422a.45.45,0,0,0,.26.37l2.11,1.22a1.42,1.42,0,0,0,1.27,0l2.1-1.22a.45.45,0,0,0,.26-.37v-.44s-.15.14-.26.08l-2.1-1.22a1.42,1.42,0,0,0-1.27,0Z" transform="translate(-235.38 -354.11)"/><path class="cls-4" d="M341.17,421.18a.39.39,0,0,0,0,.73l2.11,1.22a1.42,1.42,0,0,0,1.27,0l2.1-1.22a.39.39,0,0,0,0-.73l-2.1-1.22a1.42,1.42,0,0,0-1.27,0Z" transform="translate(-235.38 -354.11)"/><path class="cls-3" d="M261.57,370.05c-.11.06-.26-.08-.26-.08v.44a.45.45,0,0,0,.26.37l2.11,1.22a1.42,1.42,0,0,0,1.27,0l2.1-1.22a.43.43,0,0,0,.26-.37V370s-.15.14-.26.08l-2.1-1.22a1.42,1.42,0,0,0-1.27,0Z" transform="translate(-235.38 -354.11)"/><path class="cls-4" d="M261.57,369.6a.39.39,0,0,0,0,.73l2.11,1.22a1.42,1.42,0,0,0,1.27,0l2.1-1.22a.39.39,0,0,0,0-.73l-2.1-1.22a1.42,1.42,0,0,0-1.27,0Z" transform="translate(-235.38 -354.11)"/><path class="cls-3" d="M266.25,372.76c-.11.06-.26-.08-.26-.08v.44a.45.45,0,0,0,.26.37l2.11,1.21a1.36,1.36,0,0,0,1.27,0l2.1-1.21a.44.44,0,0,0,.27-.37v-.44s-.16.14-.27.08l-2.1-1.22a1.42,1.42,0,0,0-1.27,0Z" transform="translate(-235.38 -354.11)"/><path class="cls-4" d="M266.25,372.31a.39.39,0,0,0,0,.73l2.11,1.22a1.42,1.42,0,0,0,1.27,0l2.1-1.22a.39.39,0,0,0,0-.73l-2.1-1.22a1.42,1.42,0,0,0-1.27,0Z" transform="translate(-235.38 -354.11)"/><path class="cls-3" d="M270.94,375.47c-.12.06-.27-.09-.27-.09v.45a.45.45,0,0,0,.27.37l2.1,1.21a1.36,1.36,0,0,0,1.27,0l2.11-1.21a.45.45,0,0,0,.26-.37v-.45s-.16.15-.26.09l-2.11-1.22a1.42,1.42,0,0,0-1.27,0Z" transform="translate(-235.38 -354.11)"/><path class="cls-4" d="M270.94,375a.39.39,0,0,0,0,.73L273,377a1.42,1.42,0,0,0,1.27,0l2.11-1.22a.39.39,0,0,0,0-.73l-2.11-1.22a1.42,1.42,0,0,0-1.27,0Z" transform="translate(-235.38 -354.11)"/><path class="cls-3" d="M275.62,378.17c-.12.07-.26-.08-.26-.08v.45a.44.44,0,0,0,.26.37l2.1,1.21a1.42,1.42,0,0,0,1.27,0l2.11-1.21a.46.46,0,0,0,.26-.37v-.45s-.16.15-.26.08L279,377a1.42,1.42,0,0,0-1.27,0Z" transform="translate(-235.38 -354.11)"/><path class="cls-4" d="M275.62,377.73a.39.39,0,0,0,0,.73l2.1,1.22a1.42,1.42,0,0,0,1.27,0l2.11-1.22a.39.39,0,0,0,0-.73L279,376.51a1.42,1.42,0,0,0-1.27,0Z" transform="translate(-235.38 -354.11)"/><path class="cls-3" d="M280.3,380.88c-.11.07-.26-.08-.26-.08v.45a.46.46,0,0,0,.26.37l2.11,1.21a1.42,1.42,0,0,0,1.27,0l2.1-1.21a.44.44,0,0,0,.26-.37v-.45s-.15.15-.26.08l-2.1-1.21a1.42,1.42,0,0,0-1.27,0Z" transform="translate(-235.38 -354.11)"/><path class="cls-4" d="M280.3,380.44a.39.39,0,0,0,0,.73l2.11,1.21a1.36,1.36,0,0,0,1.27,0l2.1-1.21a.39.39,0,0,0,0-.73l-2.1-1.22a1.42,1.42,0,0,0-1.27,0Z" transform="translate(-235.38 -354.11)"/><path class="cls-3" d="M285,383.59c-.11.07-.26-.08-.26-.08V384a.46.46,0,0,0,.26.37l2.11,1.21a1.42,1.42,0,0,0,1.27,0l2.1-1.21a.44.44,0,0,0,.26-.37v-.45s-.15.14-.26.08l-2.1-1.21a1.42,1.42,0,0,0-1.27,0Z" transform="translate(-235.38 -354.11)"/><path class="cls-4" d="M285,383.15a.39.39,0,0,0,0,.73l2.11,1.21a1.36,1.36,0,0,0,1.27,0l2.1-1.21a.39.39,0,0,0,0-.73l-2.1-1.22a1.42,1.42,0,0,0-1.27,0Z" transform="translate(-235.38 -354.11)"/><path class="cls-3" d="M289.67,386.3c-.12.07-.27-.08-.27-.08v.45a.47.47,0,0,0,.27.37l2.1,1.21a1.42,1.42,0,0,0,1.27,0l2.11-1.21a.47.47,0,0,0,.26-.37v-.45s-.16.14-.26.08L293,385.09a1.36,1.36,0,0,0-1.27,0Z" transform="translate(-235.38 -354.11)"/><path class="cls-4" d="M289.67,385.85c-.35.21-.35.54,0,.74l2.1,1.21a1.42,1.42,0,0,0,1.27,0l2.11-1.21a.4.4,0,0,0,0-.74L293,384.64a1.42,1.42,0,0,0-1.27,0Z" transform="translate(-235.38 -354.11)"/><path class="cls-3" d="M294.35,389c-.12.07-.26-.08-.26-.08v.45a.43.43,0,0,0,.26.36l2.1,1.22a1.42,1.42,0,0,0,1.27,0l2.11-1.22a.45.45,0,0,0,.26-.36v-.45s-.16.14-.26.08l-2.11-1.21a1.36,1.36,0,0,0-1.27,0Z" transform="translate(-235.38 -354.11)"/><path class="cls-4" d="M294.35,388.56c-.35.21-.35.54,0,.74l2.1,1.21a1.42,1.42,0,0,0,1.27,0l2.11-1.21c.35-.2.35-.53,0-.74l-2.11-1.21a1.42,1.42,0,0,0-1.27,0Z" transform="translate(-235.38 -354.11)"/><path class="cls-3" d="M299,391.72c-.12.07-.26-.08-.26-.08v.45a.43.43,0,0,0,.26.36l2.1,1.22a1.42,1.42,0,0,0,1.27,0l2.11-1.22a.45.45,0,0,0,.26-.36v-.45s-.15.14-.26.08l-2.11-1.22a1.42,1.42,0,0,0-1.27,0Z" transform="translate(-235.38 -354.11)"/><path class="cls-4" d="M299,391.27c-.35.2-.35.53,0,.74l2.1,1.21a1.42,1.42,0,0,0,1.27,0l2.11-1.21c.35-.21.35-.54,0-.74l-2.11-1.21a1.42,1.42,0,0,0-1.27,0Z" transform="translate(-235.38 -354.11)"/><path class="cls-3" d="M303.71,394.43c-.11.07-.26-.08-.26-.08v.45a.45.45,0,0,0,.26.36l2.11,1.22a1.42,1.42,0,0,0,1.27,0l2.1-1.22a.43.43,0,0,0,.26-.36v-.45s-.15.14-.26.08l-2.1-1.22a1.42,1.42,0,0,0-1.27,0Z" transform="translate(-235.38 -354.11)"/><path class="cls-4" d="M303.71,394a.39.39,0,0,0,0,.73l2.11,1.22a1.42,1.42,0,0,0,1.27,0l2.1-1.22a.39.39,0,0,0,0-.73l-2.1-1.21a1.36,1.36,0,0,0-1.27,0Z" transform="translate(-235.38 -354.11)"/><path class="cls-3" d="M308.39,397.14c-.11.06-.26-.08-.26-.08v.44a.45.45,0,0,0,.26.37l2.11,1.22a1.42,1.42,0,0,0,1.27,0l2.1-1.22a.44.44,0,0,0,.27-.36v-.45s-.16.14-.27.08l-2.1-1.22a1.42,1.42,0,0,0-1.27,0Z" transform="translate(-235.38 -354.11)"/><path class="cls-4" d="M308.39,396.69a.39.39,0,0,0,0,.73l2.11,1.22a1.42,1.42,0,0,0,1.27,0l2.1-1.22a.39.39,0,0,0,0-.73l-2.1-1.21a1.36,1.36,0,0,0-1.27,0Z" transform="translate(-235.38 -354.11)"/><path class="cls-3" d="M313.08,399.85c-.12.06-.27-.08-.27-.08v.44a.44.44,0,0,0,.27.37l2.1,1.22a1.42,1.42,0,0,0,1.27,0l2.11-1.22a.45.45,0,0,0,.26-.37v-.44s-.16.14-.26.08l-2.11-1.22a1.42,1.42,0,0,0-1.27,0Z" transform="translate(-235.38 -354.11)"/><path class="cls-4" d="M313.08,399.4a.39.39,0,0,0,0,.73l2.1,1.22a1.42,1.42,0,0,0,1.27,0l2.11-1.22a.39.39,0,0,0,0-.73l-2.11-1.22a1.42,1.42,0,0,0-1.27,0Z" transform="translate(-235.38 -354.11)"/><path class="cls-3" d="M317.76,402.56c-.12.06-.26-.08-.26-.08v.44a.43.43,0,0,0,.26.37l2.1,1.21a1.36,1.36,0,0,0,1.27,0l2.11-1.21a.45.45,0,0,0,.26-.37v-.44s-.15.14-.26.08l-2.11-1.22a1.42,1.42,0,0,0-1.27,0Z" transform="translate(-235.38 -354.11)"/><path class="cls-4" d="M317.76,402.11a.39.39,0,0,0,0,.73l2.1,1.22a1.42,1.42,0,0,0,1.27,0l2.11-1.22a.39.39,0,0,0,0-.73l-2.11-1.22a1.42,1.42,0,0,0-1.27,0Z" transform="translate(-235.38 -354.11)"/><path class="cls-3" d="M327.12,408c-.11.07-.26-.08-.26-.08v.45a.47.47,0,0,0,.26.37l2.11,1.21a1.42,1.42,0,0,0,1.27,0l2.1-1.21a.47.47,0,0,0,.27-.37c0-.05,0-.45,0-.45s-.15.14-.26.08l-2.1-1.21a1.42,1.42,0,0,0-1.27,0Z" transform="translate(-235.38 -354.11)"/><path class="cls-4" d="M327.12,407.5c-.35.21-.35.54,0,.74l2.11,1.21a1.36,1.36,0,0,0,1.27,0l2.1-1.21c.35-.2.35-.53,0-.74l-2.1-1.21a1.42,1.42,0,0,0-1.27,0Z" transform="translate(-235.38 -354.11)"/><path class="cls-3" d="M331.81,410.66c-.12.07-.27-.08-.27-.08V411a.44.44,0,0,0,.27.36l2.1,1.22a1.42,1.42,0,0,0,1.27,0l2.11-1.22a.45.45,0,0,0,.26-.36v-.45s-.16.14-.26.08l-2.11-1.21a1.36,1.36,0,0,0-1.27,0Z" transform="translate(-235.38 -354.11)"/><path class="cls-4" d="M331.81,410.21c-.35.21-.35.54,0,.74l2.1,1.21a1.42,1.42,0,0,0,1.27,0l2.11-1.21a.4.4,0,0,0,0-.74L335.18,409a1.42,1.42,0,0,0-1.27,0Z" transform="translate(-235.38 -354.11)"/><path class="cls-3" d="M336.49,413.37c-.12.07-.26-.08-.26-.08v.45a.43.43,0,0,0,.26.36l2.1,1.22a1.42,1.42,0,0,0,1.27,0L342,414.1a.45.45,0,0,0,.26-.36v-.45s-.16.14-.26.08l-2.11-1.21a1.36,1.36,0,0,0-1.27,0Z" transform="translate(-235.38 -354.11)"/><path class="cls-4" d="M336.49,412.92c-.35.2-.35.53,0,.74l2.1,1.21a1.42,1.42,0,0,0,1.27,0l2.11-1.21c.35-.21.35-.54,0-.74l-2.11-1.21a1.42,1.42,0,0,0-1.27,0Z" transform="translate(-235.38 -354.11)"/><path class="cls-3" d="M341.17,416.08c-.11.07-.26-.08-.26-.08v.45a.45.45,0,0,0,.26.36l2.11,1.22a1.42,1.42,0,0,0,1.27,0l2.1-1.22a.45.45,0,0,0,.26-.36V416s-.15.14-.26.08l-2.1-1.22a1.42,1.42,0,0,0-1.27,0Z" transform="translate(-235.38 -354.11)"/><path class="cls-4" d="M341.17,415.63c-.35.2-.35.53,0,.74l2.11,1.21a1.42,1.42,0,0,0,1.27,0l2.1-1.21c.35-.21.35-.54,0-.74l-2.1-1.21a1.42,1.42,0,0,0-1.27,0Z" transform="translate(-235.38 -354.11)"/><path class="cls-3" d="M345.85,418.79c-.11.06-.26-.08-.26-.08v.45a.45.45,0,0,0,.26.36l2.11,1.22a1.42,1.42,0,0,0,1.27,0l2.1-1.22a.43.43,0,0,0,.26-.36v-.45s-.15.14-.26.08l-2.1-1.22a1.42,1.42,0,0,0-1.27,0Z" transform="translate(-235.38 -354.11)"/><path class="cls-4" d="M345.85,418.34a.39.39,0,0,0,0,.73l2.11,1.22a1.42,1.42,0,0,0,1.27,0l2.1-1.22a.39.39,0,0,0,0-.73l-2.1-1.21a1.36,1.36,0,0,0-1.27,0Z" transform="translate(-235.38 -354.11)"/><path class="cls-3" d="M266.25,367.21c-.11.06-.26-.08-.26-.08v.45a.45.45,0,0,0,.26.36l2.11,1.22a1.42,1.42,0,0,0,1.27,0l2.1-1.22a.44.44,0,0,0,.27-.36v-.45s-.16.14-.27.08l-2.1-1.22a1.42,1.42,0,0,0-1.27,0Z" transform="translate(-235.38 -354.11)"/><path class="cls-4" d="M266.25,366.76a.39.39,0,0,0,0,.73l2.11,1.22a1.42,1.42,0,0,0,1.27,0l2.1-1.22a.39.39,0,0,0,0-.73l-2.1-1.21a1.36,1.36,0,0,0-1.27,0Z" transform="translate(-235.38 -354.11)"/><path class="cls-3" d="M270.94,369.92c-.12.06-.27-.08-.27-.08v.44a.44.44,0,0,0,.27.37l2.1,1.22a1.42,1.42,0,0,0,1.27,0l2.11-1.22a.45.45,0,0,0,.26-.37v-.44s-.16.14-.26.08l-2.11-1.22a1.42,1.42,0,0,0-1.27,0Z" transform="translate(-235.38 -354.11)"/><path class="cls-4" d="M270.94,369.47a.39.39,0,0,0,0,.73l2.1,1.22a1.42,1.42,0,0,0,1.27,0l2.11-1.22a.39.39,0,0,0,0-.73l-2.11-1.21a1.36,1.36,0,0,0-1.27,0Z" transform="translate(-235.38 -354.11)"/><path class="cls-3" d="M275.62,372.63c-.12.06-.26-.08-.26-.08V373a.43.43,0,0,0,.26.37l2.1,1.22a1.42,1.42,0,0,0,1.27,0l2.11-1.22a.45.45,0,0,0,.26-.37v-.44s-.16.14-.26.08L279,371.41a1.42,1.42,0,0,0-1.27,0Z" transform="translate(-235.38 -354.11)"/><path class="cls-4" d="M275.62,372.18a.39.39,0,0,0,0,.73l2.1,1.22a1.42,1.42,0,0,0,1.27,0l2.11-1.22a.39.39,0,0,0,0-.73L279,371a1.42,1.42,0,0,0-1.27,0Z" transform="translate(-235.38 -354.11)"/><path class="cls-3" d="M280.3,375.34c-.11.06-.26-.08-.26-.08v.44a.45.45,0,0,0,.26.37l2.11,1.21a1.36,1.36,0,0,0,1.27,0l2.1-1.21a.43.43,0,0,0,.26-.37v-.44s-.15.14-.26.08l-2.1-1.22a1.42,1.42,0,0,0-1.27,0Z" transform="translate(-235.38 -354.11)"/><path class="cls-4" d="M280.3,374.89a.39.39,0,0,0,0,.73l2.11,1.22a1.42,1.42,0,0,0,1.27,0l2.1-1.22a.39.39,0,0,0,0-.73l-2.1-1.22a1.42,1.42,0,0,0-1.27,0Z" transform="translate(-235.38 -354.11)"/><path class="cls-3" d="M285,378c-.11.07-.26-.08-.26-.08v.45a.46.46,0,0,0,.26.37l2.11,1.21a1.36,1.36,0,0,0,1.27,0l2.1-1.21a.44.44,0,0,0,.26-.37V378s-.15.15-.26.08l-2.1-1.21a1.42,1.42,0,0,0-1.27,0Z" transform="translate(-235.38 -354.11)"/><path class="cls-4" d="M285,377.6a.39.39,0,0,0,0,.73l2.11,1.22a1.42,1.42,0,0,0,1.27,0l2.1-1.22a.39.39,0,0,0,0-.73l-2.1-1.22a1.42,1.42,0,0,0-1.27,0Z" transform="translate(-235.38 -354.11)"/><path class="cls-3" d="M289.67,380.75c-.12.07-.27-.08-.27-.08v.45a.45.45,0,0,0,.27.37l2.1,1.21a1.42,1.42,0,0,0,1.27,0l2.11-1.21a.46.46,0,0,0,.26-.37v-.45s-.16.15-.26.08L293,379.54a1.42,1.42,0,0,0-1.27,0Z" transform="translate(-235.38 -354.11)"/><path class="cls-4" d="M289.67,380.31a.39.39,0,0,0,0,.73l2.1,1.22a1.42,1.42,0,0,0,1.27,0l2.11-1.22a.39.39,0,0,0,0-.73L293,379.09a1.42,1.42,0,0,0-1.27,0Z" transform="translate(-235.38 -354.11)"/><path class="cls-3" d="M294.35,383.46c-.12.07-.26-.08-.26-.08v.45a.44.44,0,0,0,.26.37l2.1,1.21a1.42,1.42,0,0,0,1.27,0l2.11-1.21a.46.46,0,0,0,.26-.37v-.45s-.16.14-.26.08l-2.11-1.21a1.42,1.42,0,0,0-1.27,0Z" transform="translate(-235.38 -354.11)"/><path class="cls-4" d="M294.35,383a.39.39,0,0,0,0,.73l2.1,1.21a1.36,1.36,0,0,0,1.27,0l2.11-1.21a.39.39,0,0,0,0-.73l-2.11-1.22a1.42,1.42,0,0,0-1.27,0Z" transform="translate(-235.38 -354.11)"/><path class="cls-3" d="M299,386.17c-.12.07-.26-.08-.26-.08v.45a.45.45,0,0,0,.26.37l2.1,1.21a1.42,1.42,0,0,0,1.27,0l2.11-1.21a.47.47,0,0,0,.26-.37v-.45s-.15.14-.26.08L302.4,385a1.42,1.42,0,0,0-1.27,0Z" transform="translate(-235.38 -354.11)"/><path class="cls-4" d="M299,385.72c-.35.21-.35.54,0,.74l2.1,1.21a1.36,1.36,0,0,0,1.27,0l2.11-1.21c.35-.2.35-.53,0-.74l-2.11-1.21a1.42,1.42,0,0,0-1.27,0Z" transform="translate(-235.38 -354.11)"/><path class="cls-3" d="M303.71,388.88c-.11.07-.26-.08-.26-.08v.45a.45.45,0,0,0,.26.36l2.11,1.22a1.42,1.42,0,0,0,1.27,0l2.1-1.22a.43.43,0,0,0,.26-.36v-.45s-.15.14-.26.08l-2.1-1.21a1.36,1.36,0,0,0-1.27,0Z" transform="translate(-235.38 -354.11)"/><path class="cls-4" d="M303.71,388.43c-.35.21-.35.54,0,.74l2.11,1.21a1.42,1.42,0,0,0,1.27,0l2.1-1.21c.35-.2.35-.53,0-.74l-2.1-1.21a1.42,1.42,0,0,0-1.27,0Z" transform="translate(-235.38 -354.11)"/><path class="cls-3" d="M308.39,391.59c-.11.07-.26-.08-.26-.08V392a.45.45,0,0,0,.26.36l2.11,1.22a1.42,1.42,0,0,0,1.27,0l2.1-1.22a.44.44,0,0,0,.27-.36v-.45s-.16.14-.27.08l-2.1-1.21a1.36,1.36,0,0,0-1.27,0Z" transform="translate(-235.38 -354.11)"/><path class="cls-4" d="M308.39,391.14c-.35.2-.35.53,0,.74l2.11,1.21a1.42,1.42,0,0,0,1.27,0l2.1-1.21c.35-.21.35-.54,0-.74l-2.1-1.21a1.42,1.42,0,0,0-1.27,0Z" transform="translate(-235.38 -354.11)"/><path class="cls-3" d="M313.08,394.3c-.12.07-.27-.08-.27-.08v.45a.44.44,0,0,0,.27.36l2.1,1.22a1.42,1.42,0,0,0,1.27,0l2.11-1.22a.45.45,0,0,0,.26-.36v-.45s-.16.14-.26.08l-2.11-1.22a1.42,1.42,0,0,0-1.27,0Z" transform="translate(-235.38 -354.11)"/><path class="cls-4" d="M313.08,393.85c-.35.2-.35.53,0,.74l2.1,1.21a1.42,1.42,0,0,0,1.27,0l2.11-1.21c.35-.21.35-.54,0-.74l-2.11-1.21a1.42,1.42,0,0,0-1.27,0Z" transform="translate(-235.38 -354.11)"/><path class="cls-3" d="M317.76,397c-.12.06-.26-.08-.26-.08v.44a.43.43,0,0,0,.26.37l2.1,1.22a1.42,1.42,0,0,0,1.27,0l2.11-1.22a.45.45,0,0,0,.26-.36v-.45s-.15.14-.26.08l-2.11-1.22a1.42,1.42,0,0,0-1.27,0Z" transform="translate(-235.38 -354.11)"/><path class="cls-4" d="M317.76,396.56a.39.39,0,0,0,0,.73l2.1,1.22a1.42,1.42,0,0,0,1.27,0l2.11-1.22a.39.39,0,0,0,0-.73l-2.11-1.21a1.36,1.36,0,0,0-1.27,0Z" transform="translate(-235.38 -354.11)"/><path class="cls-3" d="M322.44,399.72c-.11.06-.26-.08-.26-.08v.44a.45.45,0,0,0,.26.37l2.11,1.22a1.42,1.42,0,0,0,1.27,0l2.1-1.22a.43.43,0,0,0,.26-.37v-.44s-.15.14-.26.08l-2.1-1.22a1.42,1.42,0,0,0-1.27,0Z" transform="translate(-235.38 -354.11)"/><path class="cls-4" d="M322.44,399.27a.39.39,0,0,0,0,.73l2.11,1.22a1.42,1.42,0,0,0,1.27,0l2.1-1.22a.39.39,0,0,0,0-.73l-2.1-1.22a1.42,1.42,0,0,0-1.27,0Z" transform="translate(-235.38 -354.11)"/><path class="cls-3" d="M331.81,405.11c-.12.07-.27-.08-.27-.08v.45a.45.45,0,0,0,.27.37l2.1,1.21a1.42,1.42,0,0,0,1.27,0l2.11-1.21a.46.46,0,0,0,.26-.37V405s-.16.15-.26.08l-2.11-1.21a1.42,1.42,0,0,0-1.27,0Z" transform="translate(-235.38 -354.11)"/><path class="cls-4" d="M331.81,404.67a.39.39,0,0,0,0,.73l2.1,1.21a1.36,1.36,0,0,0,1.27,0l2.11-1.21a.39.39,0,0,0,0-.73l-2.11-1.22a1.42,1.42,0,0,0-1.27,0Z" transform="translate(-235.38 -354.11)"/><path class="cls-3" d="M336.49,407.82c-.12.07-.26-.08-.26-.08v.45a.44.44,0,0,0,.26.37l2.1,1.21a1.42,1.42,0,0,0,1.27,0l2.11-1.21a.46.46,0,0,0,.26-.37v-.45s-.16.14-.26.08l-2.11-1.21a1.42,1.42,0,0,0-1.27,0Z" transform="translate(-235.38 -354.11)"/><path class="cls-4" d="M336.49,407.38a.39.39,0,0,0,0,.73l2.1,1.21a1.36,1.36,0,0,0,1.27,0l2.11-1.21a.39.39,0,0,0,0-.73l-2.11-1.22a1.42,1.42,0,0,0-1.27,0Z" transform="translate(-235.38 -354.11)"/><path class="cls-3" d="M341.17,410.53c-.11.07-.26-.08-.26-.08v.45a.47.47,0,0,0,.26.37l2.11,1.21a1.42,1.42,0,0,0,1.27,0l2.1-1.21a.47.47,0,0,0,.26-.37v-.45s-.15.14-.26.08l-2.1-1.21a1.36,1.36,0,0,0-1.27,0Z" transform="translate(-235.38 -354.11)"/><path class="cls-4" d="M341.17,410.08c-.35.21-.35.54,0,.74l2.11,1.21a1.42,1.42,0,0,0,1.27,0l2.1-1.21c.35-.2.35-.53,0-.74l-2.1-1.21a1.42,1.42,0,0,0-1.27,0Z" transform="translate(-235.38 -354.11)"/><path class="cls-3" d="M345.85,413.24c-.11.07-.26-.08-.26-.08v.45a.45.45,0,0,0,.26.36l2.11,1.22a1.42,1.42,0,0,0,1.27,0l2.1-1.22a.43.43,0,0,0,.26-.36v-.45s-.15.14-.26.08l-2.1-1.21a1.36,1.36,0,0,0-1.27,0Z" transform="translate(-235.38 -354.11)"/><path class="cls-4" d="M345.85,412.79c-.35.21-.35.54,0,.74l2.11,1.21a1.42,1.42,0,0,0,1.27,0l2.1-1.21c.35-.2.35-.53,0-.74l-2.1-1.21a1.42,1.42,0,0,0-1.27,0Z" transform="translate(-235.38 -354.11)"/><path class="cls-3" d="M350.53,416c-.11.07-.26-.08-.26-.08v.45a.45.45,0,0,0,.26.36l2.11,1.22a1.42,1.42,0,0,0,1.27,0l2.1-1.22a.44.44,0,0,0,.27-.36v-.45s-.16.14-.27.08l-2.1-1.22a1.42,1.42,0,0,0-1.27,0Z" transform="translate(-235.38 -354.11)"/><path class="cls-4" d="M350.53,415.5a.4.4,0,0,0,0,.74l2.11,1.21a1.42,1.42,0,0,0,1.27,0l2.1-1.21c.35-.21.35-.54,0-.74l-2.1-1.21a1.42,1.42,0,0,0-1.27,0Z" transform="translate(-235.38 -354.11)"/><path class="cls-3" d="M270.94,364.37c-.12.07-.27-.08-.27-.08v.45a.44.44,0,0,0,.27.36l2.1,1.22a1.42,1.42,0,0,0,1.27,0l2.11-1.22a.45.45,0,0,0,.26-.36v-.45s-.16.14-.26.08l-2.11-1.22a1.42,1.42,0,0,0-1.27,0Z" transform="translate(-235.38 -354.11)"/><path class="cls-4" d="M270.94,363.92c-.35.2-.35.53,0,.74l2.1,1.21a1.42,1.42,0,0,0,1.27,0l2.11-1.21c.35-.21.35-.54,0-.74l-2.11-1.21a1.42,1.42,0,0,0-1.27,0Z" transform="translate(-235.38 -354.11)"/><path class="cls-3" d="M275.62,367.08c-.12.07-.26-.08-.26-.08v.45a.43.43,0,0,0,.26.36l2.1,1.22a1.42,1.42,0,0,0,1.27,0l2.11-1.22a.45.45,0,0,0,.26-.36V367s-.16.14-.26.08L279,365.86a1.42,1.42,0,0,0-1.27,0Z" transform="translate(-235.38 -354.11)"/><path class="cls-4" d="M275.62,366.63c-.35.2-.35.53,0,.74l2.1,1.21a1.42,1.42,0,0,0,1.27,0l2.11-1.21c.35-.21.35-.54,0-.74L279,365.42a1.36,1.36,0,0,0-1.27,0Z" transform="translate(-235.38 -354.11)"/><path class="cls-3" d="M280.3,369.79c-.11.06-.26-.08-.26-.08v.44a.45.45,0,0,0,.26.37l2.11,1.22a1.42,1.42,0,0,0,1.27,0l2.1-1.22a.43.43,0,0,0,.26-.36v-.45s-.15.14-.26.08l-2.1-1.22a1.42,1.42,0,0,0-1.27,0Z" transform="translate(-235.38 -354.11)"/><path class="cls-4" d="M280.3,369.34a.39.39,0,0,0,0,.73l2.11,1.22a1.42,1.42,0,0,0,1.27,0l2.1-1.22a.39.39,0,0,0,0-.73l-2.1-1.21a1.36,1.36,0,0,0-1.27,0Z" transform="translate(-235.38 -354.11)"/><path class="cls-3" d="M285,372.5c-.11.06-.26-.08-.26-.08v.44a.45.45,0,0,0,.26.37l2.11,1.22a1.42,1.42,0,0,0,1.27,0l2.1-1.22a.43.43,0,0,0,.26-.37v-.44s-.15.14-.26.08l-2.1-1.22a1.42,1.42,0,0,0-1.27,0Z" transform="translate(-235.38 -354.11)"/><path class="cls-4" d="M285,372.05a.39.39,0,0,0,0,.73l2.11,1.22a1.42,1.42,0,0,0,1.27,0l2.1-1.22a.39.39,0,0,0,0-.73l-2.1-1.22a1.42,1.42,0,0,0-1.27,0Z" transform="translate(-235.38 -354.11)"/><path class="cls-3" d="M289.67,375.21c-.12.06-.27-.08-.27-.08v.44a.44.44,0,0,0,.27.37l2.1,1.21a1.36,1.36,0,0,0,1.27,0l2.11-1.21a.45.45,0,0,0,.26-.37v-.44s-.16.14-.26.08L293,374a1.42,1.42,0,0,0-1.27,0Z" transform="translate(-235.38 -354.11)"/><path class="cls-4" d="M289.67,374.76a.39.39,0,0,0,0,.73l2.1,1.22a1.42,1.42,0,0,0,1.27,0l2.11-1.22a.39.39,0,0,0,0-.73L293,373.54a1.42,1.42,0,0,0-1.27,0Z" transform="translate(-235.38 -354.11)"/><path class="cls-3" d="M294.35,377.92c-.12.06-.26-.09-.26-.09v.45a.44.44,0,0,0,.26.37l2.1,1.21a1.36,1.36,0,0,0,1.27,0l2.11-1.21a.45.45,0,0,0,.26-.37v-.45s-.16.15-.26.09l-2.11-1.22a1.42,1.42,0,0,0-1.27,0Z" transform="translate(-235.38 -354.11)"/><path class="cls-4" d="M294.35,377.47a.39.39,0,0,0,0,.73l2.1,1.22a1.42,1.42,0,0,0,1.27,0l2.11-1.22a.39.39,0,0,0,0-.73l-2.11-1.22a1.42,1.42,0,0,0-1.27,0Z" transform="translate(-235.38 -354.11)"/><path class="cls-3" d="M299,380.62c-.12.07-.26-.08-.26-.08V381a.44.44,0,0,0,.26.37l2.1,1.21a1.42,1.42,0,0,0,1.27,0l2.11-1.21a.46.46,0,0,0,.26-.37v-.45s-.15.15-.26.08l-2.11-1.21a1.42,1.42,0,0,0-1.27,0Z" transform="translate(-235.38 -354.11)"/><path class="cls-4" d="M299,380.18a.39.39,0,0,0,0,.73l2.1,1.22a1.42,1.42,0,0,0,1.27,0l2.11-1.22a.39.39,0,0,0,0-.73L302.4,379a1.42,1.42,0,0,0-1.27,0Z" transform="translate(-235.38 -354.11)"/><path class="cls-3" d="M303.71,383.33c-.11.07-.26-.08-.26-.08v.45a.46.46,0,0,0,.26.37l2.11,1.21a1.42,1.42,0,0,0,1.27,0l2.1-1.21a.44.44,0,0,0,.26-.37v-.45s-.15.15-.26.08l-2.1-1.21a1.42,1.42,0,0,0-1.27,0Z" transform="translate(-235.38 -354.11)"/><path class="cls-4" d="M303.71,382.89a.39.39,0,0,0,0,.73l2.11,1.21a1.36,1.36,0,0,0,1.27,0l2.1-1.21a.39.39,0,0,0,0-.73l-2.1-1.22a1.42,1.42,0,0,0-1.27,0Z" transform="translate(-235.38 -354.11)"/><path class="cls-3" d="M308.39,386c-.11.07-.26-.08-.26-.08v.45a.46.46,0,0,0,.26.37L310.5,388a1.42,1.42,0,0,0,1.27,0l2.1-1.21a.45.45,0,0,0,.27-.37V386s-.16.14-.27.08l-2.1-1.21a1.42,1.42,0,0,0-1.27,0Z" transform="translate(-235.38 -354.11)"/><path class="cls-4" d="M308.39,385.6a.39.39,0,0,0,0,.73l2.11,1.21a1.36,1.36,0,0,0,1.27,0l2.1-1.21a.39.39,0,0,0,0-.73l-2.1-1.22a1.42,1.42,0,0,0-1.27,0Z" transform="translate(-235.38 -354.11)"/><path class="cls-3" d="M313.08,388.75c-.12.07-.27-.08-.27-.08v.45a.47.47,0,0,0,.27.37l2.1,1.21a1.42,1.42,0,0,0,1.27,0l2.11-1.21a.47.47,0,0,0,.26-.37v-.45s-.16.14-.26.08l-2.11-1.21a1.36,1.36,0,0,0-1.27,0Z" transform="translate(-235.38 -354.11)"/><path class="cls-4" d="M313.08,388.3c-.35.21-.35.54,0,.74l2.1,1.21a1.42,1.42,0,0,0,1.27,0l2.11-1.21c.35-.2.35-.53,0-.74l-2.11-1.21a1.42,1.42,0,0,0-1.27,0Z" transform="translate(-235.38 -354.11)"/><path class="cls-3" d="M317.76,391.46c-.12.07-.26-.08-.26-.08v.45a.43.43,0,0,0,.26.36l2.1,1.22a1.42,1.42,0,0,0,1.27,0l2.11-1.22a.45.45,0,0,0,.26-.36v-.45s-.15.14-.26.08l-2.11-1.21a1.36,1.36,0,0,0-1.27,0Z" transform="translate(-235.38 -354.11)"/><path class="cls-4" d="M317.76,391c-.35.21-.35.54,0,.74l2.1,1.21a1.42,1.42,0,0,0,1.27,0l2.11-1.21c.35-.2.35-.53,0-.74l-2.11-1.21a1.42,1.42,0,0,0-1.27,0Z" transform="translate(-235.38 -354.11)"/><path class="cls-3" d="M322.44,394.17c-.11.07-.26-.08-.26-.08v.45a.45.45,0,0,0,.26.36l2.11,1.22a1.42,1.42,0,0,0,1.27,0l2.1-1.22a.43.43,0,0,0,.26-.36v-.45s-.15.14-.26.08l-2.1-1.22a1.42,1.42,0,0,0-1.27,0Z" transform="translate(-235.38 -354.11)"/><path class="cls-4" d="M322.44,393.72c-.35.2-.35.53,0,.74l2.11,1.21a1.42,1.42,0,0,0,1.27,0l2.1-1.21c.35-.21.35-.54,0-.74l-2.1-1.21a1.42,1.42,0,0,0-1.27,0Z" transform="translate(-235.38 -354.11)"/><path class="cls-3" d="M327.12,396.88c-.11.07-.26-.08-.26-.08v.45a.45.45,0,0,0,.26.36l2.11,1.22a1.42,1.42,0,0,0,1.27,0l2.1-1.22a.44.44,0,0,0,.27-.36c0-.06,0-.45,0-.45s-.15.14-.26.08l-2.1-1.22a1.42,1.42,0,0,0-1.27,0Z" transform="translate(-235.38 -354.11)"/><path class="cls-4" d="M327.12,396.43a.39.39,0,0,0,0,.73l2.11,1.22a1.42,1.42,0,0,0,1.27,0l2.1-1.22a.39.39,0,0,0,0-.73l-2.1-1.21a1.36,1.36,0,0,0-1.27,0Z" transform="translate(-235.38 -354.11)"/><path class="cls-3" d="M345.85,407.69c-.11.07-.26-.08-.26-.08v.45a.46.46,0,0,0,.26.37l2.11,1.21a1.42,1.42,0,0,0,1.27,0l2.1-1.21a.44.44,0,0,0,.26-.37v-.45s-.15.14-.26.08l-2.1-1.21a1.42,1.42,0,0,0-1.27,0Z" transform="translate(-235.38 -354.11)"/><path class="cls-4" d="M345.85,407.25a.39.39,0,0,0,0,.73l2.11,1.21a1.36,1.36,0,0,0,1.27,0l2.1-1.21a.39.39,0,0,0,0-.73l-2.1-1.22a1.42,1.42,0,0,0-1.27,0Z" transform="translate(-235.38 -354.11)"/><path class="cls-3" d="M350.53,410.4c-.11.07-.26-.08-.26-.08v.45a.47.47,0,0,0,.26.37l2.11,1.21a1.42,1.42,0,0,0,1.27,0l2.1-1.21a.47.47,0,0,0,.27-.37v-.45s-.16.14-.27.08l-2.1-1.21a1.42,1.42,0,0,0-1.27,0Z" transform="translate(-235.38 -354.11)"/><path class="cls-4" d="M350.53,410a.4.4,0,0,0,0,.74l2.11,1.21a1.36,1.36,0,0,0,1.27,0l2.1-1.21c.35-.2.35-.53,0-.74l-2.1-1.21a1.42,1.42,0,0,0-1.27,0Z" transform="translate(-235.38 -354.11)"/><path class="cls-3" d="M355.22,413.11c-.12.07-.27-.08-.27-.08s0,.4,0,.45a.44.44,0,0,0,.27.36l2.1,1.22a1.42,1.42,0,0,0,1.27,0l2.11-1.22a.45.45,0,0,0,.26-.36V413s-.16.14-.26.08l-2.11-1.21a1.36,1.36,0,0,0-1.27,0Z" transform="translate(-235.38 -354.11)"/><path class="cls-4" d="M355.22,412.66c-.35.21-.35.54,0,.74l2.1,1.21a1.42,1.42,0,0,0,1.27,0l2.11-1.21c.35-.2.35-.53,0-.74l-2.11-1.21a1.42,1.42,0,0,0-1.27,0Z" transform="translate(-235.38 -354.11)"/><path class="cls-3" d="M280.3,358.69c-.11.07-.26-.08-.26-.08v.45a.46.46,0,0,0,.26.37l2.11,1.21a1.42,1.42,0,0,0,1.27,0l2.1-1.21a.44.44,0,0,0,.26-.37v-.45s-.15.14-.26.08l-2.1-1.21a1.42,1.42,0,0,0-1.27,0Z" transform="translate(-235.38 -354.11)"/><path class="cls-4" d="M280.3,358.25a.39.39,0,0,0,0,.73l2.11,1.21a1.36,1.36,0,0,0,1.27,0l2.1-1.21a.39.39,0,0,0,0-.73l-2.1-1.22a1.42,1.42,0,0,0-1.27,0Z" transform="translate(-235.38 -354.11)"/><path class="cls-3" d="M285,361.4c-.11.07-.26-.08-.26-.08v.45a.47.47,0,0,0,.26.37l2.11,1.21a1.42,1.42,0,0,0,1.27,0l2.1-1.21a.45.45,0,0,0,.26-.37v-.45s-.15.14-.26.08l-2.1-1.21a1.36,1.36,0,0,0-1.27,0Z" transform="translate(-235.38 -354.11)"/><path class="cls-4" d="M285,361c-.35.21-.35.54,0,.74l2.11,1.21a1.42,1.42,0,0,0,1.27,0l2.1-1.21c.35-.2.35-.53,0-.74l-2.1-1.21a1.42,1.42,0,0,0-1.27,0Z" transform="translate(-235.38 -354.11)"/><path class="cls-3" d="M289.67,364.11c-.12.07-.27-.08-.27-.08v.45a.44.44,0,0,0,.27.36l2.1,1.22a1.42,1.42,0,0,0,1.27,0l2.11-1.22a.45.45,0,0,0,.26-.36V364s-.16.14-.26.08L293,362.9a1.36,1.36,0,0,0-1.27,0Z" transform="translate(-235.38 -354.11)"/><path class="cls-4" d="M289.67,363.66c-.35.21-.35.54,0,.74l2.1,1.21a1.42,1.42,0,0,0,1.27,0l2.11-1.21a.4.4,0,0,0,0-.74L293,362.45a1.42,1.42,0,0,0-1.27,0Z" transform="translate(-235.38 -354.11)"/><path class="cls-3" d="M294.35,366.82c-.12.07-.26-.08-.26-.08v.45a.43.43,0,0,0,.26.36l2.1,1.22a1.42,1.42,0,0,0,1.27,0l2.11-1.22a.45.45,0,0,0,.26-.36v-.45s-.16.14-.26.08l-2.11-1.22a1.42,1.42,0,0,0-1.27,0Z" transform="translate(-235.38 -354.11)"/><path class="cls-4" d="M294.35,366.37c-.35.2-.35.53,0,.74l2.1,1.21a1.42,1.42,0,0,0,1.27,0l2.11-1.21c.35-.21.35-.54,0-.74l-2.11-1.21a1.42,1.42,0,0,0-1.27,0Z" transform="translate(-235.38 -354.11)"/><path class="cls-3" d="M303.71,372.24c-.11.06-.26-.08-.26-.08v.44a.45.45,0,0,0,.26.37l2.11,1.22a1.42,1.42,0,0,0,1.27,0l2.1-1.22a.43.43,0,0,0,.26-.36v-.45s-.15.14-.26.08l-2.1-1.22a1.42,1.42,0,0,0-1.27,0Z" transform="translate(-235.38 -354.11)"/><path class="cls-4" d="M303.71,371.79a.39.39,0,0,0,0,.73l2.11,1.22a1.42,1.42,0,0,0,1.27,0l2.1-1.22a.39.39,0,0,0,0-.73l-2.1-1.21a1.36,1.36,0,0,0-1.27,0Z" transform="translate(-235.38 -354.11)"/><path class="cls-3" d="M308.39,375c-.11.06-.26-.08-.26-.08v.44a.45.45,0,0,0,.26.37l2.11,1.22a1.42,1.42,0,0,0,1.27,0l2.1-1.22a.44.44,0,0,0,.27-.37v-.44s-.16.14-.27.08l-2.1-1.22a1.42,1.42,0,0,0-1.27,0Z" transform="translate(-235.38 -354.11)"/><path class="cls-4" d="M308.39,374.5a.39.39,0,0,0,0,.73l2.11,1.22a1.42,1.42,0,0,0,1.27,0l2.1-1.22a.39.39,0,0,0,0-.73l-2.1-1.22a1.42,1.42,0,0,0-1.27,0Z" transform="translate(-235.38 -354.11)"/><path class="cls-3" d="M313.08,377.66c-.12.06-.27-.08-.27-.08V378a.44.44,0,0,0,.27.37l2.1,1.22a1.42,1.42,0,0,0,1.27,0l2.11-1.22a.45.45,0,0,0,.26-.37v-.44s-.16.14-.26.08l-2.11-1.22a1.42,1.42,0,0,0-1.27,0Z" transform="translate(-235.38 -354.11)"/><path class="cls-4" d="M313.08,377.21a.39.39,0,0,0,0,.73l2.1,1.22a1.42,1.42,0,0,0,1.27,0l2.11-1.22a.39.39,0,0,0,0-.73L316.45,376a1.42,1.42,0,0,0-1.27,0Z" transform="translate(-235.38 -354.11)"/><path class="cls-3" d="M317.76,380.37c-.12.06-.26-.09-.26-.09v.45a.44.44,0,0,0,.26.37l2.1,1.21a1.36,1.36,0,0,0,1.27,0l2.11-1.21a.45.45,0,0,0,.26-.37v-.45s-.15.15-.26.09l-2.11-1.22a1.42,1.42,0,0,0-1.27,0Z" transform="translate(-235.38 -354.11)"/><path class="cls-4" d="M317.76,379.92a.39.39,0,0,0,0,.73l2.1,1.22a1.42,1.42,0,0,0,1.27,0l2.11-1.22a.39.39,0,0,0,0-.73l-2.11-1.22a1.42,1.42,0,0,0-1.27,0Z" transform="translate(-235.38 -354.11)"/><path class="cls-3" d="M327.12,385.78c-.11.07-.26-.08-.26-.08v.45a.46.46,0,0,0,.26.37l2.11,1.21a1.42,1.42,0,0,0,1.27,0l2.1-1.21a.45.45,0,0,0,.27-.37s0-.45,0-.45-.15.15-.26.08l-2.1-1.21a1.42,1.42,0,0,0-1.27,0Z" transform="translate(-235.38 -354.11)"/><path class="cls-4" d="M327.12,385.34a.39.39,0,0,0,0,.73l2.11,1.21a1.36,1.36,0,0,0,1.27,0l2.1-1.21a.39.39,0,0,0,0-.73l-2.1-1.22a1.42,1.42,0,0,0-1.27,0Z" transform="translate(-235.38 -354.11)"/><path class="cls-3" d="M331.81,388.49c-.12.07-.27-.08-.27-.08v.45a.45.45,0,0,0,.27.37l2.1,1.21a1.42,1.42,0,0,0,1.27,0l2.11-1.21a.46.46,0,0,0,.26-.37v-.45s-.16.14-.26.08l-2.11-1.21a1.42,1.42,0,0,0-1.27,0Z" transform="translate(-235.38 -354.11)"/><path class="cls-4" d="M331.81,388.05a.39.39,0,0,0,0,.73l2.1,1.21a1.36,1.36,0,0,0,1.27,0l2.11-1.21a.39.39,0,0,0,0-.73l-2.11-1.22a1.42,1.42,0,0,0-1.27,0Z" transform="translate(-235.38 -354.11)"/><path class="cls-3" d="M336.49,391.2c-.12.07-.26-.08-.26-.08v.45a.45.45,0,0,0,.26.37l2.1,1.21a1.42,1.42,0,0,0,1.27,0l2.11-1.21a.47.47,0,0,0,.26-.37v-.45s-.16.14-.26.08L339.86,390a1.36,1.36,0,0,0-1.27,0Z" transform="translate(-235.38 -354.11)"/><path class="cls-4" d="M336.49,390.75c-.35.21-.35.54,0,.74l2.1,1.21a1.42,1.42,0,0,0,1.27,0l2.11-1.21c.35-.2.35-.53,0-.74l-2.11-1.21a1.42,1.42,0,0,0-1.27,0Z" transform="translate(-235.38 -354.11)"/><path class="cls-3" d="M341.17,394c-.11.06-.26-.08-.26-.08v.44a.45.45,0,0,0,.26.37l2.11,1.21a1.36,1.36,0,0,0,1.27,0l2.1-1.21a.45.45,0,0,0,.26-.37v-.44s-.15.14-.26.08l-2.1-1.22a1.42,1.42,0,0,0-1.27,0Z" transform="translate(-235.38 -354.11)"/><path class="cls-4" d="M341.17,393.5a.39.39,0,0,0,0,.73l2.11,1.22a1.42,1.42,0,0,0,1.27,0l2.1-1.22a.39.39,0,0,0,0-.73l-2.1-1.22a1.42,1.42,0,0,0-1.27,0Z" transform="translate(-235.38 -354.11)"/><path class="cls-3" d="M350.53,399.31c-.11.06-.26-.08-.26-.08v.44a.45.45,0,0,0,.26.37l2.11,1.22a1.42,1.42,0,0,0,1.27,0L356,400a.44.44,0,0,0,.27-.37v-.44s-.16.14-.27.08l-2.1-1.22a1.42,1.42,0,0,0-1.27,0Z" transform="translate(-235.38 -354.11)"/><path class="cls-4" d="M350.53,398.86a.39.39,0,0,0,0,.73l2.11,1.22a1.42,1.42,0,0,0,1.27,0l2.1-1.22a.39.39,0,0,0,0-.73l-2.1-1.22a1.42,1.42,0,0,0-1.27,0Z" transform="translate(-235.38 -354.11)"/><path class="cls-3" d="M355.22,402c-.12.06-.27-.08-.27-.08s0,.4,0,.44a.44.44,0,0,0,.27.37l2.1,1.21a1.36,1.36,0,0,0,1.27,0l2.11-1.21a.45.45,0,0,0,.26-.37v-.44s-.16.14-.26.08l-2.11-1.22a1.42,1.42,0,0,0-1.27,0Z" transform="translate(-235.38 -354.11)"/><path class="cls-4" d="M355.22,401.57a.39.39,0,0,0,0,.73l2.1,1.22a1.42,1.42,0,0,0,1.27,0l2.11-1.22a.39.39,0,0,0,0-.73l-2.11-1.22a1.42,1.42,0,0,0-1.27,0Z" transform="translate(-235.38 -354.11)"/><path class="cls-3" d="M359.9,404.73c-.12.06-.26-.09-.26-.09v.45a.44.44,0,0,0,.26.37l2.1,1.21a1.36,1.36,0,0,0,1.27,0l2.11-1.21a.46.46,0,0,0,.26-.37v-.45s-.15.15-.26.09l-2.11-1.22a1.42,1.42,0,0,0-1.27,0Z" transform="translate(-235.38 -354.11)"/><path class="cls-4" d="M359.9,404.28a.39.39,0,0,0,0,.73l2.1,1.22a1.42,1.42,0,0,0,1.27,0l2.11-1.22a.39.39,0,0,0,0-.73l-2.11-1.22a1.42,1.42,0,0,0-1.27,0Z" transform="translate(-235.38 -354.11)"/><path class="cls-3" d="M364.58,407.43c-.11.07-.26-.08-.26-.08v.45a.46.46,0,0,0,.26.37l2.11,1.21a1.42,1.42,0,0,0,1.27,0l2.1-1.21a.44.44,0,0,0,.26-.37v-.45s-.15.15-.26.08l-2.1-1.21a1.42,1.42,0,0,0-1.27,0Z" transform="translate(-235.38 -354.11)"/><path class="cls-4" d="M364.58,407a.39.39,0,0,0,0,.73l2.11,1.22a1.42,1.42,0,0,0,1.27,0l2.1-1.22a.39.39,0,0,0,0-.73l-2.1-1.22a1.42,1.42,0,0,0-1.27,0Z" transform="translate(-235.38 -354.11)"/><polygon class="cls-4" points="97.22 76.31 101.9 73.48 96.42 72.74 93.84 74.37 97.22 76.31"/><polygon class="cls-4" points="106.58 70.64 109.16 69.01 105.73 67.1 103.23 68.68 106.58 70.64"/><polygon class="cls-4" points="83.17 51.57 87.86 48.73 85.52 46.68 83.17 45.28 80.05 47.33 81.87 48.43 79.8 49.62 83.17 51.57"/><path class="cls-5" d="M341.29,385.3a2.23,2.23,0,0,1-2,0c-.56-.31-.56-.82,0-1.13a2.24,2.24,0,0,1,2,0A.6.6,0,0,1,341.29,385.3Z" transform="translate(-235.38 -354.11)"/><path class="cls-5" d="M344.38,386.86a2.15,2.15,0,0,1-2,0c-.56-.3-.56-.81,0-1.12a2.15,2.15,0,0,1,2,0A.59.59,0,0,1,344.38,386.86Z" transform="translate(-235.38 -354.11)"/><path class="cls-5" d="M347.48,388.43a2.23,2.23,0,0,1-2,0c-.56-.31-.56-.82,0-1.13a2.24,2.24,0,0,1,2,0A.6.6,0,0,1,347.48,388.43Z" transform="translate(-235.38 -354.11)"/><path class="cls-5" d="M350.58,390a2.17,2.17,0,0,1-2,0c-.56-.3-.56-.81,0-1.12a2.17,2.17,0,0,1,2,0A.6.6,0,0,1,350.58,390Z" transform="translate(-235.38 -354.11)"/><path class="cls-6" d="M356.26,393.13a2.2,2.2,0,0,1-2,0c-.56-.31-.56-.81,0-1.13a2.2,2.2,0,0,1,2,0A.6.6,0,0,1,356.26,393.13Z" transform="translate(-235.38 -354.11)"/></g></svg>