<svg xmlns:xlink="http://www.w3.org/1999/xlink" xmlns="http://www.w3.org/2000/svg" id="레이어_1" data-name="레이어 1" viewBox="0 0 48 48" width="100"  height="100" ><defs><style>.cls-1{fill:#f8cb6d;}.cls-2{fill:#ef876f;}.cls-3{fill:#e9dcd2;}.cls-4{fill:#72c8db;}.cls-5{fill:#19171b;}</style></defs><path class="cls-1" d="M287.83,405h36.34V376.14a1.69,1.69,0,0,0-1.69-1.69H306.41a1.23,1.23,0,0,1,0,2.4h14.14a1.23,1.23,0,0,1,1.22,1.23v23.27a1.23,1.23,0,0,1-1.22,1.23h-29.1a1.23,1.23,0,0,1-1.22-1.23V378.08a1.23,1.23,0,0,1,1.22-1.23h14.42a1.23,1.23,0,0,1,0-2.4H289.52a1.69,1.69,0,0,0-1.69,1.69Z" transform="translate(-282 -372.5)"/><path class="cls-2" d="M319.32,379.3H292.68v20.82h26.64Zm-2,13.89-4,1.77-1.77,4a1.24,1.24,0,0,1-1.13.73h-.07a1.21,1.21,0,0,1-1.09-.82l-3.32-9.7a1.22,1.22,0,0,1,.29-1.26,1.24,1.24,0,0,1,.87-.36,1.27,1.27,0,0,1,.39.06l9.7,3.33a1.22,1.22,0,0,1,.1,2.28Z" transform="translate(-282 -372.5)"/><path class="cls-3" d="M310.58,395.09l.69-1.56a1.31,1.31,0,0,1,.63-.62l1.55-.69-4.37-1.5Z" transform="translate(-282 -372.5)"/><polygon class="cls-4" points="45.29 40.23 42.63 34.92 5.36 34.92 2.71 40.23 45.29 40.23"/><path class="cls-4" d="M285.64,418.54h40.72a1.69,1.69,0,0,0,1.69-1.68v-1.68H284v1.68A1.69,1.69,0,0,0,285.64,418.54Zm17-2.9h6.78a1.23,1.23,0,1,1,0,2.45h-6.78a1.23,1.23,0,1,1,0-2.45Z" transform="translate(-282 -372.5)"/><path class="cls-5" d="M329.92,413.63l-3.8-7.6V376.14a3.64,3.64,0,0,0-3.64-3.64h-33a3.64,3.64,0,0,0-3.64,3.64V406l-3.8,7.6a.72.72,0,0,0-.08.32v2.91a3.64,3.64,0,0,0,3.64,3.64h40.72a3.64,3.64,0,0,0,3.64-3.64V414A.72.72,0,0,0,329.92,413.63Zm-42.59-37.49a2.19,2.19,0,0,1,2.19-2.19h33a2.19,2.19,0,0,1,2.19,2.19v29.33H287.33Zm-.27,30.78h37.88l3.16,6.31H283.9Zm41.49,9.94a2.18,2.18,0,0,1-2.19,2.18H285.64a2.18,2.18,0,0,1-2.19-2.18v-2.18h45.1Z" transform="translate(-282 -372.5)"/><path class="cls-5" d="M302.61,417.59h6.78a.73.73,0,0,0,.73-.73.72.72,0,0,0-.73-.72h-6.78a.72.72,0,0,0-.73.72A.73.73,0,0,0,302.61,417.59Z" transform="translate(-282 -372.5)"/><path class="cls-5" d="M306.14,376.38a.73.73,0,1,0-.73-.73A.73.73,0,0,0,306.14,376.38Z" transform="translate(-282 -372.5)"/><path class="cls-5" d="M320.55,377.35h-29.1a.72.72,0,0,0-.72.73v23.27a.73.73,0,0,0,.72.73h29.1a.73.73,0,0,0,.72-.73V378.08A.72.72,0,0,0,320.55,377.35Zm-.73,23.27H292.18V378.8h27.64Z" transform="translate(-282 -372.5)"/><path class="cls-5" d="M309.75,398.68a.72.72,0,0,0,.65.49h0a.74.74,0,0,0,.67-.43l1.85-4.16,4.15-1.85a.72.72,0,0,0,.43-.69.73.73,0,0,0-.49-.66l-9.7-3.33a.75.75,0,0,0-.75.18.74.74,0,0,0-.17.75Zm5.07-6.52-2.72,1.21a.74.74,0,0,0-.37.37l-1.21,2.71-2.24-6.54Z" transform="translate(-282 -372.5)"/></svg>