<svg xmlns:xlink="http://www.w3.org/1999/xlink" xmlns="http://www.w3.org/2000/svg" id="레이어_1" data-name="레이어 1" viewBox="0 0 47.66 48" width="100"  height="101" ><defs><style>.cls-1{fill:#ef876f;}.cls-2{fill:#f8cb6d;}.cls-3{fill:#72c8db;}.cls-4{fill:#19171b;}</style></defs><path class="cls-1" d="M325.2,377.88l-.59-3.32-3.32.59A4.74,4.74,0,0,0,325.2,377.88Z" transform="translate(-282.21 -372.57)"/><path class="cls-1" d="M286.69,383.43a4.72,4.72,0,0,0,.83-2.33l-3.31.59.58,3.31A4.69,4.69,0,0,0,286.69,383.43Z" transform="translate(-282.21 -372.57)"/><path class="cls-1" d="M286.89,396.86l.58,3.32,3.32-.58A4.74,4.74,0,0,0,286.89,396.86Z" transform="translate(-282.21 -372.57)"/><path class="cls-2" d="M294.2,390.77a.73.73,0,0,0,.41.12h.12l1.54-.27a.67.67,0,0,0,.46-.29.72.72,0,0,0,.12-.53l-.28-1.54a.67.67,0,0,0-.29-.46.73.73,0,0,0-.4-.13h-.13l-1.54.27a.73.73,0,0,0-.58.83l.28,1.54A.7.7,0,0,0,294.2,390.77Z" transform="translate(-282.21 -372.57)"/><path class="cls-2" d="M315.79,387a.74.74,0,0,0,.41.13h.12l1.54-.27a.71.71,0,0,0,.58-.83l-.27-1.54a.72.72,0,0,0-.7-.59h-.13l-1.54.27a.72.72,0,0,0-.57.83l.27,1.54A.67.67,0,0,0,315.79,387Z" transform="translate(-282.21 -372.57)"/><path class="cls-3" d="M286.45,394.39h0a7.25,7.25,0,0,1,6.79,4.77l16-2.82a9.85,9.85,0,0,1,9-5.91h.52a9.76,9.76,0,0,1,3.75,1,7.23,7.23,0,0,1,4.25-4.14l-1.21-6.9h0a7.23,7.23,0,0,1-6.77-4.78L290,380.66a7.23,7.23,0,0,1-4.78,6.82ZM313.33,383a3.2,3.2,0,0,1,2.05-1.3l1.54-.27a2.5,2.5,0,0,1,.55-.05,3.16,3.16,0,0,1,3.12,2.62l.27,1.53a3.17,3.17,0,0,1-2.57,3.67l-1.54.27a2.59,2.59,0,0,1-.56.05,3.15,3.15,0,0,1-3.11-2.62l-.27-1.53A3.15,3.15,0,0,1,313.33,383Zm-9.62-1.78-.08-.43a1.24,1.24,0,0,1,1-1.42l.21,0a1.22,1.22,0,0,1,1.21,1l.08.42a4.07,4.07,0,0,1,3,1.81,1.22,1.22,0,0,1,.17.93,1.24,1.24,0,0,1-.53.77,1.22,1.22,0,0,1-.67.2,1.21,1.21,0,0,1-1-.57,1.68,1.68,0,0,0-1.43-.71l-.36,0a1.63,1.63,0,0,0-1.46,1.75,1.28,1.28,0,0,0,1.41,1.2,3.87,3.87,0,0,0,.56-.05,5.84,5.84,0,0,1,1-.1,3.73,3.73,0,0,1,3.83,3.23,4,4,0,0,1-2.28,4.21l.07.42a1.23,1.23,0,0,1-1,1.43l-.21,0a1.23,1.23,0,0,1-1.21-1l-.07-.42a4.06,4.06,0,0,1-3-1.82,1.23,1.23,0,0,1,1-1.89,1.21,1.21,0,0,1,1,.56,1.72,1.72,0,0,0,1.44.72,2,2,0,0,0,.35,0,1.63,1.63,0,0,0,1.46-1.75,1.49,1.49,0,0,0-.52-1,1.53,1.53,0,0,0-.88-.23,4.13,4.13,0,0,0-.58.05,5.26,5.26,0,0,1-1,.1,3.69,3.69,0,0,1-3.79-3.23A4,4,0,0,1,303.71,381.24Zm-9.92,4.29,1.53-.28a3.6,3.6,0,0,1,.56,0,3.16,3.16,0,0,1,3.11,2.61l.27,1.54a3.15,3.15,0,0,1-2.57,3.67l-1.53.27a3.43,3.43,0,0,1-.56.05,3.15,3.15,0,0,1-3.11-2.62l-.27-1.54A3.16,3.16,0,0,1,293.79,385.53Z" transform="translate(-282.21 -372.57)"/><path class="cls-1" d="M325.48,393.48l2.39-.42-.58-3.31a4.69,4.69,0,0,0-1.9,1.57,4.51,4.51,0,0,0-.67,1.46A8.64,8.64,0,0,1,325.48,393.48Z" transform="translate(-282.21 -372.57)"/><path class="cls-2" d="M318.72,392.89h-.39a7.43,7.43,0,0,0-7.42,7.06,6.9,6.9,0,0,0,.33,2.54,9.94,9.94,0,0,1,4.36,4.74,7.16,7.16,0,0,0,2.35.53h.42a7.44,7.44,0,0,0,5.49-12.42A7.45,7.45,0,0,0,318.72,392.89Zm-1.39,5.83a1.5,1.5,0,0,0,1.06.37,3.45,3.45,0,0,1,3.61,3.75,3.57,3.57,0,0,1-2.74,3.22v.25a1.23,1.23,0,0,1-1.22,1.17H318a1.21,1.21,0,0,1-1.15-1.28v-.26a3.66,3.66,0,0,1-2.18-2.16,1.23,1.23,0,0,1,.05-.94,1.19,1.19,0,0,1,.69-.63,1.16,1.16,0,0,1,.42-.08,1.23,1.23,0,0,1,1.15.82,1.36,1.36,0,0,0,1.22.81h.1a1.21,1.21,0,0,0,1.29-1c0-.57-.1-1.1-1.28-1.16a3.81,3.81,0,0,1-2.78-1.2,3.44,3.44,0,0,1-.82-2.55,3.55,3.55,0,0,1,2.73-3.22v-.25a1.24,1.24,0,0,1,1.22-1.17h.08a1.21,1.21,0,0,1,1.15,1.29v.25a3.66,3.66,0,0,1,2.19,2.16,1.27,1.27,0,0,1,0,.94,1.21,1.21,0,0,1-.7.63,1.15,1.15,0,0,1-.41.08,1.24,1.24,0,0,1-1.16-.81,1.32,1.32,0,0,0-1.22-.81h-.08a1.22,1.22,0,0,0-1.31,1A1.11,1.11,0,0,0,317.33,398.72Z" transform="translate(-282.21 -372.57)"/><path class="cls-2" d="M313.48,408.51a7.43,7.43,0,0,0-13.88,5.33,7.47,7.47,0,0,0,6.95,4.77,7.44,7.44,0,0,0,6.93-10.1Zm-3.76,7.54.09.23a1.23,1.23,0,0,1,0,.94,1.21,1.21,0,0,1-.68.65,1.32,1.32,0,0,1-.44.08,1.23,1.23,0,0,1-1.14-.79l-.09-.23h-.22a3.67,3.67,0,0,1-2.66-1.11,1.22,1.22,0,0,1,0-1.73,1.21,1.21,0,0,1,1.73,0,1.26,1.26,0,0,0,.9.35,1.52,1.52,0,0,0,.55-.1,1.48,1.48,0,0,0,.78-.67,1,1,0,0,0,.07-.84c-.24-.63-.6-.71-.88-.71a2.21,2.21,0,0,0-.77.16,4.48,4.48,0,0,1-1.64.33,3.35,3.35,0,0,1-1.38-.29,3.49,3.49,0,0,1-1.79-2,3.43,3.43,0,0,1,.16-2.8,3.88,3.88,0,0,1,1-1.25l-.09-.24a1.18,1.18,0,0,1,0-.94,1.22,1.22,0,0,1,.68-.64,1.11,1.11,0,0,1,.44-.08,1.22,1.22,0,0,1,1.14.79l.09.23h.24a3.58,3.58,0,0,1,2.64,1.1,1.26,1.26,0,0,1,.35.88,1.28,1.28,0,0,1-.38.86,1.22,1.22,0,0,1-.85.34,1.23,1.23,0,0,1-.89-.38,1.22,1.22,0,0,0-.89-.35,1.5,1.5,0,0,0-.55.11,1.39,1.39,0,0,0-.79.69,1,1,0,0,0-.07.81,1.17,1.17,0,0,0,.52.65,1,1,0,0,0,.37.07,2.15,2.15,0,0,0,.75-.17,4.71,4.71,0,0,1,1.66-.33,3.36,3.36,0,0,1,3.17,2.29A3.61,3.61,0,0,1,309.72,416.05Z" transform="translate(-282.21 -372.57)"/><path class="cls-4" d="M310.15,389.39a3.33,3.33,0,0,0-1.31-2.23,3.83,3.83,0,0,0-2.93-.5c-1.44.25-2.33-.28-2.55-1.55a2.12,2.12,0,0,1,1.87-2.33,2.24,2.24,0,0,1,2.29.9.73.73,0,1,0,1.22-.79,3.6,3.6,0,0,0-3-1.6l-.14-.82a.73.73,0,1,0-1.43.26l.14.81a3.5,3.5,0,0,0-2.34,3.82c.29,1.63,1.55,3.21,4.23,2.73a2.37,2.37,0,0,1,1.83.26,2,2,0,0,1,.73,1.29,2.12,2.12,0,0,1-1.86,2.33,2.27,2.27,0,0,1-2.3-.91.73.73,0,0,0-1.22.79,3.6,3.6,0,0,0,3,1.61l.15.81a.72.72,0,0,0,.71.61l.13,0A.73.73,0,0,0,308,394l-.15-.81A3.5,3.5,0,0,0,310.15,389.39Z" transform="translate(-282.21 -372.57)"/><path class="cls-4" d="M329.84,393l-3.35-19a1.69,1.69,0,0,0-2-1.37l-40.92,7.22a1.69,1.69,0,0,0-1.37,2l3.35,19a1.7,1.7,0,0,0,1.67,1.39l.29,0,21.62-3.81a8.21,8.21,0,0,0-.21,1.5,9.37,9.37,0,0,0,.18,2.32,9.38,9.38,0,0,0-11.37,12.38,9.41,9.41,0,0,0,8.78,6,9.16,9.16,0,0,0,3.35-.63,9.36,9.36,0,0,0,5.84-10.61,9.14,9.14,0,0,0,2.11.37h.5a9.38,9.38,0,0,0,7.93-14.38l2.19-.39a1.68,1.68,0,0,0,1.37-2Zm-5-19a.25.25,0,0,1,.27.19l.74,4.19a5.29,5.29,0,0,1-5.2-3.64Zm-41.12,7.49a.23.23,0,0,1,.19-.27l4.17-.73a5.17,5.17,0,0,1-3.62,5.17Zm3.63,19.21a.25.25,0,0,1-.28-.19l-.73-4.18a5.28,5.28,0,0,1,5.19,3.64Zm5.63-1a6.74,6.74,0,0,0-6.9-4.83l-1.37-7.76a6.7,6.7,0,0,0,4.83-6.89L319.18,375a6.73,6.73,0,0,0,6.43,4.85c.14,0,.29,0,.44,0l1.37,7.78a6.72,6.72,0,0,0-4.53,4.51,9.54,9.54,0,0,0-4.07-1.17,9.41,9.41,0,0,0-9.17,5.84Zm20.86,14.68a7.94,7.94,0,1,1-10.09-10.64,7.77,7.77,0,0,1,2.84-.53,7.94,7.94,0,0,1,7.25,11.17Zm12.47-13.68a7.95,7.95,0,0,1-8.33,7.52,7.7,7.7,0,0,1-2.72-.65,9.25,9.25,0,0,0-4.39-4.77,7.83,7.83,0,0,1-.41-2.92,8,8,0,0,1,7.92-7.53l.41,0a7.93,7.93,0,0,1,7.52,8.33Zm2.11-7.32a.23.23,0,0,1-.15.1l-2.92.51a9.31,9.31,0,0,0-1.13-1A5.08,5.08,0,0,1,325,391a5.2,5.2,0,0,1,2.7-2l.73,4.16A.21.21,0,0,1,328.37,393.41Z" transform="translate(-282.21 -372.57)"/><path class="cls-4" d="M298.5,387.91a2.67,2.67,0,0,0-3.09-2.16l-1.54.27a2.66,2.66,0,0,0-2.16,3.09l.27,1.53a2.62,2.62,0,0,0,1.1,1.73,2.68,2.68,0,0,0,1.52.48,2.49,2.49,0,0,0,.47,0l1.54-.27a2.67,2.67,0,0,0,2.16-3.09Zm-1.36,2.7a1.27,1.27,0,0,1-.78.5l-1.54.27a1.21,1.21,0,0,1-1.41-1l-.27-1.53a1.23,1.23,0,0,1,1-1.41l1.54-.27.22,0a1.22,1.22,0,0,1,1.19,1l.27,1.54A1.27,1.27,0,0,1,297.14,390.61Z" transform="translate(-282.21 -372.57)"/><path class="cls-4" d="M313.57,386.84a2.7,2.7,0,0,0,1.1,1.72,2.61,2.61,0,0,0,1.52.48,2.42,2.42,0,0,0,.47,0l1.54-.27h0a2.66,2.66,0,0,0,2.16-3.09l-.27-1.54a2.66,2.66,0,0,0-3.09-2.16l-1.53.27a2.68,2.68,0,0,0-2.17,3.09Zm2.15-3.2,1.54-.27.21,0a1.22,1.22,0,0,1,1.19,1l.27,1.53a1.21,1.21,0,0,1-1,1.41l-1.54.27a1.23,1.23,0,0,1-.91-.2,1.19,1.19,0,0,1-.49-.78l-.28-1.54A1.23,1.23,0,0,1,315.72,383.64Z" transform="translate(-282.21 -372.57)"/><path class="cls-4" d="M318.53,396.4h0a1.84,1.84,0,0,1,1.67,1.14.73.73,0,0,0,1.37-.5,3.24,3.24,0,0,0-2.24-2l0-.63a.73.73,0,1,0-1.45-.08l0,.64a3.09,3.09,0,0,0-2.71,2.84,3,3,0,0,0,.69,2.19,3.37,3.37,0,0,0,2.43,1c1.23.06,1.82.63,1.76,1.69a1.7,1.7,0,0,1-1.91,1.5,1.83,1.83,0,0,1-1.67-1.13.73.73,0,1,0-1.37.49,3.24,3.24,0,0,0,2.23,2l0,.63a.74.74,0,0,0,.69.77h0a.73.73,0,0,0,.72-.69l0-.64a3.1,3.1,0,0,0,2.72-2.83,3,3,0,0,0-3.13-3.23,2,2,0,0,1-1.42-.53,1.59,1.59,0,0,1-.33-1.16A1.72,1.72,0,0,1,318.53,396.4Z" transform="translate(-282.21 -372.57)"/><path class="cls-4" d="M306.27,410.5a2,2,0,0,1-1.51.08,1.61,1.61,0,0,1-.77-.92,1.49,1.49,0,0,1,.08-1.22,2,2,0,0,1,1.06-.93,1.83,1.83,0,0,1,2,.36.73.73,0,1,0,1.05-1,3.17,3.17,0,0,0-2.85-.9l-.22-.59a.73.73,0,0,0-1.36.52l.23.59a3.31,3.31,0,0,0-1.19,1.3,2.9,2.9,0,0,0-.14,2.39,3,3,0,0,0,1.53,1.73,3.36,3.36,0,0,0,2.63-.05c1.15-.44,1.92-.16,2.3.83a1.72,1.72,0,0,1-1.14,2.15,1.86,1.86,0,0,1-2-.36.72.72,0,0,0-1,0,.74.74,0,0,0,0,1,3.18,3.18,0,0,0,2.3.95,3.29,3.29,0,0,0,.54-.05l.23.59a.73.73,0,0,0,.68.47.75.75,0,0,0,.26-.05.72.72,0,0,0,.42-.94l-.23-.59a3.11,3.11,0,0,0,1.34-3.7A3,3,0,0,0,306.27,410.5Z" transform="translate(-282.21 -372.57)"/></svg>