<svg xmlns:xlink="http://www.w3.org/1999/xlink" xmlns="http://www.w3.org/2000/svg" viewBox="0 0 400 400" width="700"  height="500" transform="scale(-1, 1) translate(200, 200)"><defs><style>.cls-1{isolation:isolate;}.cls-2{fill:#d0d2d5;}.cls-3{fill:#91a2a4;}.cls-4{fill:#ebeeef;}.cls-5{fill:#d3d3d3;mix-blend-mode:multiply;}.cls-6{fill:#445b6d;}.cls-7{fill:#30475d;}.cls-8{fill:#1f3040;}</style></defs><g class="cls-1"><g id="레이어_1" data-name="레이어 1"><g id="Mouse"><path class="cls-2" d="M297.33,417.6s2.34.27,6.26-2.05,24.76-15.6,29-18.53a8.08,8.08,0,0,0,3.22-7.88S310,398.9,297.33,417.6Z" transform="translate(-272.98 -372.59)"/><path class="cls-3" d="M335.8,383.23l-11.07-6.8a5.79,5.79,0,0,0-3.6-.88c-19.08,1.81-37.38,16.64-46.25,24.93a6,6,0,0,0,1,9.53l15.12,9.1a6,6,0,0,0,7.24-.79c7-6.66,20.79-18.45,36.56-24.36A6,6,0,0,0,335.8,383.23Z" transform="translate(-272.98 -372.59)"/><polygon class="cls-3" points="0.03 32.72 0.03 28.84 65.67 12.46 65.64 16.55 0.03 32.72"/><path class="cls-4" d="M335.8,380.3l-3.86-2.38a7.1,7.1,0,0,0-2.12-.07L328.5,377v-1.22h0l-3.77-2.32a5.85,5.85,0,0,0-3.6-.88c-19.08,1.82-37.38,16.64-46.25,24.93a6,6,0,0,0,1,9.53L291,416.18a6,6,0,0,0,7.24-.79c7-6.66,20.79-18.45,36.56-24.37A6,6,0,0,0,335.8,380.3Z" transform="translate(-272.98 -372.59)"/><path class="cls-3" d="M328.5,377v-1.22a55.45,55.45,0,0,0-12.74,3.41,8.1,8.1,0,0,1-.47,2.54,52.65,52.65,0,0,1,14.53-3.91Z" transform="translate(-272.98 -372.59)"/><path class="cls-5" d="M315.29,381.76a52.65,52.65,0,0,1,14.53-3.91L328.5,377a73.2,73.2,0,0,0-12.84,3.23A9.12,9.12,0,0,1,315.29,381.76Z" transform="translate(-272.98 -372.59)"/><path class="cls-6" d="M314.25,380.23c0-3.08-2.31-4.25-5.13-2.61a11.33,11.33,0,0,0-5,7.56,78.77,78.77,0,0,1,10.16-4.89S314.25,380.25,314.25,380.23Z" transform="translate(-272.98 -372.59)"/><polygon class="cls-6" points="31.1 12.6 33.15 13.7 41.71 5.62 39.46 4.44 31.1 12.6"/><path class="cls-7" d="M316.3,381.33c0-3.08-2.31-4.25-5.13-2.61a11.42,11.42,0,0,0-5,7.57,77.58,77.58,0,0,1,10.16-4.9S316.3,381.35,316.3,381.33Z" transform="translate(-272.98 -372.59)"/><path class="cls-8" d="M307.74,385.41a78.44,78.44,0,0,1,7.63-3.64c-.32-1.87-1.95-2.5-3.92-1.35A8.87,8.87,0,0,0,307.74,385.41Z" transform="translate(-272.98 -372.59)"/></g></g></g></svg>