<svg xmlns:xlink="http://www.w3.org/1999/xlink" xmlns="http://www.w3.org/2000/svg" id="레이어_1" data-name="레이어 1" viewBox="0 0 700 700" width="225.08"  height="159.41" transform="translate(300, 300)"><defs><style>.cls-1{fill:#353a43;}.cls-2{fill:#4f5869;}.cls-3{fill:#6a778b;}.cls-4{fill:#33839a;}.cls-5{fill:#4da7c2;}.cls-6{fill:#a14495;}.cls-7{fill:#b4579d;}.cls-8{fill:#85a828;}.cls-9{fill:#b9d558;}.cls-10{fill:#bd3f37;}.cls-11{fill:#e64d3f;}</style></defs><path class="cls-1" d="M213.39,423.82c-.57-.38-1.17-.75-1.79-1.1a48.91,48.91,0,0,0-4.69-2.36c-16.66-9.73-37.69-22.06-37.69-22.06s-20.41-11.58-36.11-20.53a37.72,37.72,0,0,0-3.53-2.3,46,46,0,0,0-4.38-2.22l-7-4c-11.11-6.42-24.85-8-33.91-.86-.31.25-.68.51-1.06.77a57.28,57.28,0,0,0-17.88,6.34,34.44,34.44,0,0,0-7.24,5.46c-14.33,5.94-30.48,12.3-38.79,17.13A33.29,33.29,0,0,0,7.54,409.51H4v10.91q0,.46,0,.93V423h.13a12,12,0,0,0,6.42,9.22c12.16,6.62,46.49,1,58.72-5.26a48,48,0,0,1,12.87-4,67,67,0,0,0,30.14.28,42.16,42.16,0,0,1,5.12,1.53l16.67,10.46v6.28h0c.1,6.64,4.49,13.26,13.22,18.31.54.31,1.09.6,1.64.9a16.43,16.43,0,0,1-5.25,9.19c-3.57,3-8.2,9.63-11.14,16.49h-2.88v11.18c0,.15,0,.3,0,.44v.51h0c.1,2.73.95,5,2.86,6.47,8.44,6.42,33.23,11.67,59.94-6.93,20.67-14.39,25.91-34.78,28.11-45.69a17.92,17.92,0,0,0,4.21-10.48c2-2,4.27-3.88,4.27-6h0V423.82Z" transform="translate(-4.02 -351.52)"/><path class="cls-2" d="M224.36,418.39,216,413.55a37,37,0,0,0-4.42-3,48.91,48.91,0,0,0-4.69-2.36c-16.66-9.73-37.69-22.06-37.69-22.06s-20.41-11.58-36.11-20.53a37.72,37.72,0,0,0-3.53-2.3,46,46,0,0,0-4.38-2.22c-2.87-1.63-5.3-3-7-4-11.11-6.41-24.85-8-33.91-.86-.31.25-.68.51-1.06.77a57.28,57.28,0,0,0-17.88,6.34,34.46,34.46,0,0,0-7.24,5.47c-14.33,5.93-30.48,12.29-38.79,17.13-15.06,8.76-20.87,27.52-8.7,34.14s46.49,1,58.72-5.26a42.62,42.62,0,0,1,9.58-3.31,65.94,65.94,0,0,0,36.48.43c.71.22,1.4.45,2.07.7l17.64,11.07c-3.05,8.39,1,17.5,12.26,24,.54.31,1.09.61,1.64.9a16.4,16.4,0,0,1-5.25,9.19c-7.49,6.23-19.6,28.67-11.16,35.09s33.23,11.67,59.94-6.93c20.67-14.39,25.91-34.77,28.11-45.69a17.9,17.9,0,0,0,4.21-10.48C228.32,426.29,232.61,423.15,224.36,418.39Z" transform="translate(-4.02 -351.52)"/><ellipse class="cls-1" cx="151.76" cy="81.69" rx="16.13" ry="9.32"/><path class="cls-3" d="M170.6,436.88a14.85,14.85,0,0,0-2.66-2.86c-6.68-5.57-17.62-5.57-24.3,0a14.54,14.54,0,0,0-2.66,2.86,11.1,11.1,0,0,0,3.4,2.92c6.27,3.62,16.54,3.62,22.82,0A11.22,11.22,0,0,0,170.6,436.88Z" transform="translate(-4.02 -351.52)"/><ellipse class="cls-3" cx="151.76" cy="77.76" rx="13.68" ry="7.9"/><path class="cls-1" d="M167.94,434c-.2-.17-.42-.32-.63-.48a11.27,11.27,0,0,1-1.85,1.33c-5.32,3.07-14,3.07-19.35,0-.26-.15-.5-.31-.74-.48a9.16,9.16,0,0,0,2.78,2.34c5.32,3.08,14,3.08,19.34,0a10.83,10.83,0,0,0,1.88-1.36A15.36,15.36,0,0,0,167.94,434Z" transform="translate(-4.02 -351.52)"/><ellipse class="cls-1" cx="94.54" cy="49.89" rx="16.13" ry="9.32"/><path class="cls-3" d="M113.37,405.09a14.79,14.79,0,0,0-2.65-2.86c-6.69-5.57-17.63-5.57-24.31,0a14.85,14.85,0,0,0-2.66,2.86,11.06,11.06,0,0,0,3.4,2.91c6.28,3.63,16.55,3.63,22.82,0A10.94,10.94,0,0,0,113.37,405.09Z" transform="translate(-4.02 -351.52)"/><ellipse class="cls-3" cx="94.54" cy="45.97" rx="13.68" ry="7.9"/><path class="cls-1" d="M110.72,402.23c-.21-.17-.43-.32-.64-.48a10.76,10.76,0,0,1-1.84,1.33c-5.32,3.07-14,3.07-19.35,0-.27-.15-.51-.32-.75-.48a9.41,9.41,0,0,0,2.78,2.34c5.32,3.07,14,3.07,19.35,0a10.37,10.37,0,0,0,1.87-1.36A15.23,15.23,0,0,0,110.72,402.23Z" transform="translate(-4.02 -351.52)"/><path class="cls-1" d="M187,416.8v24.5a9.57,9.57,0,0,0,9.58,9.57h0a9.56,9.56,0,0,0,9.57-9.57V416.8a9.57,9.57,0,0,0-9.57-9.58h0A9.58,9.58,0,0,0,187,416.8Z" transform="translate(-4.02 -351.52)"/><path class="cls-1" d="M184.34,438.62h24.5a9.57,9.57,0,0,0,9.57-9.57h0a9.58,9.58,0,0,0-9.57-9.58h-24.5a9.58,9.58,0,0,0-9.58,9.58h0A9.57,9.57,0,0,0,184.34,438.62Z" transform="translate(-4.02 -351.52)"/><path class="cls-4" d="M189.19,439.19V437h1.08a5.14,5.14,0,0,1,1.08-.8,11.59,11.59,0,0,1,10.48,0,5.33,5.33,0,0,1,1.07.8H204v2.28a3.7,3.7,0,0,1-2.15,3,11.65,11.65,0,0,1-10.48,0,3.73,3.73,0,0,1-2.16-3h0Z" transform="translate(-4.02 -351.52)"/><ellipse class="cls-5" cx="192.56" cy="85.42" rx="7.41" ry="4.28"/><path class="cls-6" d="M178,429.57v-2.24H179a5.94,5.94,0,0,1,1.08-.8,11.65,11.65,0,0,1,10.48,0,6.21,6.21,0,0,1,1.07.8h1.09v2.29a3.7,3.7,0,0,1-2.15,3,11.65,11.65,0,0,1-10.48,0,3.71,3.71,0,0,1-2.16-3h0Z" transform="translate(-4.02 -351.52)"/><path class="cls-7" d="M190.59,424.31c2.88,1.66,2.88,4.38,0,6a11.59,11.59,0,0,1-10.48,0c-2.88-1.66-2.88-4.38,0-6A11.59,11.59,0,0,1,190.59,424.31Z" transform="translate(-4.02 -351.52)"/><path class="cls-8" d="M189.19,419.25V417h1.08a5.94,5.94,0,0,1,1.08-.8,11.65,11.65,0,0,1,10.48,0,6.21,6.21,0,0,1,1.07.8H204v2.29a3.67,3.67,0,0,1-2.15,3,11.59,11.59,0,0,1-10.48,0,3.71,3.71,0,0,1-2.16-3h0Z" transform="translate(-4.02 -351.52)"/><path class="cls-9" d="M201.83,414c2.88,1.66,2.88,4.38,0,6a11.65,11.65,0,0,1-10.48,0c-2.88-1.67-2.88-4.39,0-6A11.65,11.65,0,0,1,201.83,414Z" transform="translate(-4.02 -351.52)"/><path class="cls-10" d="M200.4,429.57v-2.24h1.08a5.94,5.94,0,0,1,1.08-.8,11.63,11.63,0,0,1,10.47,0,5.94,5.94,0,0,1,1.08.8h1.08v2.29a3.71,3.71,0,0,1-2.16,3,11.63,11.63,0,0,1-10.47,0,3.71,3.71,0,0,1-2.16-3h0Z" transform="translate(-4.02 -351.52)"/><path class="cls-11" d="M213,424.31c2.88,1.66,2.88,4.38,0,6a11.57,11.57,0,0,1-10.47,0c-2.89-1.66-2.89-4.38,0-6A11.57,11.57,0,0,1,213,424.31Z" transform="translate(-4.02 -351.52)"/><path class="cls-3" d="M146.54,461.66c-4.87,4.25-12.23,16.87-12.07,24.44,0,1.49.36,2.49,1,3,3,2.28,9.82,4.95,19.16,4.95h0c8.18,0,20.92-2.08,35.16-12A60.14,60.14,0,0,0,212,453.24c-7.74,3.7-21.79,9.69-36.05,12C165.33,467,154.61,464.56,146.54,461.66Z" transform="translate(-4.02 -351.52)"/><polygon class="cls-1" points="83.99 16.02 83.99 15.39 82.63 15.39 78.47 12.99 74.32 15.39 69.37 15.39 69.37 18.22 69.41 18.22 69.37 18.25 78.75 23.66 87.68 22.5 88.67 18.88 88.67 16.02 83.99 16.02"/><polygon class="cls-1" points="107.52 15.35 107.52 16.23 101.83 12.95 96.62 15.96 91.62 15.96 91.62 18.84 92.67 22.84 101.53 23.63 110.94 18.2 110.94 15.35 107.52 15.35"/><polygon class="cls-1" points="106.45 28.94 106.45 29.21 101.53 26.37 92.67 27.16 92.38 28.28 91.62 28.28 91.62 31.16 101.83 37.05 110.94 31.8 110.94 28.94 106.45 28.94"/><polygon class="cls-1" points="87.78 28.32 87.56 27.55 78.63 26.38 71.69 30.39 71.69 28.94 69.25 28.94 69.25 31.8 78.36 37.05 88.56 31.16 88.56 28.32 87.78 28.32"/><polygon class="cls-3" points="92.67 19.98 91.62 15.98 101.83 10.08 110.94 15.34 101.53 20.77 92.67 19.98"/><polygon class="cls-3" points="91.62 28.3 92.67 24.3 101.53 23.51 110.94 28.94 101.83 34.19 91.62 28.3"/><polygon class="cls-3" points="69.37 15.38 78.47 10.13 88.67 16.02 87.68 19.63 78.75 20.8 69.37 15.38"/><polygon class="cls-3" points="69.25 28.94 78.63 23.52 87.56 24.69 88.56 28.3 78.36 34.19 69.25 28.94"/><path class="cls-3" d="M55.73,374.92,53,376c-12.1,5-24.62,10.1-31.33,14-8.57,5-13,13.28-12.9,18.89a7.43,7.43,0,0,0,4.08,6.94c2.84,1.54,8.05,2.4,14.67,2.4a116.87,116.87,0,0,0,35.09-5.83C56.76,406,51.65,394.6,55.73,374.92Z" transform="translate(-4.02 -351.52)"/><path class="cls-3" d="M154,400.17l.81-3.07,6.78-.6,10.06,6.06-6.26,3.61a1.39,1.39,0,0,1-1.42,0Z" transform="translate(-4.02 -351.52)"/><polygon class="cls-1" points="150 48.63 150 48.64 150 48.63 150 48.63"/><path class="cls-1" d="M171.67,402.56h0l-6.26,3.61a1.39,1.39,0,0,1-1.42,0l-10-6v2.19l10,6a1.39,1.39,0,0,0,1.42,0l6.26-3.61v-2.19Z" transform="translate(-4.02 -351.52)"/><polygon class="cls-3" points="129.95 36.13 136.83 32.16 147.75 38.39 147 41.12 140.25 42 129.95 36.13"/><polygon class="cls-1" points="147 41.12 140.25 42 129.96 36.13 129.95 36.13 129.95 38.27 129.98 38.27 129.95 38.29 140.25 44.16 147 43.29 147.75 40.55 147.75 38.39 147 41.12"/><polygon class="cls-3" points="127.13 53.21 136.79 58.6 142.91 55.06 133.25 49.67 127.13 53.21"/><polygon class="cls-1" points="136.79 58.6 127.13 53.21 127.13 56.38 136.79 61.77 142.91 58.24 142.91 55.06 136.79 58.6"/><polygon class="cls-11" points="121.01 60.84 127.8 64.62 132.1 62.14 125.31 58.35 121.01 60.84"/><polygon class="cls-10" points="125.31 60.02 130.63 62.99 132.1 62.14 125.31 58.35 121.01 60.84 122.48 61.66 125.31 60.02"/></svg>