<svg xmlns="http://www.w3.org/2000/svg" xmlns:xlink="http://www.w3.org/1999/xlink" id="레이어_1" data-name="레이어 1" viewBox="0 0 120 120" width="110"  height="358" transform="translate(700, 200)"><defs><style>.cls-1,.cls-10,.cls-12,.cls-13,.cls-14,.cls-15,.cls-16,.cls-17,.cls-18,.cls-19,.cls-2,.cls-20,.cls-21,.cls-22,.cls-23,.cls-24,.cls-4,.cls-5,.cls-6,.cls-7,.cls-8,.cls-9{fill-rule:evenodd;}.cls-1{fill:url(#GradientFill_27);}.cls-2{fill:#f0ece7;}.cls-17,.cls-3{fill:#b8aca8;}.cls-4{fill:url(#GradientFill_28);}.cls-5{fill:#e6dfd5;}.cls-6{fill:url(#GradientFill_29);}.cls-7{fill:url(#GradientFill_29-2);}.cls-8{fill:url(#GradientFill_29-3);}.cls-9{fill:url(#GradientFill_30);}.cls-10{fill:url(#GradientFill_27-2);}.cls-11{fill:url(#GradientFill_31);}.cls-12{fill:url(#GradientFill_28-2);}.cls-13{fill:url(#GradientFill_29-4);}.cls-14{fill:url(#GradientFill_29-5);}.cls-15{fill:url(#GradientFill_30-2);}.cls-16{fill:url(#GradientFill_26);}.cls-18{fill:#c0b3ae;}.cls-19{fill:url(#GradientFill_28-3);}.cls-20{fill:url(#GradientFill_26-2);}.cls-21{fill:url(#GradientFill_26-3);}.cls-22{fill:url(#GradientFill_26-4);}.cls-23{fill:url(#GradientFill_32);}.cls-24{fill:url(#GradientFill_28-4);}</style><linearGradient id="GradientFill_27" x1="2" y1="57.52" x2="20.27" y2="57.52" gradientUnits="userSpaceOnUse"><stop offset="0" stop-color="#f0ebe4"/><stop offset="1" stop-color="#b0a09a"/></linearGradient><linearGradient id="GradientFill_28" x1="0.15" y1="62.75" x2="18.8" y2="62.75" gradientUnits="userSpaceOnUse"><stop offset="0" stop-color="#e6dfd5"/><stop offset="1" stop-color="#c4b5b0"/></linearGradient><linearGradient id="GradientFill_29" x1="14.17" y1="65.1" x2="9.75" y2="48.58" gradientUnits="userSpaceOnUse"><stop offset="0" stop-color="#a29895"/><stop offset="1" stop-color="#bbaca8"/></linearGradient><linearGradient id="GradientFill_29-2" x1="5.12" y1="55.16" x2="20.33" y2="58.12" xlink:href="#GradientFill_29"/><linearGradient id="GradientFill_29-3" x1="17.17" y1="62.98" x2="10.99" y2="42.79" xlink:href="#GradientFill_29"/><linearGradient id="GradientFill_30" x1="19.11" y1="60.22" x2="13.72" y2="49.62" gradientUnits="userSpaceOnUse"><stop offset="0" stop-color="#a99e9c"/><stop offset="1" stop-color="#bbaca8"/></linearGradient><linearGradient id="GradientFill_27-2" x1="8.94" y1="40.02" x2="10.95" y2="40.02" xlink:href="#GradientFill_27"/><linearGradient id="GradientFill_31" x1="12.9" y1="58.24" x2="10.54" y2="44.87" gradientUnits="userSpaceOnUse"><stop offset="0" stop-color="#b8aca8"/><stop offset="1" stop-color="#dbd2c9"/></linearGradient><linearGradient id="GradientFill_28-2" x1="8.74" y1="40.6" x2="10.79" y2="40.6" xlink:href="#GradientFill_28"/><linearGradient id="GradientFill_29-4" x1="12.39" y1="58.41" x2="11.35" y2="49.9" xlink:href="#GradientFill_29"/><linearGradient id="GradientFill_29-5" x1="12.7" y1="57.94" x2="11.67" y2="49.51" xlink:href="#GradientFill_29"/><linearGradient id="GradientFill_30-2" x1="12.95" y1="57.85" x2="11.78" y2="48.34" xlink:href="#GradientFill_30"/><linearGradient id="GradientFill_26" x1="26.73" y1="39.32" x2="13.44" y2="-4.16" gradientUnits="userSpaceOnUse"><stop offset="0" stop-color="#a99e9c"/><stop offset="1" stop-color="#c0b4b0"/></linearGradient><linearGradient id="GradientFill_28-3" x1="0.15" y1="18.03" x2="18.8" y2="18.03" xlink:href="#GradientFill_28"/><linearGradient id="GradientFill_26-2" x1="20.65" y1="46.26" x2="6.01" y2="-8.38" xlink:href="#GradientFill_26"/><linearGradient id="GradientFill_26-3" x1="23.61" y1="41.72" x2="10.14" y2="-2.34" xlink:href="#GradientFill_26"/><linearGradient id="GradientFill_26-4" x1="25.5" y1="39.69" x2="12.2" y2="-3.78" xlink:href="#GradientFill_26"/><linearGradient id="GradientFill_32" x1="11.76" y1="4.15" x2="7.13" y2="5.48" gradientUnits="userSpaceOnUse"><stop offset="0" stop-color="#c0b3ae"/><stop offset="1" stop-color="#b8aca8"/></linearGradient><linearGradient id="GradientFill_28-4" x1="18.4" y1="3.68" x2="5.78" y2="5.23" xlink:href="#GradientFill_28"/></defs><polygon class="cls-1" points="18.1 61.24 15.34 62.84 11.74 63.7 7.85 63.7 4.25 62.84 1.49 61.24 0 59.17 0 55.88 1.49 53.8 4.25 52.21 7.85 51.35 11.74 51.35 15.34 52.21 18.1 53.8 19.59 55.88 19.59 59.17 18.1 61.24"/><polygon class="cls-2" points="18.1 60.21 15.34 61.8 11.74 62.66 7.85 62.66 4.25 61.8 1.49 60.21 0 58.13 0 55.88 1.49 53.8 4.25 52.21 7.85 51.35 11.74 51.35 15.34 52.21 18.1 53.8 19.59 55.88 19.59 58.13 18.1 60.21"/><rect class="cls-3" x="7.85" y="62.66" width="3.9" height="1.04"/><polygon class="cls-4" points="7.85 62.66 4.25 61.8 4.25 62.84 7.85 63.7 7.85 62.66"/><polygon class="cls-5" points="1.49 60.21 4.25 61.8 4.25 62.84 1.49 61.24 1.49 60.21"/><polygon class="cls-5" points="1.49 60.21 0 58.13 0 59.17 1.49 61.24 1.49 60.21"/><polygon class="cls-6" points="11.74 62.66 15.34 61.8 15.34 62.84 11.74 63.7 11.74 62.66"/><polygon class="cls-7" points="19.59 57.63 9.58 57.63 9.19 57.53 8.88 57.36 8.72 57.13 8.72 56.88 8.88 56.65 9.19 56.48 9.58 56.38 19.59 56.38 19.59 57.63"/><polygon class="cls-8" points="18.1 60.21 15.34 61.8 15.34 62.84 18.1 61.24 18.1 60.21"/><polygon class="cls-9" points="18.1 60.21 19.59 58.13 19.59 59.17 18.1 61.24 18.1 60.21"/><polygon class="cls-10" points="10.71 57.36 10.4 57.53 10.01 57.63 9.58 57.63 9.19 57.53 8.88 57.36 8.72 57.13 8.72 22.91 8.88 22.69 9.19 22.51 9.58 22.42 10.01 22.42 10.4 22.51 10.71 22.69 10.87 22.91 10.87 57.13 10.71 57.36"/><rect class="cls-11" x="9.58" y="23.66" width="0.43" height="33.96"/><polygon class="cls-12" points="9.58 23.66 9.19 23.57 9.19 57.53 9.58 57.63 9.58 23.66"/><polygon class="cls-5" points="8.88 23.39 9.19 23.57 9.19 57.53 8.88 57.36 8.88 23.39"/><polygon class="cls-5" points="8.88 23.39 8.72 23.16 8.72 57.13 8.88 57.36 8.88 23.39"/><polygon class="cls-13" points="10.01 23.66 10.4 23.57 10.4 57.53 10.01 57.63 10.01 23.66"/><polygon class="cls-14" points="10.71 23.39 10.4 23.57 10.4 57.53 10.71 57.36 10.71 23.39"/><polygon class="cls-15" points="10.71 23.39 10.87 23.16 10.87 57.13 10.71 57.36 10.71 23.39"/><polygon class="cls-2" points="18.1 24.89 15.34 26.48 11.74 27.34 7.85 27.34 4.25 26.48 1.49 24.89 0 22.81 0 20.56 1.49 18.48 4.25 16.89 7.85 16.03 11.74 16.03 15.34 16.89 18.1 18.48 19.59 20.56 19.59 22.81 18.1 24.89"/><polygon class="cls-16" points="17.96 3.78 17.96 5.65 17.8 11.08 19.59 22.81 19.59 20.56 17.96 3.78"/><polygon class="cls-5" points="1.63 3.78 1.63 5.65 0.98 18.04 0 22.81 0 20.56 1.63 3.78"/><polygon class="cls-2" points="10.71 22.04 10.4 22.21 10.01 22.31 9.58 22.31 9.19 22.21 8.88 22.04 8.72 21.81 8.72 21.56 8.88 21.34 9.19 21.16 9.58 21.07 10.01 21.07 10.4 21.16 10.71 21.34 10.87 21.56 10.87 21.81 10.71 22.04"/><polygon class="cls-2" points="16.72 7.38 14.42 8.71 11.42 9.43 8.17 9.43 5.17 8.71 2.87 7.38 1.63 5.65 1.63 3.78 2.87 2.04 5.17 0.72 8.17 0 11.42 0 14.42 0.72 16.72 2.04 17.96 3.78 17.96 5.65 16.72 7.38"/><polygon class="cls-17" points="15.46 6.9 13.58 7.98 11.12 8.57 8.47 8.57 6.01 7.98 4.13 6.9 3.12 5.48 3.12 3.95 4.13 2.53 6.01 1.45 8.47 0.86 11.12 0.86 13.58 1.45 15.46 2.53 16.47 3.95 16.47 5.48 15.46 6.9"/><polygon class="cls-18" points="8.17 9.43 11.42 9.43 11.74 16.03 11.74 27.34 7.85 27.34 7.13 16.98 8.17 9.43"/><polygon class="cls-19" points="8.17 9.43 5.17 8.71 4.25 16.89 4.25 26.48 7.85 27.34 8.17 9.43"/><polygon class="cls-5" points="2.87 7.38 5.17 8.71 4.25 26.48 1.49 24.89 2.87 7.38"/><polygon class="cls-5" points="2.87 7.38 1.63 5.65 0 22.81 1.49 24.89 3.02 15.59 2.87 7.38"/><polygon class="cls-20" points="11.42 9.43 14.42 8.71 15.64 16.28 15.34 26.48 11.74 27.34 11.42 9.43"/><polygon class="cls-21" points="16.72 7.38 14.42 8.71 15.34 26.48 18.1 24.89 18.31 16.13 16.72 7.38"/><polygon class="cls-22" points="16.72 7.38 17.96 5.65 19.59 22.81 18.1 24.89 16.72 7.38"/><polygon class="cls-23" points="11.12 0.86 11.25 8.54 11.12 8.57 8.47 8.57 8.34 8.54 8.47 0.86 11.12 0.86"/><polygon class="cls-24" points="13.58 1.45 11.12 0.86 11.19 4.93 13.58 7.98 13.85 7.83 13.58 1.45"/><polygon class="cls-5" points="13.58 1.45 15.46 2.53 16.47 3.95 16.47 5.48 15.46 6.9 14.24 7.6 13.85 7.83 13.58 1.45"/></svg>