<svg xmlns:xlink="http://www.w3.org/1999/xlink" xmlns="http://www.w3.org/2000/svg" viewBox="0 0 48 48" width="48"  height="48" ><defs><style>.cls-1{fill:#fff;}</style></defs><title>Tshirt</title><g id="Tshirt"><path class="cls-1" d="M46.9082,18.5811,41.0024,5.7852a2.0871,2.0871,0,0,0-.5063-.6533l-7-4A.999.999,0,0,0,33,1H28.4634a.9988.9988,0,0,0-.7441.332A5.0074,5.0074,0,0,1,24,3a5.005,5.005,0,0,1-3.7183-1.6675A1.0011,1.0011,0,0,0,19.5371,1H15a.999.999,0,0,0-.4961.1318l-7,4A2.0692,2.0692,0,0,0,7,5.78L1.0918,18.5811a1.001,1.001,0,0,0,.5571,1.3555L9,22.6932V44a3.0033,3.0033,0,0,0,3,3H36a3.0033,3.0033,0,0,0,3-3V22.6932l7.3511-2.7567a1.001,1.001,0,0,0,.5571-1.3555ZM24,5a7.0057,7.0057,0,0,0,4.89-2h.0093a5,5,0,0,1-9.7979,0h.01A7.0036,7.0036,0,0,0,24,5ZM7.4417,9.5956,8.8026,20.4829l-5.4437-2.041ZM37,44a1.0013,1.0013,0,0,1-1,1H12a1.0013,1.0013,0,0,1-1-1V22c0-.01-.0016-.0208-.002-.0313l-.0014-.0219c-.0013-.0236-.0014-.0474-.0045-.0709L9.0752,6.5376,15.2656,3h1.8057A7.0006,7.0006,0,0,0,30.9287,3h1.8057l6.19,3.5376L37.0078,21.876c-.0031.0236-.0032.0474-.0045.0712l-.0013.0212c0,.0106-.002.0211-.002.0316Zm2.1974-23.5171L40.5583,9.5953l4.0828,8.8466Z"/></g></svg>